<?xml version="1.0" encoding="UTF-8" standalone="no"?>
<!DOCTYPE svg PUBLIC "-//W3C//DTD SVG 1.1//EN" "http://www.w3.org/Graphics/SVG/1.1/DTD/svg11.dtd">
<svg width="100%" height="100%" viewBox="0 0 24 24" version="1.1" xmlns="http://www.w3.org/2000/svg" xmlns:xlink="http://www.w3.org/1999/xlink" xml:space="preserve" xmlns:serif="http://www.serif.com/" style="fill-rule:evenodd;clip-rule:evenodd;stroke-linejoin:round;stroke-miterlimit:2;">
    <g transform="matrix(0.048,0,0,0.048,0,0)">
        <path d="M359.089,110.797C359.089,115.654 355.145,119.597 350.288,119.597L252.65,119.597C247.793,119.597 243.849,115.654 243.849,110.797C243.849,105.94 247.793,101.996 252.65,101.996L252.65,43.931C247.793,43.931 243.849,39.987 243.849,35.13C243.849,30.273 247.793,26.33 252.65,26.33L350.288,26.33C355.145,26.33 359.089,30.273 359.089,35.13L359.089,110.797Z" style="fill:rgb(244,68,55);"/>
    </g>
    <g transform="matrix(1.76774e-18,-0.0288694,0.048,2.93915e-18,-7.00913,14.784)">
        <path d="M480.769,396.023C480.769,391.166 474.213,387.223 466.137,387.223L48.857,387.223C40.781,387.223 34.224,391.166 34.224,396.023C34.224,400.881 40.781,404.824 48.857,404.824L466.137,404.824C474.213,404.824 480.769,400.881 480.769,396.023Z" style="fill:rgb(70,91,101);"/>
    </g>
    <g transform="matrix(0.048,0,0,0.048,0,0)">
        <path d="M245.431,148.746C249.305,146.343 254.444,147.299 257.174,151.042L471.583,444.945C472.724,446.509 473.273,448.326 473.272,450.127L473.272,450.13C473.269,451.325 473.029,452.505 472.559,453.604L472.557,453.609C471.956,455.012 470.982,456.277 469.66,457.241C468.095,458.383 466.278,458.932 464.477,458.931L464.472,458.931L35.528,458.931L35.523,458.931C33.722,458.932 31.905,458.383 30.34,457.241C29.018,456.277 28.044,455.012 27.443,453.609C26.983,452.542 26.728,451.366 26.728,450.13L26.728,450.127C26.727,448.326 27.276,446.509 28.417,444.945L242.724,151.181C243.472,150.157 244.399,149.341 245.431,148.746Z" style="fill:rgb(121,144,156);"/>
    </g>
    <g transform="matrix(0.048,0,0,0.048,0,0)">
        <path d="M169.357,251.751L242.724,151.181C243.472,150.157 244.399,149.341 245.431,148.746C249.305,146.343 254.444,147.299 257.174,151.042L316.469,232.321L292.567,256.223C290.801,257.99 288.467,258.848 286.149,258.797C283.832,258.848 281.498,257.99 279.731,256.223L261.792,238.283L215.234,284.841C213.473,286.601 211.15,287.46 208.84,287.415C206.531,287.46 204.207,286.601 202.447,284.841L169.357,251.751Z" style="fill:white;"/>
    </g>
</svg>
