<?xml version="1.0" encoding="UTF-8" standalone="no"?>
<!DOCTYPE svg PUBLIC "-//W3C//DTD SVG 1.1//EN" "http://www.w3.org/Graphics/SVG/1.1/DTD/svg11.dtd">
<svg width="100%" height="100%" viewBox="0 0 24 24" version="1.1" xmlns="http://www.w3.org/2000/svg" xmlns:xlink="http://www.w3.org/1999/xlink" xml:space="preserve" xmlns:serif="http://www.serif.com/" style="fill-rule:evenodd;clip-rule:evenodd;stroke-linejoin:round;stroke-miterlimit:2;">
    <g transform="matrix(0.048,0,0,0.048,0,0)">
        <rect x="364.135" y="193.292" width="94.47" height="125.704" style="fill:rgb(251,140,0);"/>
    </g>
    <g transform="matrix(0.048,0,0,0.048,0,0)">
        <path d="M458.605,318.996L458.605,421.083C458.605,434.118 448.023,444.7 434.988,444.7L387.753,444.7C374.718,444.7 364.135,434.118 364.135,421.083L364.135,318.996L458.605,318.996Z" style="fill:rgb(124,179,66);"/>
    </g>
    <g transform="matrix(0.048,0,0,0.048,0,0)">
        <path d="M364.135,193.292L364.135,91.206C364.135,78.171 374.718,67.588 387.753,67.588L434.988,67.588C448.023,67.588 458.605,78.171 458.605,91.206L458.605,193.292L364.135,193.292Z" style="fill:rgb(244,67,54);"/>
    </g>
    <g transform="matrix(0.0495642,0,0,0.0514286,0.483092,-2.65438)">
        <path d="M398.233,106.237C398.233,86.178 381.336,69.892 360.522,69.892L58.833,69.892C38.019,69.892 21.121,86.178 21.121,106.237L21.121,463.656C21.121,483.715 38.019,500 58.833,500L360.522,500C381.336,500 398.233,483.715 398.233,463.656L398.233,106.237Z" style="fill:rgb(66,165,245);"/>
    </g>
    <g transform="matrix(0.048,0,0,0.048,1.10599,-0.258065)">
        <path d="M314.516,106.183C314.516,96.327 306.515,88.326 296.659,88.326L110.407,88.326C100.551,88.326 92.55,96.327 92.55,106.183L92.55,189.516C92.55,199.372 100.551,207.373 110.407,207.373L296.659,207.373C306.515,207.373 314.516,199.372 314.516,189.516L314.516,106.183Z" style="fill:rgb(180,221,255);"/>
    </g>
    <g transform="matrix(0.048,0,0,0.0630212,0.0552995,-1.93405)">
        <rect x="140.937" y="115.207" width="168.971" height="15.233" style="fill:rgb(25,118,210);"/>
    </g>
    <g transform="matrix(0.048,0,0,0.0630212,0.0552995,0.130464)">
        <rect x="140.937" y="115.207" width="168.971" height="15.233" style="fill:rgb(25,118,210);"/>
    </g>
</svg>
