<?xml version="1.0" encoding="UTF-8" standalone="no"?>
<!DOCTYPE svg PUBLIC "-//W3C//DTD SVG 1.1//EN" "http://www.w3.org/Graphics/SVG/1.1/DTD/svg11.dtd">
<svg width="100%" height="100%" viewBox="0 0 24 24" version="1.1" xmlns="http://www.w3.org/2000/svg" xmlns:xlink="http://www.w3.org/1999/xlink" xml:space="preserve" xmlns:serif="http://www.serif.com/" style="fill-rule:evenodd;clip-rule:evenodd;stroke-linejoin:round;stroke-miterlimit:2;">
    <g transform="matrix(0.048,0,0,0.048,1.65899,1.36424e-15)">
        <path d="M313.209,19.585L399.002,105.378L399.002,462.058C399.002,472.19 390.776,480.415 380.645,480.415L50.23,480.415C40.099,480.415 31.874,472.19 31.874,462.058L31.874,37.942C31.874,27.81 40.099,19.585 50.23,19.585L313.209,19.585Z" style="fill:rgb(144,202,249);"/>
    </g>
    <g transform="matrix(0.0726502,0,0,0.0630212,-4.37698,-0.206053)">
        <rect x="140.937" y="115.207" width="168.971" height="15.233" style="fill:rgb(25,118,210);"/>
    </g>
    <g transform="matrix(0.0602387,0,0,0.0630212,-2.62774,1.85846)">
        <rect x="140.937" y="115.207" width="168.971" height="15.233" style="fill:rgb(25,118,210);"/>
    </g>
    <g transform="matrix(0.0726502,0,0,0.0630212,-4.37698,3.92298)">
        <rect x="140.937" y="115.207" width="168.971" height="15.233" style="fill:rgb(25,118,210);"/>
    </g>
    <g transform="matrix(0.0726502,0,0,0.0630212,-4.37698,5.9875)">
        <rect x="140.937" y="115.207" width="168.971" height="15.233" style="fill:rgb(25,118,210);"/>
    </g>
    <g transform="matrix(0.048,0,0,0.048,1.65899,1.36424e-15)">
        <path d="M299.619,31.353L387.002,118.968L307.787,118.968C303.279,118.968 299.619,115.308 299.619,110.8L299.619,31.353Z" style="fill:white;"/>
    </g>
    <g transform="matrix(0.048,0,0,0.048,0,-0.336)">
        <path d="M130.005,430.143C130.005,430.143 170.544,350.909 207.005,357.81C238.327,363.738 239.646,404.082 249.505,425.643C266.26,462.286 303.949,451.944 317.172,438.722C328.852,427.041 341.435,409.477 355.672,409.477C374.754,409.477 383.873,426.643 383.873,426.643C389.6,435.185 408.705,427.496 401.172,413.143C401.172,413.143 386.311,387.31 356.672,387.31C333.02,387.31 318.567,405.586 308.339,416.977C295.793,430.947 275.728,435.449 268.672,413.643C262.839,395.615 255.311,348.199 222.339,337.81C201.778,331.332 178.121,333.027 150.839,360.31C125.225,385.923 109.839,420.477 109.839,420.477C104.952,432.554 125.094,439.206 130.005,430.143Z" style="fill:rgb(25,118,210);"/>
    </g>
</svg>
