<?xml version="1.0" encoding="UTF-8" standalone="no"?>
<!DOCTYPE svg PUBLIC "-//W3C//DTD SVG 1.1//EN" "http://www.w3.org/Graphics/SVG/1.1/DTD/svg11.dtd">
<svg width="100%" height="100%" viewBox="0 0 24 24" version="1.1" xmlns="http://www.w3.org/2000/svg" xmlns:xlink="http://www.w3.org/1999/xlink" xml:space="preserve" xmlns:serif="http://www.serif.com/" style="fill-rule:evenodd;clip-rule:evenodd;stroke-linejoin:round;stroke-miterlimit:2;">
    <g transform="matrix(0.048,0,0,0.048,0.0998341,-0.284291)">
        <path d="M307.393,65.994C307.439,65.994 307.485,65.993 307.531,65.993L329.507,65.993C329.553,65.993 329.599,65.994 329.644,65.994C334.429,65.935 338.834,69.11 340.129,73.941L352.869,121.49C354.401,127.205 351.004,133.088 345.289,134.619C339.574,136.151 297.464,136.151 291.749,134.619C286.034,133.088 282.637,127.205 284.168,121.49L296.909,73.941C298.204,69.11 302.609,65.935 307.393,65.994Z" style="fill:rgb(144,202,249);"/>
    </g>
    <g transform="matrix(0.048,0,0,0.048,0.147834,-0.956291)">
        <path d="M365.766,119.614C375.523,119.614 385.693,125.471 391.724,133.141C411.192,157.901 437.313,191.21 456.221,215.356C462.533,223.416 465.806,230.662 465.806,240.9L465.806,377.803C465.806,394.802 452.006,408.602 435.008,408.602L58.833,408.602C41.834,408.602 28.034,394.802 28.034,377.803L28.034,150.413C28.034,133.415 41.834,119.614 58.833,119.614L365.766,119.614Z" style="fill:white;"/>
    </g>
    <g transform="matrix(0.048,0,0,0.048,-0.668166,-1.38078)">
        <circle cx="137.979" cy="417.446" r="51.25" style="fill:rgb(55,71,79);"/>
    </g>
    <g transform="matrix(0.025522,0,0,0.025522,2.43333,8.00259)">
        <circle cx="137.979" cy="417.446" r="51.25" style="fill:rgb(120,144,156);"/>
    </g>
    <g transform="matrix(0.048,0,0,0.048,11.6198,-1.38078)">
        <circle cx="137.979" cy="417.446" r="51.25" style="fill:rgb(55,71,79);"/>
    </g>
    <g transform="matrix(0.025522,0,0,0.025522,14.7213,8.00259)">
        <circle cx="137.979" cy="417.446" r="51.25" style="fill:rgb(120,144,156);"/>
    </g>
    <g transform="matrix(0.048,0,0,0.048,0.387834,-0.62168)">
        <path d="M411.455,243.029L315.114,243.029C310.423,243.029 306.614,239.22 306.614,234.529L306.614,151.696C306.614,147.004 310.423,143.196 315.114,143.196L364.448,143.196C364.544,143.196 364.64,143.197 364.736,143.2C367.236,143.116 369.75,144.13 371.497,146.179L417.924,200.63C419.359,202.312 420.022,204.394 419.949,206.444C419.953,206.546 419.955,206.648 419.955,206.751L419.955,234.529C419.955,239.22 416.146,243.029 411.455,243.029Z" style="fill:rgb(0,153,229);"/>
    </g>
    <g transform="matrix(2.93915e-18,0.048,-0.048,2.93915e-18,17.357,4.14464)">
        <rect x="105.507" y="150.167" width="36" height="140.323" style="fill:rgb(244,67,54);"/>
    </g>
    <g transform="matrix(-0.048,5.8783e-18,-5.8783e-18,-0.048,12.7095,20.6487)">
        <rect x="105.507" y="150.167" width="36" height="140.323" style="fill:rgb(244,67,54);"/>
    </g>
</svg>
