<?xml version="1.0" encoding="UTF-8" standalone="no"?>
<!DOCTYPE svg PUBLIC "-//W3C//DTD SVG 1.1//EN" "http://www.w3.org/Graphics/SVG/1.1/DTD/svg11.dtd">
<svg width="100%" height="100%" viewBox="0 0 24 24" version="1.1" xmlns="http://www.w3.org/2000/svg" xmlns:xlink="http://www.w3.org/1999/xlink" xml:space="preserve" xmlns:serif="http://www.serif.com/" style="fill-rule:evenodd;clip-rule:evenodd;stroke-linejoin:round;stroke-miterlimit:2;">
    <g transform="matrix(0.048,0,0,0.048,0,0)">
        <path d="M282.066,409.303C334.069,396.194 373.746,351.943 380.071,297.565L353.939,297.565L353.929,297.565C350.481,297.566 347.013,296.413 344.151,294.047C341.895,292.183 340.308,289.807 339.42,287.228L339.4,287.17C338.876,285.636 338.587,283.992 338.579,282.282L338.578,282.196C338.578,278.749 339.731,275.283 342.096,272.421L398.447,204.238C403.419,198.223 412.023,196.965 418.456,201.013C420.152,201.926 421.703,203.175 423.005,204.75L478.933,272.421C481.298,275.283 482.451,278.749 482.451,282.196L482.451,282.282C482.442,283.991 482.154,285.635 481.629,287.17L481.609,287.228C480.721,289.807 479.134,292.183 476.878,294.047C474.016,296.413 470.548,297.566 467.1,297.565L467.09,297.565L444.495,297.565C436.719,397.913 352.88,477.072 250.614,477.395L250,477.396C147.468,477.396 63.305,398.126 55.505,297.565L32.91,297.565L32.9,297.565C29.452,297.566 25.984,296.413 23.122,294.047C20.866,292.183 19.279,289.807 18.391,287.228L18.371,287.17C17.846,285.635 17.558,283.991 17.549,282.282L17.549,282.196C17.549,278.749 18.702,275.283 21.067,272.421L76.995,204.75C78.297,203.175 79.848,201.926 81.544,201.013C87.977,196.965 96.581,198.223 101.553,204.238L157.904,272.421C160.269,275.283 161.422,278.749 161.422,282.196L161.421,282.282C161.413,283.992 161.124,285.636 160.6,287.17L160.58,287.228C159.692,289.807 158.105,292.183 155.849,294.047C152.987,296.413 149.519,297.566 146.071,297.565L146.061,297.565L119.929,297.565C126.248,351.937 165.927,396.193 217.934,409.303L217.934,140.883L282.066,140.883L282.066,409.303Z" style="fill:rgb(159,168,218);"/>
    </g>
    <g transform="matrix(0.048,0,0,0.048,0,0.444977)">
        <path d="M250,13.333C289.634,13.333 321.813,45.511 321.813,85.146C321.813,124.78 289.634,156.959 250,156.959C210.366,156.959 178.187,124.78 178.187,85.146C178.187,45.511 210.366,13.333 250,13.333ZM250,53.08C267.698,53.08 282.066,67.448 282.066,85.146C282.066,102.844 267.698,117.212 250,117.212C232.302,117.212 217.934,102.844 217.934,85.146C217.934,67.448 232.302,53.08 250,53.08Z" style="fill:rgb(92,107,192);"/>
    </g>
</svg>
