<?xml version="1.0" encoding="UTF-8" standalone="no"?>
<!DOCTYPE svg PUBLIC "-//W3C//DTD SVG 1.1//EN" "http://www.w3.org/Graphics/SVG/1.1/DTD/svg11.dtd">
<svg width="100%" height="100%" viewBox="0 0 24 24" version="1.1" xmlns="http://www.w3.org/2000/svg" xmlns:xlink="http://www.w3.org/1999/xlink" xml:space="preserve" xmlns:serif="http://www.serif.com/" style="fill-rule:evenodd;clip-rule:evenodd;stroke-linejoin:round;stroke-miterlimit:2;">
    <g transform="matrix(0.048,0,0,0.048,0,0)">
        <path d="M84.816,137.582C76.334,152.125 49.326,139.646 58.903,123.123C82.015,83.245 117.911,50.368 163.734,31.384C274.66,-14.571 402.028,38.177 447.984,149.103C484.849,238.088 458.197,337.654 388.954,397.278L410.725,398.958C418.889,399.589 425.006,406.729 424.376,414.893C423.746,423.058 416.606,429.175 408.441,428.545L351.932,424.184C347.857,423.869 344.291,421.932 341.821,419.056L341.797,419.028C339.333,416.145 337.966,412.325 338.281,408.249C338.281,408.249 342.642,351.74 342.642,351.74C343.272,343.575 350.412,337.458 358.576,338.089C366.741,338.719 372.858,345.859 372.228,354.023L370.7,373.822C429.675,322.217 452.207,236.827 420.569,160.461C380.882,64.665 270.887,19.112 175.091,58.799C135.688,75.123 104.785,103.343 84.816,137.582Z" style="fill:rgb(55,71,79);"/>
    </g>
    <g transform="matrix(0.048,0,0,0.048,-2.76544,0.900354)">
        <g transform="matrix(166.667,0,0,166.667,202.481,272.985)">
            <path d="M0.223,-0.115L0.478,-0.115C0.503,-0.115 0.523,-0.11 0.536,-0.1C0.549,-0.089 0.556,-0.075 0.556,-0.057C0.556,-0.041 0.551,-0.028 0.54,-0.017C0.53,-0.006 0.514,0 0.492,0L0.133,0C0.108,0 0.089,-0.007 0.076,-0.02C0.062,-0.034 0.055,-0.05 0.055,-0.068C0.055,-0.08 0.06,-0.095 0.068,-0.115C0.077,-0.134 0.087,-0.149 0.097,-0.16C0.14,-0.205 0.18,-0.244 0.214,-0.276C0.249,-0.308 0.274,-0.329 0.289,-0.339C0.316,-0.358 0.338,-0.377 0.356,-0.396C0.373,-0.415 0.387,-0.434 0.396,-0.454C0.406,-0.474 0.41,-0.494 0.41,-0.513C0.41,-0.534 0.405,-0.553 0.395,-0.569C0.385,-0.586 0.372,-0.598 0.355,-0.607C0.338,-0.617 0.319,-0.621 0.299,-0.621C0.256,-0.621 0.223,-0.602 0.198,-0.565C0.195,-0.56 0.19,-0.547 0.182,-0.525C0.174,-0.503 0.166,-0.486 0.156,-0.475C0.146,-0.463 0.132,-0.457 0.114,-0.457C0.097,-0.457 0.084,-0.462 0.073,-0.473C0.063,-0.484 0.057,-0.499 0.057,-0.517C0.057,-0.54 0.062,-0.563 0.072,-0.587C0.082,-0.612 0.097,-0.634 0.117,-0.654C0.137,-0.674 0.163,-0.69 0.194,-0.702C0.224,-0.714 0.26,-0.72 0.302,-0.72C0.352,-0.72 0.394,-0.712 0.429,-0.697C0.452,-0.686 0.472,-0.672 0.489,-0.654C0.507,-0.636 0.52,-0.615 0.53,-0.591C0.539,-0.567 0.544,-0.542 0.544,-0.516C0.544,-0.476 0.534,-0.439 0.514,-0.406C0.494,-0.373 0.473,-0.347 0.453,-0.328C0.432,-0.31 0.397,-0.28 0.348,-0.24C0.299,-0.2 0.265,-0.169 0.247,-0.147C0.239,-0.138 0.231,-0.128 0.223,-0.115Z" style="fill:rgb(180,221,255);fill-rule:nonzero;"/>
        </g>
        <g transform="matrix(166.667,0,0,166.667,301.521,272.985)">
            <path d="M0.35,-0.062L0.35,-0.153L0.105,-0.153C0.074,-0.153 0.051,-0.16 0.035,-0.174C0.02,-0.188 0.012,-0.207 0.012,-0.231C0.012,-0.237 0.013,-0.243 0.016,-0.25C0.018,-0.256 0.021,-0.263 0.026,-0.27C0.03,-0.277 0.035,-0.284 0.04,-0.29C0.045,-0.297 0.051,-0.305 0.058,-0.314L0.317,-0.66C0.334,-0.683 0.348,-0.699 0.359,-0.71C0.37,-0.72 0.383,-0.725 0.398,-0.725C0.447,-0.725 0.472,-0.697 0.472,-0.64L0.472,-0.262L0.493,-0.262C0.518,-0.262 0.538,-0.259 0.553,-0.252C0.569,-0.245 0.576,-0.23 0.576,-0.207C0.576,-0.188 0.57,-0.174 0.558,-0.166C0.545,-0.157 0.527,-0.153 0.502,-0.153L0.472,-0.153L0.472,-0.062C0.472,-0.037 0.467,-0.018 0.456,-0.006C0.444,0.006 0.43,0.012 0.411,0.012C0.393,0.012 0.378,0.006 0.367,-0.007C0.356,-0.019 0.35,-0.038 0.35,-0.062ZM0.14,-0.262L0.35,-0.262L0.35,-0.546L0.14,-0.262Z" style="fill:rgb(180,221,255);fill-rule:nonzero;"/>
        </g>
    </g>
    <g transform="matrix(0.112212,-0.112212,0.112212,0.112212,-20.6017,10.1381)">
        <path d="M74.723,150.691C74.678,149.64 74.656,148.613 74.656,147.611C74.656,127.252 78.663,113.34 87.384,103.488C96.771,92.883 106.923,93.753 112.132,94.861C120.161,96.568 122.503,103.641 118.638,110.135C114.772,116.628 112.882,120.333 110.153,124.277C103.745,133.535 100.536,131.006 98.362,130.552C97.042,130.277 94.455,129.509 94.455,129.509C92.056,136.811 90.97,143.861 91.038,150.691C90.97,157.521 92.056,164.571 94.455,171.872C94.455,171.872 97.042,171.104 98.362,170.829C100.536,170.375 103.745,167.847 110.153,177.105C112.882,181.048 114.772,184.753 118.638,191.247C122.503,197.74 120.161,204.813 112.132,206.52C106.923,207.628 96.771,208.498 87.384,197.894C78.663,188.041 74.656,174.129 74.656,153.77C74.656,152.769 74.678,151.741 74.723,150.691Z" style="fill:rgb(66,165,245);"/>
    </g>
</svg>
