<?xml version="1.0" encoding="UTF-8" standalone="no"?>
<!DOCTYPE svg PUBLIC "-//W3C//DTD SVG 1.1//EN" "http://www.w3.org/Graphics/SVG/1.1/DTD/svg11.dtd">
<svg width="100%" height="100%" viewBox="0 0 24 24" version="1.1" xmlns="http://www.w3.org/2000/svg" xmlns:xlink="http://www.w3.org/1999/xlink" xml:space="preserve" xmlns:serif="http://www.serif.com/" style="fill-rule:evenodd;clip-rule:evenodd;stroke-linejoin:round;stroke-miterlimit:2;">
    <g transform="matrix(0.0411536,0,0,0.0411536,0.706284,1.56146)">
        <circle cx="270.929" cy="253.648" r="163.018" style="fill:rgb(66,165,245);"/>
    </g>
    <g transform="matrix(0.048,0,0,0.048,0,0)">
        <path d="M246.648,467.55C126.736,467.355 29.45,369.949 29.45,250C29.45,129.931 126.931,32.45 247,32.45C343.319,32.45 425.103,95.182 453.685,181.973L463.569,162.502C467.276,155.201 476.214,152.282 483.516,155.989C490.817,159.696 493.736,168.634 490.029,175.936L464.371,226.473C462.521,230.118 459.367,232.67 455.764,233.852L455.729,233.863C452.123,235.036 448.07,234.836 444.425,232.986C444.425,232.986 393.888,207.329 393.888,207.329C386.586,203.622 383.668,194.684 387.375,187.382C391.082,180.081 400.02,177.162 407.321,180.869L425.028,189.859C399.924,115.623 329.66,62.124 247,62.124C143.308,62.124 59.124,146.308 59.124,250C59.124,353.692 143.308,437.876 247,437.876C255.171,437.876 261.805,444.574 261.805,452.745C261.805,460.916 255.171,467.55 247,467.55L246.648,467.55Z" style="fill:rgb(55,71,79);"/>
    </g>
    <g transform="matrix(0.048,0,0,0.048,-2.76544,1.74828)">
        <g transform="matrix(166.667,0,0,166.667,202.481,272.985)">
            <path d="M0.223,-0.115L0.478,-0.115C0.503,-0.115 0.523,-0.11 0.536,-0.1C0.549,-0.089 0.556,-0.075 0.556,-0.057C0.556,-0.041 0.551,-0.028 0.54,-0.017C0.53,-0.006 0.514,0 0.492,0L0.133,0C0.108,0 0.089,-0.007 0.076,-0.02C0.062,-0.034 0.055,-0.05 0.055,-0.068C0.055,-0.08 0.06,-0.095 0.068,-0.115C0.077,-0.134 0.087,-0.149 0.097,-0.16C0.14,-0.205 0.18,-0.244 0.214,-0.276C0.249,-0.308 0.274,-0.329 0.289,-0.339C0.316,-0.358 0.338,-0.377 0.356,-0.396C0.373,-0.415 0.387,-0.434 0.396,-0.454C0.406,-0.474 0.41,-0.494 0.41,-0.513C0.41,-0.534 0.405,-0.553 0.395,-0.569C0.385,-0.586 0.372,-0.598 0.355,-0.607C0.338,-0.617 0.319,-0.621 0.299,-0.621C0.256,-0.621 0.223,-0.602 0.198,-0.565C0.195,-0.56 0.19,-0.547 0.182,-0.525C0.174,-0.503 0.166,-0.486 0.156,-0.475C0.146,-0.463 0.132,-0.457 0.114,-0.457C0.097,-0.457 0.084,-0.462 0.073,-0.473C0.063,-0.484 0.057,-0.499 0.057,-0.517C0.057,-0.54 0.062,-0.563 0.072,-0.587C0.082,-0.612 0.097,-0.634 0.117,-0.654C0.137,-0.674 0.163,-0.69 0.194,-0.702C0.224,-0.714 0.26,-0.72 0.302,-0.72C0.352,-0.72 0.394,-0.712 0.429,-0.697C0.452,-0.686 0.472,-0.672 0.489,-0.654C0.507,-0.636 0.52,-0.615 0.53,-0.591C0.539,-0.567 0.544,-0.542 0.544,-0.516C0.544,-0.476 0.534,-0.439 0.514,-0.406C0.494,-0.373 0.473,-0.347 0.453,-0.328C0.432,-0.31 0.397,-0.28 0.348,-0.24C0.299,-0.2 0.265,-0.169 0.247,-0.147C0.239,-0.138 0.231,-0.128 0.223,-0.115Z" style="fill:rgb(180,221,255);fill-rule:nonzero;"/>
        </g>
        <g transform="matrix(166.667,0,0,166.667,301.521,272.985)">
            <path d="M0.35,-0.062L0.35,-0.153L0.105,-0.153C0.074,-0.153 0.051,-0.16 0.035,-0.174C0.02,-0.188 0.012,-0.207 0.012,-0.231C0.012,-0.237 0.013,-0.243 0.016,-0.25C0.018,-0.256 0.021,-0.263 0.026,-0.27C0.03,-0.277 0.035,-0.284 0.04,-0.29C0.045,-0.297 0.051,-0.305 0.058,-0.314L0.317,-0.66C0.334,-0.683 0.348,-0.699 0.359,-0.71C0.37,-0.72 0.383,-0.725 0.398,-0.725C0.447,-0.725 0.472,-0.697 0.472,-0.64L0.472,-0.262L0.493,-0.262C0.518,-0.262 0.538,-0.259 0.553,-0.252C0.569,-0.245 0.576,-0.23 0.576,-0.207C0.576,-0.188 0.57,-0.174 0.558,-0.166C0.545,-0.157 0.527,-0.153 0.502,-0.153L0.472,-0.153L0.472,-0.062C0.472,-0.037 0.467,-0.018 0.456,-0.006C0.444,0.006 0.43,0.012 0.411,0.012C0.393,0.012 0.378,0.006 0.367,-0.007C0.356,-0.019 0.35,-0.038 0.35,-0.062ZM0.14,-0.262L0.35,-0.262L0.35,-0.546L0.14,-0.262Z" style="fill:rgb(180,221,255);fill-rule:nonzero;"/>
        </g>
    </g>
</svg>
