<?xml version="1.0" encoding="UTF-8" standalone="no"?>
<!DOCTYPE svg PUBLIC "-//W3C//DTD SVG 1.1//EN" "http://www.w3.org/Graphics/SVG/1.1/DTD/svg11.dtd">
<svg width="100%" height="100%" viewBox="0 0 24 24" version="1.1" xmlns="http://www.w3.org/2000/svg" xmlns:xlink="http://www.w3.org/1999/xlink" xml:space="preserve" xmlns:serif="http://www.serif.com/" style="fill-rule:evenodd;clip-rule:evenodd;stroke-linejoin:round;stroke-miterlimit:2;">
    <g transform="matrix(0.0415344,0.0415344,-0.0387637,0.0387637,11.8992,-7.43938)">
        <path d="M315.341,116.192L315.341,388.858C315.341,388.858 318.778,444.375 250,444.375C181.222,444.375 178.674,388.858 178.674,388.858L178.674,70.192C178.674,70.192 175.865,40.591 221.341,39.525C266.817,38.459 264.007,68.192 264.007,68.192L264.007,327.283C264.007,327.283 262.916,341.256 250,341.828C237.084,342.4 233.889,328.617 233.889,328.617L233.889,122.192C233.889,102.418 206.674,102.418 206.674,122.192L206.674,334.192C206.674,334.192 209.333,372.756 250,372.756C290.667,372.756 290.674,334.192 290.674,334.192L290.674,70.192C290.674,70.192 292.952,10.702 222.007,8.314C151.063,5.927 152.007,65.525 152.007,65.525L152.007,385.525C152.007,385.525 148.717,475.452 250,476.858C351.283,478.265 344.007,388.192 344.007,388.192L345.341,116.192C345.341,95.302 315.341,97.663 315.341,116.192Z" style="fill:rgb(244,67,54);"/>
    </g>
</svg>
