<?xml version="1.0" encoding="UTF-8" standalone="no"?>
<!DOCTYPE svg PUBLIC "-//W3C//DTD SVG 1.1//EN" "http://www.w3.org/Graphics/SVG/1.1/DTD/svg11.dtd">
<svg width="100%" height="100%" viewBox="0 0 24 24" version="1.1" xmlns="http://www.w3.org/2000/svg" xmlns:xlink="http://www.w3.org/1999/xlink" xml:space="preserve" xmlns:serif="http://www.serif.com/" style="fill-rule:evenodd;clip-rule:evenodd;stroke-linejoin:round;stroke-miterlimit:2;">
    <g transform="matrix(0.053342,0.0249466,-0.0212251,0.0453845,2.59658,-5.00544)">
        <path d="M240.783,41.318C240.783,29.111 232.352,19.201 221.966,19.201C211.581,19.201 203.149,29.111 203.149,41.318L203.149,464.059C203.149,476.265 211.581,486.175 221.966,486.175C232.352,486.175 240.783,476.265 240.783,464.059L240.783,41.318Z" style="fill:rgb(221,115,60);"/>
    </g>
    <g transform="matrix(0.04348,0.0203344,-0.0203344,0.04348,5.68442,-3.51677)">
        <path d="M151.473,77.75C151.473,77.628 151.475,77.506 151.479,77.385C151.206,68.886 155.083,62.944 163.587,62.944C234.892,62.944 339.682,19.201 339.682,19.201C339.682,19.201 379.807,46.05 380.12,119.582L380.122,120.45C380.122,194.638 339.682,221.698 339.682,221.698C339.682,221.698 234.892,177.955 163.587,177.955C155.083,177.955 151.206,172.014 151.479,163.514C151.475,163.393 151.473,163.271 151.473,163.149L151.473,77.75Z" style="fill:rgb(55,71,79);"/>
    </g>
    <g transform="matrix(0.04348,0.0203344,-0.0203344,0.04348,5.68442,-3.51677)">
        <path d="M318.69,27.34C331.717,22.526 339.682,19.201 339.682,19.201C339.682,19.201 380.122,46.261 380.122,120.45C380.122,194.638 339.682,221.698 339.682,221.698C339.682,221.698 331.717,218.373 318.69,213.559C330.605,200.783 350.122,171.989 350.122,120.45C350.122,68.911 330.605,40.117 318.69,27.34Z" style="fill:rgb(170,170,170);"/>
    </g>
</svg>
