<?xml version="1.0" encoding="UTF-8" standalone="no"?>
<!DOCTYPE svg PUBLIC "-//W3C//DTD SVG 1.1//EN" "http://www.w3.org/Graphics/SVG/1.1/DTD/svg11.dtd">
<svg width="100%" height="100%" viewBox="0 0 24 24" version="1.1" xmlns="http://www.w3.org/2000/svg" xmlns:xlink="http://www.w3.org/1999/xlink" xml:space="preserve" xmlns:serif="http://www.serif.com/" style="fill-rule:evenodd;clip-rule:evenodd;stroke-linejoin:round;stroke-miterlimit:2;">
    <g transform="matrix(0.048,0,0,0.048,0.256398,-1.664)">
        <path d="M470.619,419.219C470.619,427.774 463.674,434.719 455.119,434.719L159.119,434.719C159.06,434.719 159.001,434.719 158.942,434.718C154.501,434.769 150.071,432.924 146.966,429.286L22.407,283.384C19.809,280.342 18.595,276.581 18.704,272.871C18.595,269.161 19.809,265.4 22.407,262.358L146.966,116.456C150.071,112.819 154.501,110.973 158.942,111.024C159.001,111.023 159.06,111.023 159.119,111.023L455.119,111.023C460.414,111.023 465.093,113.684 467.889,117.741C469.611,120.238 470.619,123.264 470.619,126.523L470.619,419.219Z" style="fill:rgb(69,90,100);"/>
    </g>
    <g transform="matrix(0.048,0,0,0.048,0,0)">
        <path d="M292.225,214.634L344.807,162.052C351.311,155.548 361.873,155.548 368.377,162.052C374.882,168.556 374.882,179.118 368.377,185.622L315.795,238.205L368.377,290.787C374.882,297.291 374.882,307.853 368.377,314.357C361.873,320.862 351.311,320.862 344.807,314.357L292.225,261.775L239.642,314.357C233.138,320.862 222.576,320.862 216.072,314.357C209.568,307.853 209.568,297.291 216.072,290.787L268.654,238.205L216.072,185.622C209.568,179.118 209.568,168.556 216.072,162.052C222.576,155.548 233.138,155.548 239.642,162.052L292.225,214.634Z" style="fill:rgb(120,144,156);"/>
    </g>
</svg>
