<?xml version="1.0" encoding="UTF-8" standalone="no"?>
<!DOCTYPE svg PUBLIC "-//W3C//DTD SVG 1.1//EN" "http://www.w3.org/Graphics/SVG/1.1/DTD/svg11.dtd">
<svg width="100%" height="100%" viewBox="0 0 24 24" version="1.1" xmlns="http://www.w3.org/2000/svg" xmlns:xlink="http://www.w3.org/1999/xlink" xml:space="preserve" xmlns:serif="http://www.serif.com/" style="fill-rule:evenodd;clip-rule:evenodd;stroke-linejoin:round;stroke-miterlimit:2;">
    <g transform="matrix(0.048,0,0,0.048,0,-0.530171)">
        <path d="M249.844,485.865C223.058,485.529 133.737,401.515 98.538,343.072C63.268,284.513 52.188,198.32 51.85,156.874C104.751,156.874 147.705,113.92 147.705,61.012C147.705,57.832 147.55,54.688 147.246,51.585C147.246,51.585 215.749,36.224 250,36.224C284.251,36.224 352.754,51.585 352.754,51.585C352.45,54.688 352.295,57.832 352.295,61.012C352.295,113.92 395.249,156.874 448.15,156.874C447.812,198.32 436.732,284.513 401.462,343.072C366.192,401.632 276.584,485.866 250,485.866L249.844,485.865Z" style="fill:rgb(22,102,192);"/>
    </g>
    <g transform="matrix(0.048,0,0,0.048,0,-0.530171)">
        <path d="M250,66.224C275.557,66.224 326.67,77.591 326.67,77.591C326.67,129.303 374.266,180.51 416.512,180.51C416.208,213.895 400.372,287.903 377.471,327.12C344.095,384.275 263.246,455.866 250,455.866C236.754,455.866 155.905,384.275 122.529,327.12C99.628,287.903 83.792,213.895 83.488,180.51C125.734,180.51 173.33,129.303 173.33,77.591C173.33,77.591 224.443,66.224 250,66.224Z" style="fill:rgb(144,202,249);"/>
    </g>
</svg>
