<?xml version="1.0" encoding="UTF-8" standalone="no"?>
<!DOCTYPE svg PUBLIC "-//W3C//DTD SVG 1.1//EN" "http://www.w3.org/Graphics/SVG/1.1/DTD/svg11.dtd">
<svg width="100%" height="100%" viewBox="0 0 24 24" version="1.1" xmlns="http://www.w3.org/2000/svg" xmlns:xlink="http://www.w3.org/1999/xlink" xml:space="preserve" xmlns:serif="http://www.serif.com/" style="fill-rule:evenodd;clip-rule:evenodd;stroke-linejoin:round;stroke-miterlimit:2;">
    <g transform="matrix(0.0415692,0.024,-0.0301358,0.0521967,6.61929,-0.654076)">
        <rect x="27.266" y="92.166" width="19.969" height="140.553" style="fill:rgb(148,43,10);"/>
    </g>
    <g transform="matrix(-0.0415692,0.024,0.0291515,0.0504918,3.51344,-0.257309)">
        <rect x="27.266" y="92.166" width="19.969" height="140.553" style="fill:rgb(148,43,10);"/>
    </g>
    <g transform="matrix(0.0415692,0.024,-0.0301358,0.0521967,20.6978,-0.654076)">
        <rect x="27.266" y="92.166" width="19.969" height="140.553" style="fill:rgb(148,43,10);"/>
    </g>
    <g transform="matrix(-0.0415692,0.024,0.0291515,0.0504918,17.592,-0.257309)">
        <rect x="27.266" y="92.166" width="19.969" height="140.553" style="fill:rgb(148,43,10);"/>
    </g>
    <g transform="matrix(1.95943e-18,0.032,-0.0422989,2.59006e-18,21.8437,-2.87558)">
        <path d="M273.041,51.433C273.041,40.85 261.684,32.258 247.696,32.258C233.707,32.258 222.35,40.85 222.35,51.433L222.35,414.005C222.35,424.588 233.707,433.18 247.696,433.18C261.684,433.18 273.041,424.588 273.041,414.005L273.041,51.433Z" style="fill:rgb(230,82,1);"/>
    </g>
    <g transform="matrix(0.048,0,0,0.048,0.0206452,0.626728)">
        <path d="M190.86,228.111L190.86,242.488C190.86,267.617 170.459,288.018 145.33,288.018L60.507,288.018C35.378,288.018 14.977,267.617 14.977,242.488L14.977,228.111L190.86,228.111Z" style="fill:rgb(251,192,46);"/>
    </g>
    <g transform="matrix(0.048,0,0,0.048,14.0992,0.626728)">
        <path d="M190.86,228.111L190.86,242.488C190.86,267.617 170.459,288.018 145.33,288.018L60.507,288.018C35.378,288.018 14.977,267.617 14.977,242.488L14.977,228.111L190.86,228.111Z" style="fill:rgb(251,192,46);"/>
    </g>
    <g transform="matrix(0.032,0,0,0.048,4.07373,0.626728)">
        <path d="M273.041,49.155C273.041,39.829 261.684,32.258 247.696,32.258C233.707,32.258 222.35,39.829 222.35,49.155L222.35,416.283C222.35,425.608 233.707,433.18 247.696,433.18C261.684,433.18 273.041,425.608 273.041,416.283L273.041,49.155Z" style="fill:rgb(245,125,1);"/>
    </g>
    <g transform="matrix(1.95943e-18,0.032,-0.0264828,1.6216e-18,18.163,13.0876)">
        <path d="M273.041,62.884C273.041,45.981 261.684,32.258 247.696,32.258C233.707,32.258 222.35,45.981 222.35,62.884L222.35,402.554C222.35,419.457 233.707,433.18 247.696,433.18C261.684,433.18 273.041,419.457 273.041,402.554L273.041,62.884Z" style="fill:rgb(230,82,1);"/>
    </g>
</svg>
