<?xml version="1.0" encoding="UTF-8" standalone="no"?>
<!DOCTYPE svg PUBLIC "-//W3C//DTD SVG 1.1//EN" "http://www.w3.org/Graphics/SVG/1.1/DTD/svg11.dtd">
<svg width="100%" height="100%" viewBox="0 0 24 24" version="1.1" xmlns="http://www.w3.org/2000/svg" xmlns:xlink="http://www.w3.org/1999/xlink" xml:space="preserve" xmlns:serif="http://www.serif.com/" style="fill-rule:evenodd;clip-rule:evenodd;stroke-linejoin:round;stroke-miterlimit:2;">
    <g transform="matrix(0.0506896,0,0,0.0506896,0.925363,-0.297212)">
        <rect x="81.029" y="162.826" width="56.836" height="227.343" style="fill:rgb(176,190,197);"/>
    </g>
    <g transform="matrix(0.0506896,0,0,0.0506896,11.979,-0.297212)">
        <rect x="81.029" y="162.826" width="56.836" height="227.343" style="fill:rgb(176,190,197);"/>
    </g>
    <g transform="matrix(0.0506896,0,0,0.0506896,6.45217,-0.297212)">
        <rect x="81.029" y="162.826" width="56.836" height="227.343" style="fill:rgb(176,190,197);"/>
    </g>
    <g transform="matrix(0.0506896,0,0,0.0506896,-0.0884296,-0.297212)">
        <path d="M395.929,416.475C395.929,420.82 392.402,424.347 388.057,424.347L88.902,424.347C84.557,424.347 81.029,420.82 81.029,416.475L81.029,384.985C81.029,380.64 84.557,377.112 88.902,377.112L388.057,377.112C392.402,377.112 395.929,380.64 395.929,384.985L395.929,416.475Z" style="fill:rgb(97,126,139);"/>
    </g>
    <g transform="matrix(0.0506896,0,0,0.0506896,-0.0884296,-0.297212)">
        <path d="M428.955,416.475C428.955,412.13 425.428,408.602 421.083,408.602L55.876,408.602C51.531,408.602 48.003,412.13 48.003,416.475L48.003,432.22C48.003,436.565 51.531,440.092 55.876,440.092L421.083,440.092C425.428,440.092 428.955,436.565 428.955,432.22L428.955,416.475Z" style="fill:rgb(176,190,197);"/>
    </g>
    <g transform="matrix(0.0506896,0,0,0.0506896,-0.0884296,-0.297212)">
        <path d="M368.593,180.609L108.366,180.609C101.476,185.905 82.288,160.936 89.178,155.641L228.779,48.362C233.007,45.113 238.367,44.345 243.1,45.83C244.941,46.36 246.716,47.238 248.327,48.476L387.78,155.641C394.671,160.936 375.483,185.905 368.593,180.609Z" style="fill:rgb(176,190,197);"/>
    </g>
    <g transform="matrix(0.0419007,0,0,0.0506896,2.00755,-13.1838)">
        <path d="M428.955,416.475C428.955,412.13 424.688,408.602 419.432,408.602L57.527,408.602C52.271,408.602 48.003,412.13 48.003,416.475L48.003,432.22C48.003,436.565 52.271,440.092 57.527,440.092L419.432,440.092C424.688,440.092 428.955,436.565 428.955,432.22L428.955,416.475Z" style="fill:rgb(97,126,139);"/>
    </g>
</svg>
