<?xml version="1.0" encoding="UTF-8" standalone="no"?>
<!DOCTYPE svg PUBLIC "-//W3C//DTD SVG 1.1//EN" "http://www.w3.org/Graphics/SVG/1.1/DTD/svg11.dtd">
<svg width="100%" height="100%" viewBox="0 0 24 24" version="1.1" xmlns="http://www.w3.org/2000/svg" xmlns:xlink="http://www.w3.org/1999/xlink" xml:space="preserve" xmlns:serif="http://www.serif.com/" style="fill-rule:evenodd;clip-rule:evenodd;stroke-linejoin:round;stroke-miterlimit:2;">
    <g transform="matrix(0.048,0,0,0.048,0.357972,0.00774197)">
        <circle cx="242.542" cy="249.839" r="226.029" style="fill:rgb(245,125,1);"/>
    </g>
    <g transform="matrix(0.048,0,0,0.048,0,0)">
        <path d="M256.871,24.074C266.84,24.372 276.647,25.316 286.267,26.871C303.88,54.688 337.033,112.875 353.994,180.312C365.465,179.998 376.216,179.993 386.215,180.213C382.106,141.64 388.153,109.106 401.523,82.337C408.476,88.625 415.037,95.34 421.169,102.446C411.685,125.188 407.805,151.796 411.466,181.302C437.872,183.019 456.872,186.148 467.483,188.273C469.79,196.405 471.652,204.722 473.041,213.193C461.981,211.228 441.766,208.1 416.229,206.193C426.245,244.228 447.15,272.541 472.248,291.354C470.624,300.124 468.493,308.716 465.884,317.106C430.478,293.432 401.646,254.948 390.264,204.819C380.383,204.513 370.009,204.445 359.301,204.714C359.473,205.654 359.64,206.591 359.804,207.529C374.037,289.185 363.779,400.697 358.192,448.464C349.922,452.986 341.34,457.005 332.488,460.481C337.459,417.313 349.459,293.769 335.056,211.134C334.755,209.408 334.439,207.683 334.113,205.976C330.551,206.246 326.967,206.559 323.368,206.918C316.403,207.612 309.097,208.637 301.534,209.948C328.133,309.357 281.443,415.604 189.439,467.81C178.747,464.84 168.373,461.103 158.373,456.658C253.547,414.318 303.602,310.864 277.032,214.936C183.113,236.619 62.996,290.772 30.888,305.661C28.838,297.575 27.224,289.319 26.072,280.92C57.875,265.636 173.706,211.726 268.421,190.31C240.445,124.56 180.033,81.392 111.897,71.107C120.927,64.124 130.498,57.81 140.533,52.238C208.222,69.84 266.219,117.153 293.381,185.375C302.676,183.827 311.637,182.695 320.156,182.055C322.981,181.843 325.771,181.65 328.517,181.475C309.932,111.182 272.331,48.144 256.871,24.074Z" style="fill:rgb(44,84,102);"/>
    </g>
</svg>
