<?xml version="1.0" encoding="UTF-8" standalone="no"?>
<!DOCTYPE svg PUBLIC "-//W3C//DTD SVG 1.1//EN" "http://www.w3.org/Graphics/SVG/1.1/DTD/svg11.dtd">
<svg width="100%" height="100%" viewBox="0 0 24 24" version="1.1" xmlns="http://www.w3.org/2000/svg" xmlns:xlink="http://www.w3.org/1999/xlink" xml:space="preserve" xmlns:serif="http://www.serif.com/" style="fill-rule:evenodd;clip-rule:evenodd;stroke-linejoin:round;stroke-miterlimit:2;">
    <g transform="matrix(0.0512621,0,0,0.0512621,-0.553812,-0.885346)">
        <path d="M115.948,387.106C115.948,380.851 110.869,375.773 104.614,375.773L70.511,375.773C64.256,375.773 59.178,380.851 59.178,387.106L59.178,409.773C59.178,416.028 64.256,421.106 70.511,421.106L104.614,421.106C110.869,421.106 115.948,416.028 115.948,409.773L115.948,387.106Z" style="fill:rgb(146,119,66);"/>
    </g>
    <g transform="matrix(0.0512621,0,0,0.0512621,15.5765,-0.885346)">
        <path d="M115.948,387.106C115.948,380.851 110.869,375.773 104.614,375.773L70.511,375.773C64.256,375.773 59.178,380.851 59.178,387.106L59.178,409.773C59.178,416.028 64.256,421.106 70.511,421.106L104.614,421.106C110.869,421.106 115.948,416.028 115.948,409.773L115.948,387.106Z" style="fill:rgb(146,119,66);"/>
    </g>
    <g transform="matrix(0.0324349,0,0,0.040458,3.49145,-8.0783)">
        <path d="M474.191,298.382C474.191,288.9 464.589,281.202 452.761,281.202L71.892,281.202C60.065,281.202 50.462,288.9 50.462,298.382L50.462,435.824C50.462,445.306 60.065,453.005 71.892,453.005L452.761,453.005C464.589,453.005 474.191,445.306 474.191,435.824L474.191,298.382Z" style="fill:rgb(238,200,129);"/>
    </g>
    <g transform="matrix(0.0512621,0,0,0.0622469,-1.152,-2.53056)">
        <path d="M250,156.493C250,145.057 238.726,135.773 224.84,135.773L157.671,135.773C143.785,135.773 132.511,145.057 132.511,156.493L132.511,171.053C132.511,182.488 143.785,191.773 157.671,191.773L224.84,191.773C238.726,191.773 250,182.488 250,171.053L250,156.493Z" style="fill:rgb(76,109,123);"/>
    </g>
    <g transform="matrix(0.0512621,0,0,0.0622469,5.54366,-2.53056)">
        <path d="M250,156.493C250,145.057 238.726,135.773 224.84,135.773L157.671,135.773C143.785,135.773 132.511,145.057 132.511,156.493L132.511,171.053C132.511,182.488 143.785,191.773 157.671,191.773L224.84,191.773C238.726,191.773 250,182.488 250,171.053L250,156.493Z" style="fill:rgb(76,109,123);"/>
    </g>
    <g transform="matrix(0.0512621,0,0,0.0512621,-0.815529,-0.885346)">
        <path d="M115.948,169.492L384.052,169.492L452.642,296.299L47.358,296.299L115.948,169.492Z" style="fill:rgb(149,118,205);"/>
    </g>
    <g transform="matrix(0.0521942,0,0,0.0372753,-1.69192,2.69391)">
        <path d="M474.191,298.382C474.191,288.9 468.693,281.202 461.921,281.202L62.732,281.202C55.96,281.202 50.462,288.9 50.462,298.382L50.462,435.824C50.462,445.306 55.96,453.005 62.732,453.005L461.921,453.005C468.693,453.005 474.191,445.306 474.191,435.824L474.191,298.382Z" style="fill:rgb(238,200,129);"/>
    </g>
</svg>
