<?xml version="1.0" encoding="UTF-8" standalone="no"?>
<!DOCTYPE svg PUBLIC "-//W3C//DTD SVG 1.1//EN" "http://www.w3.org/Graphics/SVG/1.1/DTD/svg11.dtd">
<svg width="100%" height="100%" viewBox="0 0 24 24" version="1.1" xmlns="http://www.w3.org/2000/svg" xmlns:xlink="http://www.w3.org/1999/xlink" xml:space="preserve" xmlns:serif="http://www.serif.com/" style="fill-rule:evenodd;clip-rule:evenodd;stroke-linejoin:round;stroke-miterlimit:2;">
    <g transform="matrix(0.048,0,0,0.048,1.65899,1.36424e-15)">
        <path d="M313.209,19.585L399.002,105.378L399.002,462.058C399.002,472.19 390.776,480.415 380.645,480.415L50.23,480.415C40.099,480.415 31.874,472.19 31.874,462.058L31.874,37.942C31.874,27.81 40.099,19.585 50.23,19.585L313.209,19.585Z" style="fill:rgb(144,202,249);"/>
    </g>
    <g transform="matrix(2.59363e-18,0.0423572,-0.0630212,3.85893e-18,13.8305,0.0726469)">
        <rect x="140.937" y="115.207" width="168.971" height="15.233" style="fill:rgb(25,118,210);"/>
    </g>
    <g transform="matrix(2.59363e-18,0.0423572,-0.0630212,3.85893e-18,25.6437,0.0726469)">
        <rect x="140.937" y="115.207" width="168.971" height="15.233" style="fill:rgb(25,118,210);"/>
    </g>
    <g transform="matrix(2.59363e-18,0.0423572,-0.0630212,3.85893e-18,21.8677,0.0726469)">
        <rect x="140.937" y="115.207" width="168.971" height="15.233" style="fill:rgb(25,118,210);"/>
    </g>
    <g transform="matrix(0.0755937,0,0,0.0630212,-5.04392,4.97898)">
        <rect x="140.937" y="115.207" width="168.971" height="15.233" style="fill:rgb(25,118,210);"/>
    </g>
    <g transform="matrix(0.0392686,0,0,0.0630212,0.075631,7.37898)">
        <rect x="140.937" y="115.207" width="168.971" height="15.233" style="fill:rgb(25,118,210);"/>
    </g>
    <g transform="matrix(0.0755937,0,0,0.0630212,-5.04392,-1.21816)">
        <rect x="140.937" y="115.207" width="168.971" height="15.233" style="fill:rgb(25,118,210);"/>
    </g>
    <g transform="matrix(0.0755937,0,0,0.0630212,-5.04392,0.847556)">
        <rect x="140.937" y="115.207" width="168.971" height="15.233" style="fill:rgb(25,118,210);"/>
    </g>
    <g transform="matrix(0.0755937,0,0,0.0630212,-5.04392,2.91327)">
        <rect x="140.937" y="115.207" width="168.971" height="15.233" style="fill:rgb(25,118,210);"/>
    </g>
    <g transform="matrix(0.048,0,0,0.048,1.65899,1.36424e-15)">
        <path d="M299.619,31.353L387.002,118.968L307.787,118.968C303.279,118.968 299.619,115.308 299.619,110.8L299.619,31.353Z" style="fill:white;"/>
    </g>
    <g transform="matrix(8.9341,0,0,8.9341,13.4692,21.0579)">
        <path d="M0.327,-0.778L0.327,-0.725C0.362,-0.722 0.392,-0.714 0.417,-0.704C0.442,-0.693 0.463,-0.677 0.482,-0.655C0.497,-0.638 0.508,-0.621 0.516,-0.604C0.524,-0.586 0.528,-0.57 0.528,-0.555C0.528,-0.539 0.522,-0.525 0.51,-0.513C0.498,-0.501 0.484,-0.495 0.467,-0.495C0.435,-0.495 0.414,-0.512 0.405,-0.547C0.394,-0.588 0.368,-0.615 0.327,-0.628L0.327,-0.425C0.368,-0.414 0.4,-0.404 0.424,-0.395C0.448,-0.385 0.469,-0.372 0.488,-0.355C0.508,-0.337 0.524,-0.316 0.534,-0.291C0.545,-0.266 0.551,-0.239 0.551,-0.209C0.551,-0.172 0.542,-0.137 0.525,-0.105C0.507,-0.072 0.482,-0.046 0.448,-0.025C0.414,-0.005 0.374,0.007 0.327,0.011L0.327,0.059C0.327,0.078 0.325,0.092 0.322,0.101C0.318,0.11 0.31,0.114 0.297,0.114C0.285,0.114 0.277,0.111 0.272,0.103C0.267,0.096 0.265,0.085 0.265,0.07L0.265,0.012C0.227,0.008 0.194,-0.001 0.165,-0.015C0.137,-0.028 0.113,-0.045 0.094,-0.066C0.075,-0.086 0.061,-0.107 0.052,-0.129C0.043,-0.151 0.038,-0.173 0.038,-0.194C0.038,-0.209 0.044,-0.224 0.056,-0.236C0.069,-0.249 0.084,-0.255 0.102,-0.255C0.117,-0.255 0.129,-0.251 0.139,-0.245C0.149,-0.238 0.156,-0.228 0.16,-0.216C0.169,-0.189 0.177,-0.169 0.183,-0.155C0.19,-0.14 0.199,-0.127 0.213,-0.116C0.226,-0.104 0.243,-0.095 0.265,-0.089L0.265,-0.316C0.222,-0.328 0.185,-0.341 0.156,-0.356C0.126,-0.371 0.103,-0.392 0.084,-0.419C0.066,-0.447 0.057,-0.482 0.057,-0.525C0.057,-0.581 0.075,-0.627 0.111,-0.663C0.146,-0.698 0.198,-0.719 0.265,-0.725L0.265,-0.777C0.265,-0.804 0.275,-0.818 0.296,-0.818C0.317,-0.818 0.327,-0.805 0.327,-0.778ZM0.265,-0.443L0.265,-0.63C0.238,-0.622 0.216,-0.611 0.201,-0.598C0.186,-0.584 0.178,-0.564 0.178,-0.537C0.178,-0.511 0.185,-0.492 0.2,-0.479C0.214,-0.466 0.236,-0.454 0.265,-0.443ZM0.327,-0.298L0.327,-0.084C0.36,-0.09 0.385,-0.104 0.403,-0.124C0.421,-0.143 0.43,-0.167 0.43,-0.193C0.43,-0.221 0.421,-0.243 0.404,-0.259C0.387,-0.274 0.361,-0.287 0.327,-0.298Z" style="fill:rgb(25,118,210);fill-rule:nonzero;"/>
    </g>
</svg>
