<?xml version="1.0" encoding="UTF-8" standalone="no"?>
<!DOCTYPE svg PUBLIC "-//W3C//DTD SVG 1.1//EN" "http://www.w3.org/Graphics/SVG/1.1/DTD/svg11.dtd">
<svg width="100%" height="100%" viewBox="0 0 24 24" version="1.1" xmlns="http://www.w3.org/2000/svg" xmlns:xlink="http://www.w3.org/1999/xlink" xml:space="preserve" xmlns:serif="http://www.serif.com/" style="fill-rule:evenodd;clip-rule:evenodd;stroke-linejoin:round;stroke-miterlimit:2;">
    <g transform="matrix(0.0543582,0,0,0.0543582,-1.58955,-2.82285)">
        <path d="M112.948,123.575L383.092,121.503C384.15,114.997 390.29,110.575 396.795,111.632C403.301,112.69 407.723,118.83 406.666,125.335L352.515,458.386C351.547,464.343 346.317,468.553 340.449,468.409C340.351,468.412 340.252,468.413 340.153,468.413L155.447,468.413C155.365,468.413 155.285,468.412 155.204,468.41C149.355,468.528 144.154,464.325 143.189,458.386L89.375,127.408C88.317,120.903 92.74,114.763 99.245,113.705C105.751,112.647 111.891,117.07 112.948,123.575Z" style="fill:rgb(121,144,156);"/>
    </g>
    <g transform="matrix(0.0112996,0.0694978,-0.0536537,0.00872353,27.3929,-7.82267)">
        <path d="M341.68,422.573C341.68,415.983 337.549,410.632 332.46,410.632L147.509,410.632C142.421,410.632 138.29,415.983 138.29,422.573C138.29,429.164 142.421,434.515 147.509,434.515L332.46,434.515C337.549,434.515 341.68,429.164 341.68,422.573Z" style="fill:rgb(70,91,101);"/>
    </g>
    <g transform="matrix(-0.0112996,0.0694978,0.0536537,0.00872353,-3.39295,-7.82267)">
        <path d="M341.68,422.573C341.68,415.983 337.549,410.632 332.46,410.632L147.509,410.632C142.421,410.632 138.29,415.983 138.29,422.573C138.29,429.164 142.421,434.515 147.509,434.515L332.46,434.515C337.549,434.515 341.68,429.164 341.68,422.573Z" style="fill:rgb(70,91,101);"/>
    </g>
    <g transform="matrix(9.05246e-18,0.0704104,0.0543582,-6.03497e-18,-10.9703,-4.43967)">
        <path d="M341.68,422.573C341.68,415.983 337.549,410.632 332.46,410.632L147.509,410.632C142.421,410.632 138.29,415.983 138.29,422.573C138.29,429.164 142.421,434.515 147.509,434.515L332.46,434.515C337.549,434.515 341.68,429.164 341.68,422.573Z" style="fill:rgb(70,91,101);"/>
    </g>
    <g transform="matrix(0.0543582,0,0,0.0543582,-1.58955,-2.82285)">
        <path d="M213.771,103.68C213.771,88.935 229.019,76.964 247.8,76.964C266.581,76.964 281.829,88.935 281.829,103.68L418.336,103.68C424.927,103.68 430.277,109.031 430.277,115.622C430.277,122.212 424.927,127.563 418.336,127.563L81.664,127.563C75.073,127.563 69.723,122.212 69.723,115.622C69.723,109.031 75.073,103.68 81.664,103.68L213.771,103.68Z" style="fill:rgb(70,91,101);"/>
    </g>
</svg>
