<?xml version="1.0" encoding="UTF-8" standalone="no"?>
<!DOCTYPE svg PUBLIC "-//W3C//DTD SVG 1.1//EN" "http://www.w3.org/Graphics/SVG/1.1/DTD/svg11.dtd">
<svg width="100%" height="100%" viewBox="0 0 24 24" version="1.1" xmlns="http://www.w3.org/2000/svg" xmlns:xlink="http://www.w3.org/1999/xlink" xml:space="preserve" xmlns:serif="http://www.serif.com/" style="fill-rule:evenodd;clip-rule:evenodd;stroke-linejoin:round;stroke-miterlimit:2;">
    <g transform="matrix(0.048,0,0,0.0535537,0.647149,-0.628965)">
        <rect x="221.495" y="113.251" width="45.455" height="93.22" style="fill:rgb(67,165,245);"/>
    </g>
    <g transform="matrix(0.0530306,0,0,0.048,-1.2964,0)">
        <path d="M434.129,272.072C434.129,259.89 425.177,250 414.151,250L101.257,250C90.231,250 81.279,259.89 81.279,272.072L81.279,448.652C81.279,460.834 90.231,470.724 101.257,470.724L414.151,470.724C425.177,470.724 434.129,460.834 434.129,448.652L434.129,272.072Z" style="fill:rgb(65,26,1);"/>
    </g>
    <g transform="matrix(0.048,0,0,0.048,0,0)">
        <path d="M45.622,262.938C45.618,262.78 45.616,262.622 45.616,262.463L45.616,225.135C45.616,214.835 53.979,206.471 64.28,206.471L451.128,206.471C461.429,206.471 469.792,214.835 469.792,225.135L469.792,262.463C469.792,262.622 469.79,262.78 469.786,262.938C469.79,263.183 469.792,263.429 469.792,263.675C469.792,289.293 448.993,310.092 423.374,310.092C405.298,310.092 389.621,299.737 381.957,284.639C374.293,299.737 358.616,310.092 340.539,310.092C322.463,310.092 306.786,299.737 299.122,284.639C291.458,299.737 275.781,310.092 257.704,310.092C239.628,310.092 223.951,299.737 216.287,284.639C208.622,299.737 192.945,310.092 174.869,310.092C156.793,310.092 141.116,299.737 133.451,284.639C125.787,299.737 110.11,310.092 92.034,310.092C66.415,310.092 45.616,289.293 45.616,263.675C45.616,263.429 45.618,263.183 45.622,262.938Z" style="fill:rgb(225,245,254);"/>
    </g>
    <g transform="matrix(0.048,0,0,0.0872727,2.72848e-15,-13.7372)">
        <rect x="62.789" y="343.606" width="389.831" height="33.898" style="fill:rgb(244,68,55);"/>
    </g>
    <g transform="matrix(0.0413431,0,0,0.0413431,1.56423,0.443625)">
        <path d="M261.364,20.031C261.364,20.031 234.977,66.814 234.977,86.864C234.977,101.428 246.8,113.251 261.364,113.251C275.927,113.251 287.75,101.428 287.75,86.864C287.75,66.814 261.364,20.031 261.364,20.031Z" style="fill:rgb(251,192,46);"/>
    </g>
</svg>
