<?xml version="1.0" encoding="UTF-8" standalone="no"?>
<!DOCTYPE svg PUBLIC "-//W3C//DTD SVG 1.1//EN" "http://www.w3.org/Graphics/SVG/1.1/DTD/svg11.dtd">
<svg width="100%" height="100%" viewBox="0 0 24 24" version="1.1" xmlns="http://www.w3.org/2000/svg" xmlns:xlink="http://www.w3.org/1999/xlink" xml:space="preserve" xmlns:serif="http://www.serif.com/" style="fill-rule:evenodd;clip-rule:evenodd;stroke-linejoin:round;stroke-miterlimit:2;">
    <g transform="matrix(0.048,0,0,0.048,-0.72,-0.0189951)">
        <path d="M229.36,47.074C228.137,40.497 230.068,33.448 235.151,28.365C243.346,20.169 256.654,20.169 264.849,28.365L368.33,131.845C368.897,132.412 369.425,133.004 369.914,133.618C377.082,141.865 376.744,154.388 368.901,162.23L280.308,250.823L368.33,338.845C376.525,347.041 376.525,360.348 368.33,368.544C367.685,369.189 367.008,369.783 366.306,370.326L268.53,468.101C264.893,474.361 258.115,478.573 250.36,478.573C242.403,478.573 235.474,474.139 231.912,467.609C229.295,463.18 228.445,457.994 229.36,453.073L229.36,301.772L162.588,368.544C154.392,376.739 141.085,376.739 132.889,368.544C124.694,360.348 124.694,347.041 132.889,338.845L220.911,250.823L132.889,162.802C124.694,154.606 124.694,141.299 132.889,133.103C141.085,124.908 154.392,124.908 162.588,133.103L229.36,199.875L229.36,47.074ZM271.36,405.875L323.661,353.573L271.36,301.272L271.36,405.875ZM271.36,200.375L324.411,147.323L271.36,94.272L271.36,200.375Z" style="fill:rgb(41,121,255);"/>
    </g>
</svg>
