<?xml version="1.0" encoding="UTF-8" standalone="no"?>
<!DOCTYPE svg PUBLIC "-//W3C//DTD SVG 1.1//EN" "http://www.w3.org/Graphics/SVG/1.1/DTD/svg11.dtd">
<svg width="100%" height="100%" viewBox="0 0 24 24" version="1.1" xmlns="http://www.w3.org/2000/svg" xmlns:xlink="http://www.w3.org/1999/xlink" xml:space="preserve" xmlns:serif="http://www.serif.com/" style="fill-rule:evenodd;clip-rule:evenodd;stroke-linejoin:round;stroke-miterlimit:2;">
    <g transform="matrix(0.048,0,0,0.048,0,0)">
        <path d="M247.048,279.792C246.235,279.929 245.4,280 244.548,280C236.269,280 229.548,273.279 229.548,265L229.548,40.855C229.548,32.576 236.269,25.855 244.548,25.855C244.714,25.855 244.88,25.858 245.046,25.863C249.355,25.722 253.691,27.427 256.772,30.901L455.518,255.051C457.259,257.015 458.391,259.311 458.928,261.705L458.944,261.778L458.948,261.796L458.963,261.867L458.968,261.887L458.982,261.955C459.113,262.592 459.204,263.244 459.252,263.908L459.255,263.942L459.259,264.012L459.261,264.037L459.263,264.069L459.265,264.102L459.267,264.133L459.27,264.192L459.272,264.229L459.275,264.282L459.279,264.372L459.282,264.462L459.285,264.552L459.287,264.642L459.289,264.732L459.291,264.822L459.291,264.912L459.292,265.003L459.291,265.03C459.289,266.487 459.078,267.896 458.686,269.229C457.922,271.845 456.435,274.285 454.246,276.226C451.39,278.758 447.835,280.002 444.293,280L444.292,280L249.548,280C248.696,280 247.861,279.929 247.048,279.792Z" style="fill:rgb(207,216,220);"/>
    </g>
    <g transform="matrix(0.0313043,0,0,0.0553886,4.08289,-1.48213)">
        <path d="M267.548,49.018C267.548,41.844 257.242,36.019 244.548,36.019C231.854,36.019 221.548,41.844 221.548,49.018L221.548,356.507C221.548,363.682 231.854,369.506 244.548,369.506C257.242,369.506 267.548,363.682 267.548,356.507L267.548,49.018Z" style="fill:rgb(191,55,13);"/>
    </g>
    <g transform="matrix(0.048,0,0,0.048,0,1.248)">
        <path d="M115.562,439.484C108.101,439.484 99.994,438.233 96.682,428.346L59.294,318.811C58.916,317.534 58.704,316.185 58.682,314.791L58.684,314.232C58.774,309.907 60.697,306.028 63.705,303.343L63.814,303.247C64.239,302.874 64.687,302.524 65.157,302.198L65.223,302.153C67.621,300.508 70.52,299.541 73.643,299.529L73.704,299.529L426.296,299.529L426.357,299.529C429.48,299.541 432.379,300.508 434.777,302.153L434.843,302.198C435.313,302.524 435.761,302.874 436.186,303.247L436.295,303.343C439.303,306.028 441.226,309.907 441.316,314.232L441.318,314.791C441.296,316.185 441.084,317.534 440.706,318.811L403.318,428.346C400.006,438.233 391.899,439.484 384.438,439.484L115.562,439.484Z" style="fill:rgb(97,126,139);"/>
    </g>
</svg>
