<?xml version="1.0" encoding="UTF-8" standalone="no"?>
<!DOCTYPE svg PUBLIC "-//W3C//DTD SVG 1.1//EN" "http://www.w3.org/Graphics/SVG/1.1/DTD/svg11.dtd">
<svg width="100%" height="100%" viewBox="0 0 24 24" version="1.1" xmlns="http://www.w3.org/2000/svg" xmlns:xlink="http://www.w3.org/1999/xlink" xml:space="preserve" xmlns:serif="http://www.serif.com/" style="fill-rule:evenodd;clip-rule:evenodd;stroke-linejoin:round;stroke-miterlimit:2;">
    <g transform="matrix(0.048,0,0,0.048,0,0)">
        <path d="M406.83,416.869L76.095,416.869L76.095,80.841C76.095,56.662 95.725,37.031 119.905,37.031L406.83,37.031L406.83,416.869Z" style="fill:rgb(255,113,68);"/>
    </g>
    <g transform="matrix(0.048,0,0,0.048,0,0)">
        <path d="M109.729,38.221L109.729,416.869L76.095,416.869L76.095,80.841C76.095,60.165 90.449,42.816 109.729,38.221Z" style="fill:rgb(191,55,13);"/>
    </g>
    <g transform="matrix(0.048,0,0,0.048,0,0)">
        <path d="M406.83,373.059L406.83,460.679L119.905,460.679C95.725,460.679 76.095,441.049 76.095,416.869C76.095,392.69 95.725,373.059 119.905,373.059L406.83,373.059Z" style="fill:rgb(191,55,13);"/>
    </g>
    <g transform="matrix(0.048,0,0,0.048,0,0)">
        <path d="M406.83,393.059L406.83,440.679L119.905,440.679C106.764,440.679 96.095,430.01 96.095,416.869C96.095,403.728 106.764,393.059 119.905,393.059L406.83,393.059Z" style="fill:white;"/>
    </g>
    <g transform="matrix(0.048,0,0,0.048,0,0)">
        <path d="M406.83,403.059L406.83,413.059L136.869,413.059C134.109,413.059 131.869,410.819 131.869,408.059C131.869,405.299 134.109,403.059 136.869,403.059L406.83,403.059Z" style="fill:rgb(97,126,139);"/>
    </g>
    <g transform="matrix(0.048,0,0,0.048,0,0)">
        <path d="M406.83,420.679L406.83,430.679L136.869,430.679C134.109,430.679 131.869,428.439 131.869,425.679C131.869,422.92 134.109,420.679 136.869,420.679L406.83,420.679Z" style="fill:rgb(97,126,139);"/>
    </g>
</svg>
