<?xml version="1.0" encoding="UTF-8" standalone="no"?>
<!DOCTYPE svg PUBLIC "-//W3C//DTD SVG 1.1//EN" "http://www.w3.org/Graphics/SVG/1.1/DTD/svg11.dtd">
<svg width="100%" height="100%" viewBox="0 0 24 24" version="1.1" xmlns="http://www.w3.org/2000/svg" xmlns:xlink="http://www.w3.org/1999/xlink" xml:space="preserve" xmlns:serif="http://www.serif.com/" style="fill-rule:evenodd;clip-rule:evenodd;stroke-linejoin:round;stroke-miterlimit:2;">
    <g transform="matrix(0.0550792,0,0,0.0550792,-0.623238,0.340436)">
        <path d="M158.32,255.663C158.32,252.537 155.783,250 152.658,250L42.257,250C39.132,250 36.595,252.537 36.595,255.663L36.595,300.963C36.595,304.088 39.132,306.626 42.257,306.626L152.658,306.626C155.783,306.626 158.32,304.088 158.32,300.963L158.32,255.663Z" style="fill:rgb(190,95,42);"/>
    </g>
    <g transform="matrix(0.0550792,0,0,0.0550792,3.00444,4.01012)">
        <path d="M158.32,255.663C158.32,252.537 155.783,250 152.658,250L42.257,250C39.132,250 36.595,252.537 36.595,255.663L36.595,300.963C36.595,304.088 39.132,306.626 42.257,306.626L152.658,306.626C155.783,306.626 158.32,304.088 158.32,300.963L158.32,255.663Z" style="fill:rgb(154,81,36);"/>
    </g>
    <g transform="matrix(0.0550792,0,0,0.0550792,10.2598,4.01012)">
        <path d="M158.32,255.663C158.32,252.537 155.783,250 152.658,250L42.257,250C39.132,250 36.595,252.537 36.595,255.663L36.595,300.963C36.595,304.088 39.132,306.626 42.257,306.626L152.658,306.626C155.783,306.626 158.32,304.088 158.32,300.963L158.32,255.663Z" style="fill:rgb(200,81,38);"/>
    </g>
    <g transform="matrix(0.0550792,0,0,0.0550792,6.63211,0.340436)">
        <path d="M158.32,255.663C158.32,252.537 155.783,250 152.658,250L42.257,250C39.132,250 36.595,252.537 36.595,255.663L36.595,300.963C36.595,304.088 39.132,306.626 42.257,306.626L152.658,306.626C155.783,306.626 158.32,304.088 158.32,300.963L158.32,255.663Z" style="fill:rgb(200,81,38);"/>
    </g>
    <g transform="matrix(0.0550792,0,0,0.0550792,13.8875,0.340436)">
        <path d="M158.32,255.663C158.32,252.537 155.783,250 152.658,250L42.257,250C39.132,250 36.595,252.537 36.595,255.663L36.595,300.963C36.595,304.088 39.132,306.626 42.257,306.626L152.658,306.626C155.783,306.626 158.32,304.088 158.32,300.963L158.32,255.663Z" style="fill:rgb(200,109,38);"/>
    </g>
    <g transform="matrix(0.0550792,0,0,0.0550792,-0.623238,-6.99893)">
        <path d="M158.32,255.663C158.32,252.537 155.783,250 152.658,250L42.257,250C39.132,250 36.595,252.537 36.595,255.663L36.595,300.963C36.595,304.088 39.132,306.626 42.257,306.626L152.658,306.626C155.783,306.626 158.32,304.088 158.32,300.963L158.32,255.663Z" style="fill:rgb(200,81,38);"/>
    </g>
    <g transform="matrix(0.0550792,0,0,0.0550792,6.63211,-6.99893)">
        <path d="M158.32,255.663C158.32,252.537 155.783,250 152.658,250L42.257,250C39.132,250 36.595,252.537 36.595,255.663L36.595,300.963C36.595,304.088 39.132,306.626 42.257,306.626L152.658,306.626C155.783,306.626 158.32,304.088 158.32,300.963L158.32,255.663Z" style="fill:rgb(190,95,42);"/>
    </g>
    <g transform="matrix(0.0550792,0,0,0.0550792,13.8875,-6.99893)">
        <path d="M158.32,255.663C158.32,252.537 155.783,250 152.658,250L42.257,250C39.132,250 36.595,252.537 36.595,255.663L36.595,300.963C36.595,304.088 39.132,306.626 42.257,306.626L152.658,306.626C155.783,306.626 158.32,304.088 158.32,300.963L158.32,255.663Z" style="fill:rgb(154,81,36);"/>
    </g>
    <g transform="matrix(0.0550792,0,0,0.0550792,-0.623238,0.340436)">
        <path d="M371.572,373.251C368.446,373.251 365.909,370.714 365.909,367.589L365.909,322.288C365.909,319.163 368.446,316.626 371.572,316.626L416.109,316.626C419.235,316.626 421.772,319.163 421.772,322.288L421.772,367.589C421.772,370.714 419.235,373.251 416.109,373.251L371.572,373.251Z" style="fill:rgb(190,95,42);"/>
    </g>
    <g transform="matrix(0.0550792,0,0,0.0550792,-18.7616,0.340436)">
        <path d="M371.572,373.251C368.446,373.251 365.909,370.714 365.909,367.589L365.909,322.288C365.909,319.163 368.446,316.626 371.572,316.626L416.109,316.626C419.235,316.626 421.772,319.163 421.772,322.288L421.772,367.589C421.772,370.714 419.235,373.251 416.109,373.251L371.572,373.251Z" style="fill:rgb(200,109,38);"/>
    </g>
    <g transform="matrix(0.0550792,0,0,0.0550792,3.00444,-3.32925)">
        <path d="M158.32,255.663C158.32,252.537 155.783,250 152.658,250L42.257,250C39.132,250 36.595,252.537 36.595,255.663L36.595,300.963C36.595,304.088 39.132,306.626 42.257,306.626L152.658,306.626C155.783,306.626 158.32,304.088 158.32,300.963L158.32,255.663Z" style="fill:rgb(200,81,38);"/>
    </g>
    <g transform="matrix(0.0550792,0,0,0.0550792,10.2598,-3.32925)">
        <path d="M158.32,255.663C158.32,252.537 155.783,250 152.658,250L42.257,250C39.132,250 36.595,252.537 36.595,255.663L36.595,300.963C36.595,304.088 39.132,306.626 42.257,306.626L152.658,306.626C155.783,306.626 158.32,304.088 158.32,300.963L158.32,255.663Z" style="fill:rgb(154,81,36);"/>
    </g>
    <g transform="matrix(0.0550792,0,0,0.0550792,-0.623238,-6.99893)">
        <path d="M371.572,373.251C368.446,373.251 365.909,370.714 365.909,367.589L365.909,322.288C365.909,319.163 368.446,316.626 371.572,316.626L416.109,316.626C419.235,316.626 421.772,319.163 421.772,322.288L421.772,367.589C421.772,370.714 419.235,373.251 416.109,373.251L371.572,373.251Z" style="fill:rgb(190,95,42);"/>
    </g>
    <g transform="matrix(0.0550792,0,0,0.0550792,-18.7616,-6.99893)">
        <path d="M371.572,373.251C368.446,373.251 365.909,370.714 365.909,367.589L365.909,322.288C365.909,319.163 368.446,316.626 371.572,316.626L416.109,316.626C419.235,316.626 421.772,319.163 421.772,322.288L421.772,367.589C421.772,370.714 419.235,373.251 416.109,373.251L371.572,373.251Z" style="fill:rgb(200,109,38);"/>
    </g>
    <g transform="matrix(0.0550792,0,0,0.0550792,3.00444,-10.6686)">
        <path d="M158.32,255.663C158.32,252.537 155.783,250 152.658,250L42.257,250C39.132,250 36.595,252.537 36.595,255.663L36.595,300.963C36.595,304.088 39.132,306.626 42.257,306.626L152.658,306.626C155.783,306.626 158.32,304.088 158.32,300.963L158.32,255.663Z" style="fill:rgb(200,109,38);"/>
    </g>
    <g transform="matrix(0.0550792,0,0,0.0550792,-18.7616,-14.3383)">
        <path d="M371.572,373.251C368.446,373.251 365.909,370.714 365.909,367.589L365.909,322.288C365.909,319.163 368.446,316.626 371.572,316.626L416.109,316.626C419.235,316.626 421.772,319.163 421.772,322.288L421.772,367.589C421.772,370.714 419.235,373.251 416.109,373.251L371.572,373.251Z" style="fill:rgb(200,81,38);"/>
    </g>
</svg>
