<?xml version="1.0" encoding="UTF-8" standalone="no"?>
<!DOCTYPE svg PUBLIC "-//W3C//DTD SVG 1.1//EN" "http://www.w3.org/Graphics/SVG/1.1/DTD/svg11.dtd">
<svg width="100%" height="100%" viewBox="0 0 24 24" version="1.1" xmlns="http://www.w3.org/2000/svg" xmlns:xlink="http://www.w3.org/1999/xlink" xml:space="preserve" xmlns:serif="http://www.serif.com/" style="fill-rule:evenodd;clip-rule:evenodd;stroke-linejoin:round;stroke-miterlimit:2;">
    <g transform="matrix(0.048,0,0,0.048,-0.44376,1.11454)">
        <path d="M326.726,73.19C326.726,55.756 312.572,41.602 295.139,41.602L223.351,41.602C205.918,41.602 191.764,55.756 191.764,73.19L191.764,136.364C191.764,153.797 205.918,167.951 223.351,167.951L295.139,167.951C312.572,167.951 326.726,153.797 326.726,136.364L326.726,73.19ZM297.289,77.758C297.289,74.05 294.365,71.039 290.764,71.039L227.726,71.039C224.125,71.039 221.201,74.05 221.201,77.758L221.201,131.795C221.201,135.503 224.125,138.514 227.726,138.514L290.764,138.514C294.365,138.514 297.289,135.503 297.289,131.795L297.289,77.758Z" style="fill:rgb(181,124,79);"/>
    </g>
    <g transform="matrix(0.048,0,0,0.0420892,-0.44376,1.20586)">
        <path d="M478.814,141.063C478.814,121.036 464.556,104.777 446.995,104.777L71.495,104.777C53.934,104.777 39.676,121.036 39.676,141.063L39.676,431.356C39.676,451.383 53.934,467.643 71.495,467.643L446.995,467.643C464.556,467.643 478.814,451.383 478.814,431.356L478.814,141.063Z" style="fill:rgb(219,149,91);"/>
    </g>
    <g transform="matrix(0.048,0,0,0.0263784,-0.44376,5.54745)">
        <rect x="39.676" y="207.242" width="439.137" height="42.758" style="fill:rgb(181,124,79);"/>
    </g>
    <g transform="matrix(0.057,0,0,0.0557037,-7.41536,-1.31787)">
        <path d="M268.49,209.768C268.49,204.547 264.347,200.308 259.245,200.308L240.755,200.308C235.653,200.308 231.51,204.547 231.51,209.768L231.51,253.252C231.51,258.473 235.653,262.712 240.755,262.712L259.245,262.712C264.347,262.712 268.49,258.473 268.49,253.252L268.49,209.768Z" style="fill:rgb(251,192,46);"/>
    </g>
    <g transform="matrix(0.057,0,0,0.0557037,2.91536,-1.31787)">
        <path d="M268.49,209.768C268.49,204.547 264.347,200.308 259.245,200.308L240.755,200.308C235.653,200.308 231.51,204.547 231.51,209.768L231.51,253.252C231.51,258.473 235.653,262.712 240.755,262.712L259.245,262.712C264.347,262.712 268.49,258.473 268.49,253.252L268.49,209.768Z" style="fill:rgb(251,192,46);"/>
    </g>
</svg>
