<?xml version="1.0" encoding="UTF-8" standalone="no"?>
<!DOCTYPE svg PUBLIC "-//W3C//DTD SVG 1.1//EN" "http://www.w3.org/Graphics/SVG/1.1/DTD/svg11.dtd">
<svg width="100%" height="100%" viewBox="0 0 24 24" version="1.1" xmlns="http://www.w3.org/2000/svg" xmlns:xlink="http://www.w3.org/1999/xlink" xml:space="preserve" xmlns:serif="http://www.serif.com/" style="fill-rule:evenodd;clip-rule:evenodd;stroke-linejoin:round;stroke-miterlimit:2;">
    <g transform="matrix(0.0308621,0.0308621,-0.0276909,0.0276909,11.9056,4.06907)">
        <path d="M192.989,233.739C192.989,225.493 186.983,218.798 179.584,218.798L72.342,218.798C64.944,218.798 58.937,225.493 58.937,233.739L58.937,461.177C58.937,469.423 64.944,476.117 72.342,476.117L179.584,476.117C186.983,476.117 192.989,469.423 192.989,461.177L192.989,233.739Z" style="fill:rgb(108,108,108);"/>
    </g>
    <g transform="matrix(0.0269024,0.0269024,-0.0232869,0.0232869,9.31352,7.76228)">
        <path d="M226.117,126.348C226.117,116.994 219.543,109.399 211.446,109.399L36.628,109.399C28.531,109.399 21.957,116.994 21.957,126.348L21.957,261.941C21.957,271.296 28.531,278.891 36.628,278.891L211.446,278.891C219.543,278.891 226.117,271.296 226.117,261.941L226.117,126.348Z" style="fill:rgb(238,60,39);"/>
    </g>
    <g transform="matrix(-0.0308621,-0.0308621,0.0273179,-0.0273179,12.4984,19.3287)">
        <path d="M192.989,233.943C192.989,225.584 186.983,218.798 179.584,218.798L72.342,218.798C64.944,218.798 58.937,225.584 58.937,233.943L58.937,460.973C58.937,469.331 64.944,476.117 72.342,476.117L179.584,476.117C186.983,476.117 192.989,469.331 192.989,460.973L192.989,233.943Z" style="fill:rgb(108,108,108);"/>
    </g>
    <g transform="matrix(-0.0269024,-0.0269024,0.0193221,-0.0193221,15.4426,15.2834)">
        <path d="M226.117,126.348C226.117,116.994 220.662,109.399 213.944,109.399L34.13,109.399C27.412,109.399 21.957,116.994 21.957,126.348L21.957,261.941C21.957,271.296 27.412,278.891 34.13,278.891L213.944,278.891C220.662,278.891 226.117,271.296 226.117,261.941L226.117,126.348Z" style="fill:rgb(150,150,150);"/>
    </g>
    <g transform="matrix(-0.0339411,-0.0339411,0.0339411,-0.0339411,23.4323,24.3089)">
        <path d="M400.811,19.094C399.478,13.099 396.166,8.726 390.444,8.726L307.501,8.726C301.779,8.726 298.588,12.705 297.133,19.094L284.403,77.538L297.133,126.891C297.133,132.613 301.779,137.258 307.501,137.258L390.444,137.258C396.166,137.258 400.811,132.613 400.811,126.891L412.632,77.538L400.811,19.094ZM317.366,72.637L379.669,72.637L379.669,42.534L317.366,42.534L317.366,72.637Z" style="fill:rgb(150,150,150);"/>
    </g>
</svg>
