<?xml version="1.0" encoding="UTF-8" standalone="no"?>
<!DOCTYPE svg PUBLIC "-//W3C//DTD SVG 1.1//EN" "http://www.w3.org/Graphics/SVG/1.1/DTD/svg11.dtd">
<svg width="100%" height="100%" viewBox="0 0 24 24" version="1.1" xmlns="http://www.w3.org/2000/svg" xmlns:xlink="http://www.w3.org/1999/xlink" xml:space="preserve" xmlns:serif="http://www.serif.com/" style="fill-rule:evenodd;clip-rule:evenodd;stroke-linejoin:round;stroke-miterlimit:2;">
    <g transform="matrix(0.048,0,0,0.048,0,0)">
        <path d="M235.723,245L17.059,245L17.059,87.062C17.059,53.546 44.27,26.336 77.785,26.336L235.723,26.336L235.723,245Z" style="fill:rgb(84,110,122);"/>
    </g>
    <g transform="matrix(0.0331404,0,0,0.0417488,2.10168,0.697809)">
        <path d="M141.371,73.694C141.371,65.762 133.259,59.322 123.267,59.322C113.274,59.322 105.162,65.762 105.162,73.694L105.162,210.59C105.162,218.522 113.274,224.961 123.267,224.961C133.259,224.961 141.371,218.522 141.371,210.59L141.371,73.694Z" style="fill:rgb(207,216,220);"/>
    </g>
    <g transform="matrix(2.02927e-18,0.0331404,-0.0417488,2.55638e-18,12.121,2.54696)">
        <path d="M141.371,73.694C141.371,65.762 133.259,59.322 123.267,59.322C113.274,59.322 105.162,65.762 105.162,73.694L105.162,210.59C105.162,218.522 113.274,224.961 123.267,224.961C133.259,224.961 141.371,218.522 141.371,210.59L141.371,73.694Z" style="fill:rgb(207,216,220);"/>
    </g>
    <g transform="matrix(-0.048,0,0,0.048,23.1095,0)">
        <path d="M235.723,245L17.059,245L17.059,87.062C17.059,53.546 44.27,26.336 77.785,26.336L235.723,26.336L235.723,245Z" style="fill:rgb(84,110,122);"/>
    </g>
    <g transform="matrix(-2.02927e-18,0.0331404,0.0417488,2.55638e-18,10.9884,2.54696)">
        <path d="M141.371,73.694C141.371,65.762 133.259,59.322 123.267,59.322C113.274,59.322 105.162,65.762 105.162,73.694L105.162,210.59C105.162,218.522 113.274,224.961 123.267,224.961C133.259,224.961 141.371,218.522 141.371,210.59L141.371,73.694Z" style="fill:rgb(207,216,220);"/>
    </g>
    <g transform="matrix(0.048,0,0,-0.048,0,24)">
        <path d="M235.723,245L17.059,245L17.059,87.062C17.059,53.546 44.27,26.336 77.785,26.336L235.723,26.336L235.723,245Z" style="fill:rgb(84,110,122);"/>
    </g>
    <g transform="matrix(0.0234338,0.0234338,0.0295209,-0.0295209,-0.89797,18.6755)">
        <path d="M141.371,73.694C141.371,65.762 133.259,59.322 123.267,59.322C113.274,59.322 105.162,65.762 105.162,73.694L105.162,210.59C105.162,218.522 113.274,224.961 123.267,224.961C133.259,224.961 141.371,218.522 141.371,210.59L141.371,73.694Z" style="fill:rgb(207,216,220);"/>
    </g>
    <g transform="matrix(0.0234338,-0.0234338,-0.0295209,-0.0295209,7.49433,24.4527)">
        <path d="M141.371,73.694C141.371,65.762 133.259,59.322 123.267,59.322C113.274,59.322 105.162,65.762 105.162,73.694L105.162,210.59C105.162,218.522 113.274,224.961 123.267,224.961C133.259,224.961 141.371,218.522 141.371,210.59L141.371,73.694Z" style="fill:rgb(207,216,220);"/>
    </g>
    <g transform="matrix(-0.048,0,0,-0.048,23.1095,24)">
        <path d="M235.723,245L17.059,245L17.059,87.062C17.059,53.546 44.27,26.336 77.785,26.336L235.723,26.336L235.723,245Z" style="fill:rgb(77,175,81);"/>
    </g>
    <g transform="matrix(-2.02927e-18,-0.0331404,0.0417488,-2.55638e-18,10.9884,19.773)">
        <path d="M141.371,73.694C141.371,65.762 133.259,59.322 123.267,59.322C113.274,59.322 105.162,65.762 105.162,73.694L105.162,210.59C105.162,218.522 113.274,224.961 123.267,224.961C133.259,224.961 141.371,218.522 141.371,210.59L141.371,73.694Z" style="fill:rgb(207,216,220);"/>
    </g>
    <g transform="matrix(-2.02927e-18,-0.0331404,0.0417488,-2.55638e-18,10.9884,23.133)">
        <path d="M141.371,73.694C141.371,65.762 133.259,59.322 123.267,59.322C113.274,59.322 105.162,65.762 105.162,73.694L105.162,210.59C105.162,218.522 113.274,224.961 123.267,224.961C133.259,224.961 141.371,218.522 141.371,210.59L141.371,73.694Z" style="fill:rgb(207,216,220);"/>
    </g>
</svg>
