<?xml version="1.0" encoding="UTF-8" standalone="no"?>
<!DOCTYPE svg PUBLIC "-//W3C//DTD SVG 1.1//EN" "http://www.w3.org/Graphics/SVG/1.1/DTD/svg11.dtd">
<svg width="100%" height="100%" viewBox="0 0 24 24" version="1.1" xmlns="http://www.w3.org/2000/svg" xmlns:xlink="http://www.w3.org/1999/xlink" xml:space="preserve" xmlns:serif="http://www.serif.com/" style="fill-rule:evenodd;clip-rule:evenodd;stroke-linejoin:round;stroke-miterlimit:2;">
    <g transform="matrix(0.0426201,0,0,0.0456012,1.34496,0.599699)">
        <path d="M433.564,42.749C433.564,29.964 422.459,19.585 408.78,19.585L91.22,19.585C77.541,19.585 66.436,29.964 66.436,42.749L66.436,457.251C66.436,470.036 77.541,480.415 91.22,480.415L408.78,480.415C422.459,480.415 433.564,470.036 433.564,457.251L433.564,42.749Z" style="fill:rgb(84,110,122);"/>
    </g>
    <g transform="matrix(0.0456012,0,0,0.0456012,0.81049,0.478494)">
        <path d="M390.986,70.763C390.986,63.173 384.824,57.011 377.234,57.011L113.521,57.011C105.931,57.011 99.769,63.173 99.769,70.763L99.769,134.938C99.769,142.528 105.931,148.69 113.521,148.69L377.234,148.69C384.824,148.69 390.986,142.528 390.986,134.938L390.986,70.763Z" style="fill:rgb(195,223,163);"/>
    </g>
    <g transform="matrix(0.0427623,0,0,0.0427623,0.896058,0.69241)">
        <path d="M166.41,191.159C166.41,182.602 159.462,175.655 150.905,175.655L119.896,175.655C111.339,175.655 104.391,182.602 104.391,191.159L104.391,222.169C104.391,230.726 111.339,237.673 119.896,237.673L150.905,237.673C159.462,237.673 166.41,230.726 166.41,222.169L166.41,191.159Z" style="fill:rgb(207,216,220);"/>
    </g>
    <g transform="matrix(0.0427623,0,0,0.0427623,11.5239,0.69241)">
        <path d="M166.41,191.159C166.41,182.602 159.462,175.655 150.905,175.655L119.896,175.655C111.339,175.655 104.391,182.602 104.391,191.159L104.391,222.169C104.391,230.726 111.339,237.673 119.896,237.673L150.905,237.673C159.462,237.673 166.41,230.726 166.41,222.169L166.41,191.159Z" style="fill:rgb(251,192,46);"/>
    </g>
    <g transform="matrix(0.0427623,0,0,0.0427623,7.98126,0.69241)">
        <path d="M166.41,191.159C166.41,182.602 159.462,175.655 150.905,175.655L119.896,175.655C111.339,175.655 104.391,182.602 104.391,191.159L104.391,222.169C104.391,230.726 111.339,237.673 119.896,237.673L150.905,237.673C159.462,237.673 166.41,230.726 166.41,222.169L166.41,191.159Z" style="fill:rgb(207,216,220);"/>
    </g>
    <g transform="matrix(0.0427623,0,0,0.0427623,4.43866,0.69241)">
        <path d="M166.41,191.159C166.41,182.602 159.462,175.655 150.905,175.655L119.896,175.655C111.339,175.655 104.391,182.602 104.391,191.159L104.391,222.169C104.391,230.726 111.339,237.673 119.896,237.673L150.905,237.673C159.462,237.673 166.41,230.726 166.41,222.169L166.41,191.159Z" style="fill:rgb(207,216,220);"/>
    </g>
    <g transform="matrix(0.0427623,0,0,0.0427623,0.896058,4.0477)">
        <path d="M166.41,191.159C166.41,182.602 159.462,175.655 150.905,175.655L119.896,175.655C111.339,175.655 104.391,182.602 104.391,191.159L104.391,222.169C104.391,230.726 111.339,237.673 119.896,237.673L150.905,237.673C159.462,237.673 166.41,230.726 166.41,222.169L166.41,191.159Z" style="fill:rgb(207,216,220);"/>
    </g>
    <g transform="matrix(0.0427623,0,0,0.0427623,11.5239,4.0477)">
        <path d="M166.41,191.159C166.41,182.602 159.462,175.655 150.905,175.655L119.896,175.655C111.339,175.655 104.391,182.602 104.391,191.159L104.391,222.169C104.391,230.726 111.339,237.673 119.896,237.673L150.905,237.673C159.462,237.673 166.41,230.726 166.41,222.169L166.41,191.159Z" style="fill:rgb(251,192,46);"/>
    </g>
    <g transform="matrix(0.0427623,0,0,0.0427623,7.98126,4.0477)">
        <path d="M166.41,191.159C166.41,182.602 159.462,175.655 150.905,175.655L119.896,175.655C111.339,175.655 104.391,182.602 104.391,191.159L104.391,222.169C104.391,230.726 111.339,237.673 119.896,237.673L150.905,237.673C159.462,237.673 166.41,230.726 166.41,222.169L166.41,191.159Z" style="fill:rgb(207,216,220);"/>
    </g>
    <g transform="matrix(0.0427623,0,0,0.0427623,4.43866,4.0477)">
        <path d="M166.41,191.159C166.41,182.602 159.462,175.655 150.905,175.655L119.896,175.655C111.339,175.655 104.391,182.602 104.391,191.159L104.391,222.169C104.391,230.726 111.339,237.673 119.896,237.673L150.905,237.673C159.462,237.673 166.41,230.726 166.41,222.169L166.41,191.159Z" style="fill:rgb(207,216,220);"/>
    </g>
    <g transform="matrix(0.0427623,0,0,0.0427623,0.896058,7.403)">
        <path d="M166.41,191.159C166.41,182.602 159.462,175.655 150.905,175.655L119.896,175.655C111.339,175.655 104.391,182.602 104.391,191.159L104.391,222.169C104.391,230.726 111.339,237.673 119.896,237.673L150.905,237.673C159.462,237.673 166.41,230.726 166.41,222.169L166.41,191.159Z" style="fill:rgb(207,216,220);"/>
    </g>
    <g transform="matrix(0.0427623,0,0,0.0427623,11.5239,7.403)">
        <path d="M166.41,191.159C166.41,182.602 159.462,175.655 150.905,175.655L119.896,175.655C111.339,175.655 104.391,182.602 104.391,191.159L104.391,300.324C104.391,308.881 111.339,315.829 119.896,315.829L150.905,315.829C159.462,315.829 166.41,308.881 166.41,300.324L166.41,191.159Z" style="fill:rgb(77,175,81);"/>
    </g>
    <g transform="matrix(0.0427623,0,0,0.0427623,7.98126,7.403)">
        <path d="M166.41,191.159C166.41,182.602 159.462,175.655 150.905,175.655L119.896,175.655C111.339,175.655 104.391,182.602 104.391,191.159L104.391,222.169C104.391,230.726 111.339,237.673 119.896,237.673L150.905,237.673C159.462,237.673 166.41,230.726 166.41,222.169L166.41,191.159Z" style="fill:rgb(207,216,220);"/>
    </g>
    <g transform="matrix(0.0427623,0,0,0.0427623,4.43866,7.403)">
        <path d="M166.41,191.159C166.41,182.602 159.462,175.655 150.905,175.655L119.896,175.655C111.339,175.655 104.391,182.602 104.391,191.159L104.391,222.169C104.391,230.726 111.339,237.673 119.896,237.673L150.905,237.673C159.462,237.673 166.41,230.726 166.41,222.169L166.41,191.159Z" style="fill:rgb(207,216,220);"/>
    </g>
    <g transform="matrix(0.0427623,0,0,0.0427623,0.896058,10.7583)">
        <path d="M166.41,191.159C166.41,182.602 159.462,175.655 150.905,175.655L119.896,175.655C111.339,175.655 104.391,182.602 104.391,191.159L104.391,222.169C104.391,230.726 111.339,237.673 119.896,237.673L150.905,237.673C159.462,237.673 166.41,230.726 166.41,222.169L166.41,191.159Z" style="fill:rgb(207,216,220);"/>
    </g>
    <g transform="matrix(0.0427623,0,0,0.0427623,7.98126,10.7583)">
        <path d="M166.41,191.159C166.41,182.602 159.462,175.655 150.905,175.655L119.896,175.655C111.339,175.655 104.391,182.602 104.391,191.159L104.391,222.169C104.391,230.726 111.339,237.673 119.896,237.673L150.905,237.673C159.462,237.673 166.41,230.726 166.41,222.169L166.41,191.159Z" style="fill:rgb(207,216,220);"/>
    </g>
    <g transform="matrix(0.0427623,0,0,0.0427623,4.43866,10.7583)">
        <path d="M166.41,191.159C166.41,182.602 159.462,175.655 150.905,175.655L119.896,175.655C111.339,175.655 104.391,182.602 104.391,191.159L104.391,222.169C104.391,230.726 111.339,237.673 119.896,237.673L150.905,237.673C159.462,237.673 166.41,230.726 166.41,222.169L166.41,191.159Z" style="fill:rgb(207,216,220);"/>
    </g>
</svg>
