<?xml version="1.0" encoding="UTF-8" standalone="no"?>
<!DOCTYPE svg PUBLIC "-//W3C//DTD SVG 1.1//EN" "http://www.w3.org/Graphics/SVG/1.1/DTD/svg11.dtd">
<svg width="100%" height="100%" viewBox="0 0 24 24" version="1.1" xmlns="http://www.w3.org/2000/svg" xmlns:xlink="http://www.w3.org/1999/xlink" xml:space="preserve" xmlns:serif="http://www.serif.com/" style="fill-rule:evenodd;clip-rule:evenodd;stroke-linejoin:round;stroke-miterlimit:2;">
    <g transform="matrix(0.048,0,0,0.048,0.445275,-0.183938)">
        <path d="M27.059,281.972L17.059,172.589L17.059,111.262C17.059,95.76 29.645,83.174 45.148,83.174L436.299,83.174C451.802,83.174 464.388,95.76 464.388,111.262L464.388,172.589L454.388,281.972L27.059,281.972Z" style="fill:rgb(244,67,54);"/>
    </g>
    <g transform="matrix(0.048,0,0,0.048,0.445275,-0.183938)">
        <path d="M464.388,172.589L464.388,445.576C464.388,461.078 451.802,473.664 436.299,473.664L45.148,473.664C29.645,473.664 17.059,461.078 17.059,445.576L17.059,172.589L464.388,172.589Z" style="fill:rgb(207,216,220);"/>
    </g>
    <g transform="matrix(0.048,0,0,0.048,-0.274242,-1.61377)">
        <rect x="82.049" y="232.377" width="64.33" height="64.33" style="fill:rgb(144,164,174);"/>
    </g>
    <g transform="matrix(0.048,0,0,0.048,-0.274242,2.55406)">
        <rect x="82.049" y="232.377" width="64.33" height="64.33" style="fill:rgb(144,164,174);"/>
    </g>
    <g transform="matrix(0.048,0,0,0.048,-0.274242,6.96189)">
        <rect x="82.049" y="232.377" width="64.33" height="64.33" style="fill:rgb(144,164,174);"/>
    </g>
    <g transform="matrix(0.048,0,0,0.048,4.25373,-1.61377)">
        <rect x="82.049" y="232.377" width="64.33" height="64.33" style="fill:rgb(144,164,174);"/>
    </g>
    <g transform="matrix(0.048,0,0,0.048,4.25373,2.55406)">
        <rect x="82.049" y="232.377" width="64.33" height="64.33" style="fill:rgb(144,164,174);"/>
    </g>
    <g transform="matrix(0.048,0,0,0.048,4.25373,6.96189)">
        <rect x="82.049" y="232.377" width="64.33" height="64.33" style="fill:rgb(144,164,174);"/>
    </g>
    <g transform="matrix(0.048,0,0,0.048,8.78171,-1.61377)">
        <rect x="82.049" y="232.377" width="64.33" height="64.33" style="fill:rgb(144,164,174);"/>
    </g>
    <g transform="matrix(0.048,0,0,0.048,8.78171,2.55406)">
        <rect x="82.049" y="232.377" width="64.33" height="64.33" style="fill:rgb(144,164,174);"/>
    </g>
    <g transform="matrix(0.048,0,0,0.048,8.78171,6.96189)">
        <rect x="82.049" y="232.377" width="64.33" height="64.33" style="fill:rgb(144,164,174);"/>
    </g>
    <g transform="matrix(0.048,0,0,0.048,13.3097,-1.61377)">
        <rect x="82.049" y="232.377" width="64.33" height="64.33" style="fill:rgb(144,164,174);"/>
    </g>
    <g transform="matrix(0.048,0,0,0.048,13.3097,2.55406)">
        <rect x="82.049" y="232.377" width="64.33" height="64.33" style="fill:rgb(144,164,174);"/>
    </g>
    <g transform="matrix(0.048,0,0,0.048,13.3097,6.96189)">
        <rect x="82.049" y="232.377" width="64.33" height="64.33" style="fill:rgb(144,164,174);"/>
    </g>
    <g transform="matrix(0.057098,0,0,0.057098,-0.669775,-1.11231)">
        <circle cx="122.559" cy="108.311" r="25.5" style="fill:rgb(177,57,48);"/>
    </g>
    <g transform="matrix(0.057098,0,0,0.057098,10.674,-1.11231)">
        <circle cx="122.559" cy="108.311" r="25.5" style="fill:rgb(177,57,48);"/>
    </g>
    <g transform="matrix(0.0388571,0,0,0.0375,1.67506,0.792635)">
        <path d="M151.248,50.118C151.248,32.104 137.133,17.478 119.748,17.478C102.363,17.478 88.248,32.104 88.248,50.118L88.248,112.838C88.248,130.853 102.363,145.478 119.748,145.478C137.133,145.478 151.248,130.853 151.248,112.838L151.248,50.118Z" style="fill:rgb(207,216,220);"/>
    </g>
    <g transform="matrix(0.0388571,0,0,0.0375,13.0188,0.792635)">
        <path d="M151.248,50.118C151.248,32.104 137.133,17.478 119.748,17.478C102.363,17.478 88.248,32.104 88.248,50.118L88.248,112.838C88.248,130.853 102.363,145.478 119.748,145.478C137.133,145.478 151.248,130.853 151.248,112.838L151.248,50.118Z" style="fill:rgb(207,216,220);"/>
    </g>
</svg>
