<?xml version="1.0" encoding="UTF-8" standalone="no"?>
<!DOCTYPE svg PUBLIC "-//W3C//DTD SVG 1.1//EN" "http://www.w3.org/Graphics/SVG/1.1/DTD/svg11.dtd">
<svg width="100%" height="100%" viewBox="0 0 24 24" version="1.1" xmlns="http://www.w3.org/2000/svg" xmlns:xlink="http://www.w3.org/1999/xlink" xml:space="preserve" xmlns:serif="http://www.serif.com/" style="fill-rule:evenodd;clip-rule:evenodd;stroke-linejoin:round;stroke-miterlimit:2;">
    <g transform="matrix(0.048,0,0,0.0452331,-0.20339,0.745716)">
        <path d="M481.895,153.236C481.895,136.27 468.915,122.496 452.928,122.496L55.547,122.496C39.559,122.496 26.579,136.27 26.579,153.236L26.579,399.153C26.579,416.118 39.559,429.892 55.547,429.892L452.928,429.892C468.915,429.892 481.895,416.118 481.895,399.153L481.895,153.236Z" style="fill:rgb(51,72,91);"/>
    </g>
    <g transform="matrix(0.048,0,0,0.0557838,-0.20339,-1.24732)">
        <path d="M327.042,117.488C327.042,109.622 319.62,103.236 310.478,103.236L195.686,103.236C186.544,103.236 179.122,109.622 179.122,117.488L179.122,145.994C179.122,153.86 186.544,160.247 195.686,160.247L310.478,160.247C319.62,160.247 327.042,153.86 327.042,145.994L327.042,117.488Z" style="fill:rgb(51,72,91);"/>
    </g>
    <g transform="matrix(0.048,0,0,0.048,-0.767334,-0.730354)">
        <circle cx="265.986" cy="291.025" r="113.059" style="fill:rgb(63,88,104);"/>
    </g>
    <g transform="matrix(0.0358978,0,0,0.0358978,2.45169,2.79169)">
        <circle cx="265.986" cy="291.025" r="113.059" style="fill:rgb(200,208,218);"/>
    </g>
    <g transform="matrix(0.0228143,0,0,0.0228143,5.93171,6.5993)">
        <circle cx="265.986" cy="291.025" r="113.059" style="fill:rgb(83,187,229);"/>
    </g>
    <g transform="matrix(0.048,0,0,0.048,-0.20339,-0.44376)">
        <circle cx="218.654" cy="254.671" r="18.153" style="fill:white;"/>
    </g>
    <g transform="matrix(0.048,0,0,0.048,-0.349091,-0.0761787)">
        <path d="M454.931,172.044C454.931,166.808 450.68,162.558 445.445,162.558L394.309,162.558C389.073,162.558 384.823,166.808 384.823,172.044L384.823,191.015C384.823,196.25 389.073,200.501 394.309,200.501L445.445,200.501C450.68,200.501 454.931,196.25 454.931,191.015L454.931,172.044Z" style="fill:rgb(255,245,157);"/>
    </g>
</svg>
