<?xml version="1.0" encoding="UTF-8" standalone="no"?>
<!DOCTYPE svg PUBLIC "-//W3C//DTD SVG 1.1//EN" "http://www.w3.org/Graphics/SVG/1.1/DTD/svg11.dtd">
<svg width="100%" height="100%" viewBox="0 0 24 24" version="1.1" xmlns="http://www.w3.org/2000/svg" xmlns:xlink="http://www.w3.org/1999/xlink" xml:space="preserve" xmlns:serif="http://www.serif.com/" style="fill-rule:evenodd;clip-rule:evenodd;stroke-linejoin:round;stroke-miterlimit:2;">
    <g transform="matrix(0.048,0,0,0.05192,0.59168,0.984037)">
        <path d="M429.507,50.847C429.507,43.194 422.786,36.98 414.507,36.98L60.84,36.98C52.561,36.98 45.84,43.194 45.84,50.847C45.84,58.501 52.561,64.715 60.84,64.715L414.507,64.715C422.786,64.715 429.507,58.501 429.507,50.847Z" style="fill:rgb(51,72,91);"/>
    </g>
    <g transform="matrix(0.0296867,0,0,0.05192,4.94425,5.17202)">
        <path d="M429.507,50.847C429.507,43.194 418.639,36.98 405.254,36.98L70.093,36.98C56.707,36.98 45.84,43.194 45.84,50.847C45.84,58.501 56.707,64.715 70.093,64.715L405.254,64.715C418.639,64.715 429.507,58.501 429.507,50.847Z" style="fill:rgb(51,72,91);"/>
    </g>
    <g transform="matrix(0.048,0,0,0.05192,0.59168,9.36)">
        <path d="M429.507,50.847C429.507,43.194 422.786,36.98 414.507,36.98L60.84,36.98C52.561,36.98 45.84,43.194 45.84,50.847C45.84,58.501 52.561,64.715 60.84,64.715L414.507,64.715C422.786,64.715 429.507,58.501 429.507,50.847Z" style="fill:rgb(51,72,91);"/>
    </g>
    <g transform="matrix(0.048,0,0,0.05192,0.59168,17.736)">
        <path d="M429.507,50.847C429.507,43.194 422.786,36.98 414.507,36.98L60.84,36.98C52.561,36.98 45.84,43.194 45.84,50.847C45.84,58.501 52.561,64.715 60.84,64.715L414.507,64.715C422.786,64.715 429.507,58.501 429.507,50.847Z" style="fill:rgb(51,72,91);"/>
    </g>
    <g transform="matrix(0.0296867,0,0,0.05192,4.94425,13.548)">
        <path d="M429.507,50.847C429.507,43.194 418.639,36.98 405.254,36.98L70.093,36.98C56.707,36.98 45.84,43.194 45.84,50.847C45.84,58.501 56.707,64.715 70.093,64.715L405.254,64.715C418.639,64.715 429.507,58.501 429.507,50.847Z" style="fill:rgb(51,72,91);"/>
    </g>
</svg>
