<?xml version="1.0" encoding="UTF-8" standalone="no"?>
<!DOCTYPE svg PUBLIC "-//W3C//DTD SVG 1.1//EN" "http://www.w3.org/Graphics/SVG/1.1/DTD/svg11.dtd">
<svg width="100%" height="100%" viewBox="0 0 24 24" version="1.1" xmlns="http://www.w3.org/2000/svg" xmlns:xlink="http://www.w3.org/1999/xlink" xml:space="preserve" xmlns:serif="http://www.serif.com/" style="fill-rule:evenodd;clip-rule:evenodd;stroke-linejoin:round;stroke-miterlimit:2;">
    <g transform="matrix(0.048,0,0,0.048,0,0)">
        <path d="M250,25.616L474.384,464.561L25.616,464.561L250,25.616Z" style="fill:rgb(251,140,1);"/>
    </g>
    <g transform="matrix(0.048,0,0,0.048,0,0)">
        <path d="M410.19,338.983L89.81,338.983L130.768,258.86L369.232,258.86L410.19,338.983Z" style="fill:rgb(1,172,193);"/>
    </g>
    <g transform="matrix(0.048,0,0,0.048,0,0)">
        <path d="M369.232,258.86L130.768,258.86L161.093,199.538L338.907,199.538L369.232,258.86Z" style="fill:rgb(149,118,205);"/>
    </g>
    <g transform="matrix(0.048,0,0,0.048,0,0)">
        <path d="M338.907,199.538L161.093,199.538L184.329,154.083L315.671,154.083L338.907,199.538Z" style="fill:rgb(244,68,55);"/>
    </g>
    <g transform="matrix(0.048,0,0,0.048,0,0)">
        <path d="M315.671,154.083L184.329,154.083L205.596,112.481L294.404,112.481L315.671,154.083Z" style="fill:rgb(255,88,35);"/>
    </g>
    <g transform="matrix(0.048,0,0,0.048,0,0)">
        <path d="M410.19,338.983L474.384,464.561L25.616,464.561L89.81,338.983L410.19,338.983Z" style="fill:rgb(125,179,67);"/>
    </g>
</svg>
