<?xml version="1.0" encoding="UTF-8" standalone="no"?>
<!DOCTYPE svg PUBLIC "-//W3C//DTD SVG 1.1//EN" "http://www.w3.org/Graphics/SVG/1.1/DTD/svg11.dtd">
<svg width="100%" height="100%" viewBox="0 0 24 24" version="1.1" xmlns="http://www.w3.org/2000/svg" xmlns:xlink="http://www.w3.org/1999/xlink" xml:space="preserve" xmlns:serif="http://www.serif.com/" style="fill-rule:evenodd;clip-rule:evenodd;stroke-linejoin:round;stroke-miterlimit:2;">
    <g transform="matrix(0.048,0,0,0.048,-0.00924499,-0.0647149)">
        <circle cx="250.193" cy="251.348" r="224.384" style="fill:rgb(125,179,67);"/>
    </g>
    <g transform="matrix(0.048,0,0,0.048,-0.00924499,-0.0647149)">
        <path d="M195.909,33.63C95.954,58.551 25.809,148.333 25.809,251.348C25.809,375.189 126.352,475.732 250.193,475.732C374.116,475.732 474.576,375.272 474.576,251.348L250.193,251.348L195.909,33.63Z" style="fill:rgb(1,172,193);"/>
    </g>
    <g transform="matrix(0.048,0,0,0.048,-0.00924499,-0.0647149)">
        <path d="M64.17,125.874C39.167,162.943 25.809,206.636 25.809,251.348C25.809,375.189 126.352,475.732 250.193,475.732C374.116,475.732 474.576,375.272 474.576,251.348L250.193,251.348L64.17,125.874Z" style="fill:rgb(149,118,205);"/>
    </g>
    <g transform="matrix(0.048,0,0,0.048,-0.00924499,-0.0647149)">
        <path d="M26.663,270.905C36.803,386.806 133.849,475.732 250.193,475.732C374.116,475.732 474.576,375.272 474.576,251.348L250.193,251.348L26.663,270.905Z" style="fill:rgb(244,68,55);"/>
    </g>
    <g transform="matrix(0.048,0,0,0.048,-0.00924499,-0.0647149)">
        <path d="M83.443,401.49C125.995,448.748 186.6,475.732 250.193,475.732C374.116,475.732 474.576,375.272 474.576,251.348L250.193,251.348L83.443,401.49Z" style="fill:rgb(255,88,35);"/>
    </g>
    <g transform="matrix(0.048,0,0,0.048,-0.00924499,-0.0647149)">
        <path d="M362.384,445.67C431.809,405.588 474.576,331.513 474.576,251.348L250.193,251.348L362.384,445.67Z" style="fill:rgb(251,140,1);"/>
    </g>
</svg>
