<?xml version="1.0" encoding="UTF-8" standalone="no"?>
<!DOCTYPE svg PUBLIC "-//W3C//DTD SVG 1.1//EN" "http://www.w3.org/Graphics/SVG/1.1/DTD/svg11.dtd">
<svg width="100%" height="100%" viewBox="0 0 24 24" version="1.1" xmlns="http://www.w3.org/2000/svg" xmlns:xlink="http://www.w3.org/1999/xlink" xml:space="preserve" xmlns:serif="http://www.serif.com/" style="fill-rule:evenodd;clip-rule:evenodd;stroke-linejoin:round;stroke-miterlimit:2;">
    <g transform="matrix(0.0512771,0,0,0.0512771,-1.5672,-2.28967)">
        <path d="M97.335,102.965C93.232,100.963 90.402,96.749 90.402,91.879C90.402,85.076 95.925,79.552 102.728,79.552L171.295,79.552C178.099,79.552 183.622,85.076 183.622,91.879C183.622,96.749 180.792,100.963 176.688,102.965L176.688,438.122C176.688,460.02 158.91,477.799 137.012,477.799C115.114,477.799 97.335,460.02 97.335,438.122L97.335,102.965Z" style="fill:rgb(67,165,245);"/>
    </g>
    <g transform="matrix(0.0512771,0,0,0.0512771,-3.31168,-2.28967)">
        <path d="M300.725,104.206L299.184,104.206C292.381,104.206 286.858,98.682 286.858,91.879C286.858,85.076 292.381,79.552 299.184,79.552L367.751,79.552C374.555,79.552 380.078,85.076 380.078,91.879C380.078,98.682 374.555,104.206 367.751,104.206L366.211,104.206L366.211,203.029C427.325,217.767 472.791,272.854 472.791,338.476C472.791,415.37 410.362,477.799 333.468,477.799C256.573,477.799 194.145,415.37 194.145,338.476C194.145,272.854 239.611,217.767 300.725,203.029L300.725,104.206Z" style="fill:rgb(144,202,249);"/>
    </g>
    <g transform="matrix(0.0512771,0,0,0.0512771,-0.269815,-0.235426)">
        <path d="M388.85,282.253C389.589,287.533 389.971,292.929 389.971,298.414C389.971,362.34 338.072,414.239 274.146,414.239C210.22,414.239 158.32,362.34 158.32,298.414C158.32,292.929 158.703,287.533 159.441,282.253L388.85,282.253Z" style="fill:rgb(244,68,55);"/>
    </g>
    <g transform="matrix(0.0512771,0,0,0.0512771,-1.5672,-2.28967)">
        <path d="M153.19,167.461L153.19,438.122C153.19,447.051 145.941,454.301 137.012,454.301C128.082,454.301 120.833,447.051 120.833,438.122L120.833,167.461L153.19,167.461Z" style="fill:rgb(251,140,1);"/>
    </g>
</svg>
