<?xml version="1.0" encoding="UTF-8" standalone="no"?>
<!DOCTYPE svg PUBLIC "-//W3C//DTD SVG 1.1//EN" "http://www.w3.org/Graphics/SVG/1.1/DTD/svg11.dtd">
<svg width="100%" height="100%" viewBox="0 0 24 24" version="1.1" xmlns="http://www.w3.org/2000/svg" xmlns:xlink="http://www.w3.org/1999/xlink" xml:space="preserve" xmlns:serif="http://www.serif.com/" style="fill-rule:evenodd;clip-rule:evenodd;stroke-linejoin:round;stroke-miterlimit:2;">
    <g transform="matrix(0.0395352,0.0272207,-0.0272207,0.0395352,5.97972,-8.44845)">
        <rect x="332.158" y="85.81" width="24.404" height="37.544" style="fill:rgb(70,91,101);"/>
    </g>
    <g transform="matrix(0.048,0,0,0.048,-1.1588,0.394363)">
        <circle cx="259.142" cy="267.208" r="192.39" style="fill:white;"/>
    </g>
    <g transform="matrix(0.048,0,0,0.048,-0.202958,0.032)">
        <rect x="218.895" y="46.9" width="40.667" height="40" style="fill:rgb(70,91,101);"/>
    </g>
    <g transform="matrix(0.048,0,0,0.048,-0.72,0)">
        <path d="M250,74.818C360.717,74.818 450.605,164.707 450.605,275.424C450.605,386.141 360.717,476.029 250,476.029C139.283,476.029 49.395,386.141 49.395,275.424C49.395,164.707 139.283,74.818 250,74.818ZM250,107.176C342.859,107.176 418.248,182.565 418.248,275.424C418.248,368.282 342.859,443.672 250,443.672C157.141,443.672 81.752,368.282 81.752,275.424C81.752,182.565 157.141,107.176 250,107.176Z" style="fill:rgb(97,126,139);"/>
    </g>
    <g transform="matrix(0.048,0,0,0.048,-0.72,0)">
        <path d="M250,123.354C333.929,123.354 402.069,191.494 402.069,275.424L250,275.424L250,123.354Z" style="fill:rgb(34,150,243);"/>
    </g>
    <g transform="matrix(0.0445029,0,0,0.0312585,-9.18466,4.90957)">
        <path d="M476.029,55.391C476.029,42.679 468.78,32.357 459.85,32.357C450.921,32.357 443.672,42.679 443.672,55.391L443.672,265.872C443.672,278.585 450.921,288.906 459.85,288.906C468.78,288.906 476.029,278.585 476.029,265.872L476.029,55.391Z" style="fill:rgb(34,150,243);"/>
    </g>
    <g transform="matrix(2.72501e-18,0.0445029,-0.0312585,1.91403e-18,19.5908,-7.24432)">
        <path d="M476.029,55.391C476.029,42.679 468.78,32.357 459.85,32.357C450.921,32.357 443.672,42.679 443.672,55.391L443.672,265.872C443.672,278.585 450.921,288.906 459.85,288.906C468.78,288.906 476.029,278.585 476.029,265.872L476.029,55.391Z" style="fill:rgb(34,150,243);"/>
    </g>
    <g transform="matrix(0.048,0,0,0.048,-1.09031,0)">
        <path d="M318.535,38.567C318.535,29.184 310.917,21.567 301.535,21.567L213.895,21.567C204.512,21.567 196.895,29.184 196.895,38.567C196.895,47.949 204.512,55.567 213.895,55.567L301.535,55.567C310.917,55.567 318.535,47.949 318.535,38.567Z" style="fill:rgb(97,126,139);"/>
    </g>
    <g transform="matrix(0.0218565,0.0148573,-0.0269846,0.0396968,12.822,-1.24103)">
        <path d="M318.535,38.567C318.535,29.184 304.699,21.567 287.658,21.567L227.771,21.567C210.73,21.567 196.895,29.184 196.895,38.567C196.895,47.949 210.73,55.567 227.771,55.567L287.658,55.567C304.699,55.567 318.535,47.949 318.535,38.567Z" style="fill:rgb(97,126,139);"/>
    </g>
</svg>
