<?xml version="1.0" encoding="UTF-8" standalone="no"?>
<!DOCTYPE svg PUBLIC "-//W3C//DTD SVG 1.1//EN" "http://www.w3.org/Graphics/SVG/1.1/DTD/svg11.dtd">
<svg width="100%" height="100%" viewBox="0 0 24 24" version="1.1" xmlns="http://www.w3.org/2000/svg" xmlns:xlink="http://www.w3.org/1999/xlink" xml:space="preserve" xmlns:serif="http://www.serif.com/" style="fill-rule:evenodd;clip-rule:evenodd;stroke-linejoin:round;stroke-miterlimit:2;">
    <g transform="matrix(0.0615968,0,0,0.0615968,-3.68672,-3.49282)">
        <rect x="216.826" y="233.224" width="73.089" height="92" style="fill:rgb(189,137,61);"/>
    </g>
    <g transform="matrix(0.0615968,0,0,0.0615968,-3.95365,-2.85629)">
        <path d="M328.582,147.92C328.582,108.801 296.823,77.042 257.704,77.042C218.585,77.042 186.826,108.801 186.826,147.92L186.826,208.012C186.826,247.131 218.585,278.891 257.704,278.891C296.823,278.891 328.582,247.131 328.582,208.012L328.582,147.92Z" style="fill:rgb(255,183,78);"/>
    </g>
    <g transform="matrix(0.0615968,0,0,0.0615968,-3.90715,-2.24032)">
        <ellipse cx="181.433" cy="183.359" rx="14.638" ry="19.26" style="fill:rgb(255,183,78);"/>
    </g>
    <g transform="matrix(0.0615968,0,0,0.0615968,5.39596,-2.24032)">
        <ellipse cx="181.433" cy="183.359" rx="14.638" ry="19.26" style="fill:rgb(255,183,78);"/>
    </g>
    <g transform="matrix(0.0615968,0,0,0.0615968,-4.05141,-2.97948)">
        <circle cx="227.08" cy="186.633" r="8.667" style="fill:rgb(121,72,26);"/>
    </g>
    <g transform="matrix(0.0615968,0,0,0.0615968,-0.0832099,-2.97948)">
        <circle cx="227.08" cy="186.633" r="8.667" style="fill:rgb(121,72,26);"/>
    </g>
    <g transform="matrix(0.0615968,0,0,0.0615968,-3.95365,-2.24032)">
        <path d="M196.826,151.772C226.474,158.616 259.227,144.735 289.915,115.562C293.669,137.044 302.495,147.781 318.582,147.92L318.582,183.359C318.582,183.359 330.461,170.517 331.327,164.099C337.146,120.965 339.24,78.944 307.011,77.057C290.728,33.504 186.826,60.601 186.826,134.119L186.826,164.099C187.068,174.052 191.872,178.79 196.826,183.359L196.826,151.772Z" style="fill:rgb(67,67,67);"/>
    </g>
    <g transform="matrix(0.0615968,0,0,0.0615968,-3.95365,-2.85629)">
        <path d="M143.753,416.224C124.476,416.224 112.072,402.326 116.708,383.615C128.782,334.888 167.9,299.224 221.159,299.224L259.001,303.998L296.843,299.224C350.102,299.224 389.221,334.888 401.295,383.615C405.931,402.326 393.526,416.224 374.25,416.224L143.753,416.224Z" style="fill:rgb(207,216,220);"/>
    </g>
    <g transform="matrix(0.0435555,0.0435555,-0.0435555,0.0435555,15.1781,-9.84131)">
        <rect x="260.799" y="331.224" width="26.5" height="26.5" style="fill:rgb(64,162,205);"/>
    </g>
    <g transform="matrix(0.0615968,0,0,0.0615968,-3.69419,-2.85629)">
        <path d="M263.753,327.558L250.42,327.558L239.42,416.224L273.753,416.224L263.753,327.558Z" style="fill:rgb(64,162,205);"/>
    </g>
</svg>
