<?xml version="1.0" encoding="UTF-8" standalone="no"?>
<!DOCTYPE svg PUBLIC "-//W3C//DTD SVG 1.1//EN" "http://www.w3.org/Graphics/SVG/1.1/DTD/svg11.dtd">
<svg width="100%" height="100%" viewBox="0 0 24 24" version="1.1" xmlns="http://www.w3.org/2000/svg" xmlns:xlink="http://www.w3.org/1999/xlink" xml:space="preserve" xmlns:serif="http://www.serif.com/" style="fill-rule:evenodd;clip-rule:evenodd;stroke-linejoin:round;stroke-miterlimit:2;">
    <g transform="matrix(0.048,0,0,0.048,0,0)">
        <path d="M250,23.971C374.749,23.971 476.029,125.251 476.029,250C476.029,374.749 374.749,476.029 250,476.029C125.251,476.029 23.971,374.749 23.971,250C23.971,125.251 125.251,23.971 250,23.971ZM250,56.328C356.89,56.328 443.672,143.11 443.672,250C443.672,356.89 356.89,443.672 250,443.672C143.11,443.672 56.328,356.89 56.328,250C56.328,143.11 143.11,56.328 250,56.328Z" style="fill:rgb(244,68,55);"/>
    </g>
    <g transform="matrix(0.0445029,0,0,0.0349893,-8.46466,2.45911)">
        <path d="M476.029,52.935C476.029,41.578 468.78,32.357 459.85,32.357C450.921,32.357 443.672,41.578 443.672,52.935L443.672,268.328C443.672,279.685 450.921,288.906 459.85,288.906C468.78,288.906 476.029,279.685 476.029,268.328L476.029,52.935Z" style="fill:rgb(34,150,243);"/>
    </g>
    <g transform="matrix(2.72501e-18,0.0445029,-0.0251875,1.54229e-18,13.535,-8.46466)">
        <path d="M476.029,60.943C476.029,45.166 468.78,32.357 459.85,32.357C450.921,32.357 443.672,45.166 443.672,60.943L443.672,260.32C443.672,276.097 450.921,288.906 459.85,288.906C468.78,288.906 476.029,276.097 476.029,260.32L476.029,60.943Z" style="fill:rgb(34,150,243);"/>
    </g>
    <g transform="matrix(0.048,0,0,0.048,-0.416025,-0.212635)">
        <circle cx="258.667" cy="254.43" r="27.928" style="fill:rgb(85,111,123);"/>
    </g>
</svg>
