<?xml version="1.0" encoding="UTF-8" standalone="no"?>
<!DOCTYPE svg PUBLIC "-//W3C//DTD SVG 1.1//EN" "http://www.w3.org/Graphics/SVG/1.1/DTD/svg11.dtd">
<svg width="100%" height="100%" viewBox="0 0 24 24" version="1.1" xmlns="http://www.w3.org/2000/svg" xmlns:xlink="http://www.w3.org/1999/xlink" xml:space="preserve" xmlns:serif="http://www.serif.com/" style="fill-rule:evenodd;clip-rule:evenodd;stroke-linejoin:round;stroke-miterlimit:2;">
    <g transform="matrix(0.050734,0,0,0.050734,-1.04504,1.54442)">
        <path d="M105.695,330.122C69.219,329.891 39.676,300.206 39.676,263.675C39.676,227.001 69.451,197.227 106.125,197.227L106.126,197.227L106.125,196.841C106.125,133.486 157.561,82.049 220.917,82.049C269.358,82.049 310.832,112.12 327.674,154.599C330.039,154.385 332.428,154.276 334.842,154.276C376.386,154.276 410.452,186.544 413.325,227.362C416.389,226.797 419.543,226.502 422.766,226.502C451.361,226.502 474.576,249.718 474.576,278.313C474.576,306.908 451.361,330.123 422.766,330.123L106.125,330.123L105.695,330.122Z" style="fill:rgb(144,202,249);"/>
    </g>
    <g transform="matrix(0.050734,0,0,0.050734,-1.04504,1.54442)">
        <path d="M220.904,99.384L220.912,99.384C225.377,99.384 229.001,103.008 229.001,107.473C229.001,111.938 225.377,115.562 220.912,115.562L220.912,115.562C188.337,115.562 160.21,134.771 147.25,162.475C146.127,165.593 143.141,167.824 139.638,167.824C135.173,167.824 131.549,164.199 131.549,159.735C131.549,157.962 132.063,156.623 133.612,153.512C149.569,121.446 182.681,99.388 220.904,99.384Z" style="fill:rgb(225,245,254);"/>
    </g>
</svg>
