<?xml version="1.0" encoding="UTF-8" standalone="no"?>
<!DOCTYPE svg PUBLIC "-//W3C//DTD SVG 1.1//EN" "http://www.w3.org/Graphics/SVG/1.1/DTD/svg11.dtd">
<svg width="100%" height="100%" viewBox="0 0 24 24" version="1.1" xmlns="http://www.w3.org/2000/svg" xmlns:xlink="http://www.w3.org/1999/xlink" xml:space="preserve" xmlns:serif="http://www.serif.com/" style="fill-rule:evenodd;clip-rule:evenodd;stroke-linejoin:round;stroke-miterlimit:2;">
    <g transform="matrix(0.048,0,0,0.048,0,0)">
        <path d="M476.029,250C476.029,190.053 452.215,132.562 409.827,90.173L336.306,163.694C359.196,186.583 372.056,217.629 372.056,250L476.029,250Z" style="fill:rgb(99,108,224);"/>
    </g>
    <g transform="matrix(0.048,0,0,0.048,0,0)">
        <path d="M409.827,90.173C367.438,47.785 309.947,23.971 250,23.971L250,127.944C282.371,127.944 313.417,140.804 336.306,163.694L409.827,90.173Z" style="fill:rgb(94,206,224);"/>
    </g>
    <g transform="matrix(0.048,0,0,0.048,0,0)">
        <path d="M250,23.971C190.053,23.971 132.562,47.785 90.173,90.173L163.694,163.694C186.583,140.804 217.629,127.944 250,127.944L250,23.971Z" style="fill:rgb(113,226,248);"/>
    </g>
    <g transform="matrix(0.048,0,0,0.048,0,0)">
        <path d="M90.173,90.173C47.785,132.562 23.971,190.053 23.971,250L127.944,250C127.944,217.629 140.804,186.583 163.694,163.694L90.173,90.173Z" style="fill:rgb(218,112,72);"/>
    </g>
    <g transform="matrix(0.048,0,0,-0.048,0,24)">
        <path d="M476.029,250C476.029,190.053 452.215,132.562 409.827,90.173L336.306,163.694C359.196,186.583 372.056,217.629 372.056,250L476.029,250Z" style="fill:rgb(87,93,195);"/>
    </g>
    <g transform="matrix(0.048,0,0,-0.048,0,24)">
        <path d="M409.827,90.173C367.438,47.785 309.947,23.971 250,23.971L250,127.944C282.371,127.944 313.417,140.804 336.306,163.694L409.827,90.173Z" style="fill:rgb(225,127,240);"/>
    </g>
    <g transform="matrix(0.048,0,0,-0.048,0,24)">
        <path d="M250,23.971C190.053,23.971 132.562,47.785 90.173,90.173L163.694,163.694C186.583,140.804 217.629,127.944 250,127.944L250,23.971Z" style="fill:rgb(204,114,218);"/>
    </g>
    <g transform="matrix(0.048,0,0,-0.048,0,24)">
        <path d="M90.173,90.173C47.785,132.562 23.971,190.053 23.971,250L127.944,250C127.944,217.629 140.804,186.583 163.694,163.694L90.173,90.173Z" style="fill:rgb(247,128,83);"/>
    </g>
</svg>
