<?xml version="1.0" encoding="UTF-8" standalone="no"?>
<!DOCTYPE svg PUBLIC "-//W3C//DTD SVG 1.1//EN" "http://www.w3.org/Graphics/SVG/1.1/DTD/svg11.dtd">
<svg width="100%" height="100%" viewBox="0 0 24 24" version="1.1" xmlns="http://www.w3.org/2000/svg" xmlns:xlink="http://www.w3.org/1999/xlink" xml:space="preserve" xmlns:serif="http://www.serif.com/" style="fill-rule:evenodd;clip-rule:evenodd;stroke-linejoin:round;stroke-miterlimit:2;">
    <g transform="matrix(0.048,0,0,0.048,0,0)">
        <path d="M156.246,379.638L53.544,379.638C35.685,379.638 21.186,365.14 21.186,347.281L21.186,88.421C21.186,70.563 35.685,56.064 53.544,56.064L444.915,56.064C462.774,56.064 477.273,70.563 477.273,88.421L477.273,347.281C477.273,365.14 462.774,379.638 444.915,379.638L262.124,379.638L177.682,466.018C176.239,467.493 174.519,468.535 172.685,469.143L172.637,469.158C171.454,469.546 170.194,469.762 168.885,469.776L168.74,469.777L167.585,469.724L166.836,469.632C164.344,469.25 161.944,468.113 160.005,466.218C158.172,464.426 157.008,462.207 156.516,459.873L156.502,459.805C156.372,459.176 156.29,458.53 156.259,457.871L156.246,457.298L156.246,457.277L156.246,379.638Z" style="fill:rgb(144,202,249);"/>
    </g>
    <g transform="matrix(0.0726502,0,0,0.0630212,-4.37698,-0.883654)">
        <rect x="140.937" y="115.207" width="168.971" height="15.233" style="fill:rgb(25,118,210);"/>
    </g>
    <g transform="matrix(0.0726502,0,0,0.0630212,-4.37698,1.51635)">
        <rect x="140.937" y="115.207" width="168.971" height="15.233" style="fill:rgb(25,118,210);"/>
    </g>
    <g transform="matrix(0.0726502,0,0,0.0630212,-4.37698,3.91635)">
        <rect x="140.937" y="115.207" width="168.971" height="15.233" style="fill:rgb(25,118,210);"/>
    </g>
    <g transform="matrix(0.0726502,0,0,0.0630212,-4.37698,6.31635)">
        <rect x="140.937" y="115.207" width="168.971" height="15.233" style="fill:rgb(25,118,210);"/>
    </g>
</svg>
