<?xml version="1.0" encoding="UTF-8" standalone="no"?>
<!DOCTYPE svg PUBLIC "-//W3C//DTD SVG 1.1//EN" "http://www.w3.org/Graphics/SVG/1.1/DTD/svg11.dtd">
<svg width="100%" height="100%" viewBox="0 0 24 24" version="1.1" xmlns="http://www.w3.org/2000/svg" xmlns:xlink="http://www.w3.org/1999/xlink" xml:space="preserve" xmlns:serif="http://www.serif.com/" style="fill-rule:evenodd;clip-rule:evenodd;stroke-linejoin:round;stroke-miterlimit:2;">
    <g transform="matrix(0.0244766,0.0423947,-0.0465006,0.0268471,10.3757,1.06772)">
        <rect x="57.396" y="16.179" width="21.572" height="175.655" style="fill:rgb(97,126,139);"/>
    </g>
    <g transform="matrix(-0.0244766,0.0423947,0.0465006,0.0268471,13.6243,1.06772)">
        <rect x="57.396" y="16.179" width="21.572" height="175.655" style="fill:rgb(97,126,139);"/>
    </g>
    <g transform="matrix(-0.0489531,-6.16884e-19,-1.06581e-17,0.0124311,15.3377,0.983041)">
        <rect x="57.396" y="16.179" width="21.572" height="175.655" style="fill:rgb(97,126,139);"/>
    </g>
    <g transform="matrix(0.048,0,0,0.048,-0.12943,-0.555501)">
        <path d="M252.696,74.73C266.516,74.73 277.735,85.95 277.735,99.769C277.735,113.588 266.516,124.807 252.696,124.807C238.877,124.807 227.658,113.588 227.658,99.769C227.658,85.95 238.877,74.73 252.696,74.73ZM252.696,90.524C257.799,90.524 261.941,94.666 261.941,99.769C261.941,104.871 257.799,109.014 252.696,109.014C247.594,109.014 243.451,104.871 243.451,99.769C243.451,94.666 247.594,90.524 252.696,90.524Z" style="fill:rgb(70,91,101);"/>
    </g>
    <g transform="matrix(0.0496754,0,0,0.048,0.0978065,0.997658)">
        <path d="M460.324,184.823C460.324,168.282 447.348,154.854 431.365,154.854L47.834,154.854C31.851,154.854 18.875,168.282 18.875,184.823L18.875,424.576C18.875,441.117 31.851,454.545 47.834,454.545L431.365,454.545C447.348,454.545 460.324,441.117 460.324,424.576L460.324,184.823Z" style="fill:rgb(67,165,245);"/>
    </g>
    <g transform="matrix(0.0419207,0,0,0.048,0.457506,0.276548)">
        <path d="M88.213,226.676C88.213,219.777 81.799,214.176 73.9,214.176C66,214.176 59.587,219.777 59.587,226.676L59.587,412.77C59.587,419.669 66,425.27 73.9,425.27C81.799,425.27 88.213,419.669 88.213,412.77L88.213,226.676Z" style="fill:rgb(26,119,210);"/>
    </g>
    <g transform="matrix(0.0419207,0,0,0.048,17.3466,0.276548)">
        <path d="M88.213,226.676C88.213,219.777 81.799,214.176 73.9,214.176C66,214.176 59.587,219.777 59.587,226.676L59.587,412.77C59.587,419.669 66,425.27 73.9,425.27C81.799,425.27 88.213,419.669 88.213,412.77L88.213,226.676Z" style="fill:rgb(26,119,210);"/>
    </g>
    <g transform="matrix(0.0419207,0,0,0.048,13.9688,0.276548)">
        <path d="M88.213,226.676C88.213,219.777 81.799,214.176 73.9,214.176C66,214.176 59.587,219.777 59.587,226.676L59.587,412.77C59.587,419.669 66,425.27 73.9,425.27C81.799,425.27 88.213,419.669 88.213,412.77L88.213,226.676Z" style="fill:rgb(26,119,210);"/>
    </g>
    <g transform="matrix(0.0419207,0,0,0.048,10.591,0.276548)">
        <path d="M88.213,226.676C88.213,219.777 81.799,214.176 73.9,214.176C66,214.176 59.587,219.777 59.587,226.676L59.587,412.77C59.587,419.669 66,425.27 73.9,425.27C81.799,425.27 88.213,419.669 88.213,412.77L88.213,226.676Z" style="fill:rgb(26,119,210);"/>
    </g>
    <g transform="matrix(0.0419207,0,0,0.048,7.21315,0.276548)">
        <path d="M88.213,226.676C88.213,219.777 81.799,214.176 73.9,214.176C66,214.176 59.587,219.777 59.587,226.676L59.587,412.77C59.587,419.669 66,425.27 73.9,425.27C81.799,425.27 88.213,419.669 88.213,412.77L88.213,226.676Z" style="fill:rgb(26,119,210);"/>
    </g>
    <g transform="matrix(0.0419207,0,0,0.048,3.83533,0.276548)">
        <path d="M88.213,226.676C88.213,219.777 81.799,214.176 73.9,214.176C66,214.176 59.587,219.777 59.587,226.676L59.587,412.77C59.587,419.669 66,425.27 73.9,425.27C81.799,425.27 88.213,419.669 88.213,412.77L88.213,226.676Z" style="fill:rgb(26,119,210);"/>
    </g>
</svg>
