<?xml version="1.0" encoding="UTF-8" standalone="no"?>
<!DOCTYPE svg PUBLIC "-//W3C//DTD SVG 1.1//EN" "http://www.w3.org/Graphics/SVG/1.1/DTD/svg11.dtd">
<svg width="100%" height="100%" viewBox="0 0 24 24" version="1.1" xmlns="http://www.w3.org/2000/svg" xmlns:xlink="http://www.w3.org/1999/xlink" xml:space="preserve" xmlns:serif="http://www.serif.com/" style="fill-rule:evenodd;clip-rule:evenodd;stroke-linejoin:round;stroke-miterlimit:2;">
    <g transform="matrix(0.048,0,0,0.048,1.18336,-0.18074)">
        <rect x="209.168" y="27.735" width="32.357" height="35.439" style="fill:rgb(93,108,192);"/>
    </g>
    <g transform="matrix(0.048,0,0,0.048,1.12789,-0.18074)">
        <rect x="146.764" y="193.374" width="159.476" height="23.498" style="fill:rgb(97,126,139);"/>
    </g>
    <g transform="matrix(0.035158,0,0,0.406163,4.03664,-64.8533)">
        <path d="M292.588,190.774L160.417,190.774L146.764,216.872L306.24,216.872L292.588,190.774Z" style="fill:rgb(97,126,139);"/>
    </g>
    <g transform="matrix(0.048,0,0,0.048,1.16487,-0.18074)">
        <path d="M305.47,219.352L305.47,243.857C305.47,258.664 293.449,270.685 278.642,270.685L172.821,270.685C158.015,270.685 145.994,258.664 145.994,243.857L145.994,219.352L305.47,219.352Z" style="fill:rgb(97,126,139);"/>
    </g>
    <g transform="matrix(0.048,0,0,-0.197508,1.12789,47.2943)">
        <path d="M306.24,193.131L146.764,193.131L131.764,216.872L321.24,216.872L306.24,193.131Z" style="fill:rgb(144,202,249);"/>
    </g>
    <g transform="matrix(0.048,0,0,0.197508,1.12789,-38.4884)">
        <path d="M306.24,207.389L146.764,207.389L131.764,216.872L321.24,216.872L306.24,207.389Z" style="fill:rgb(97,126,139);"/>
    </g>
    <g transform="matrix(0.048,0,0,0.0370695,1.16487,0.282418)">
        <path d="M263.097,27.735C263.097,19.656 258.032,13.097 251.793,13.097L199.671,13.097C193.432,13.097 188.367,19.656 188.367,27.735C188.367,35.814 193.432,42.373 199.671,42.373L251.793,42.373C258.032,42.373 263.097,35.814 263.097,27.735Z" style="fill:rgb(159,168,218);"/>
    </g>
    <g transform="matrix(-0.0533333,0,-0.00674596,0.048,26.5618,-0.18074)">
        <rect x="220.087" y="96.687" width="9" height="108.436" style="fill:rgb(97,126,139);"/>
    </g>
    <g transform="matrix(0.0533333,0,0.00674596,0.048,-2.56175,-0.18074)">
        <rect x="220.087" y="96.687" width="9" height="108.436" style="fill:rgb(97,126,139);"/>
    </g>
    <g transform="matrix(0.048,0,0,0.048,-0.12943,-0.32866)">
        <path d="M352.465,99.769C352.465,95.304 348.841,91.68 344.376,91.68L161.017,91.68C156.552,91.68 152.928,95.304 152.928,99.769C152.928,104.234 156.552,107.858 161.017,107.858L344.376,107.858C348.841,107.858 352.465,104.234 352.465,99.769Z" style="fill:rgb(70,91,101);"/>
    </g>
    <g transform="matrix(0.048,0,0,0.048,-0.12943,5.44022)">
        <path d="M352.465,99.769C352.465,95.304 348.841,91.68 344.376,91.68L161.017,91.68C156.552,91.68 152.928,95.304 152.928,99.769C152.928,104.234 156.552,107.858 161.017,107.858L344.376,107.858C348.841,107.858 352.465,104.234 352.465,99.769Z" style="fill:rgb(70,91,101);"/>
    </g>
</svg>
