<?xml version="1.0" encoding="UTF-8" standalone="no"?>
<!DOCTYPE svg PUBLIC "-//W3C//DTD SVG 1.1//EN" "http://www.w3.org/Graphics/SVG/1.1/DTD/svg11.dtd">
<svg width="100%" height="100%" viewBox="0 0 24 24" version="1.1" xmlns="http://www.w3.org/2000/svg" xmlns:xlink="http://www.w3.org/1999/xlink" xml:space="preserve" xmlns:serif="http://www.serif.com/" style="fill-rule:evenodd;clip-rule:evenodd;stroke-linejoin:round;stroke-miterlimit:2;">
    <g transform="matrix(0.0188752,0,0,0.0188752,2.38894,4.83337)">
        <path d="M486.903,68.609C486.903,51.153 472.73,36.98 455.273,36.98L66.683,36.98C49.227,36.98 35.054,51.153 35.054,68.609L35.054,457.2C35.054,474.656 49.227,488.829 66.683,488.829L455.273,488.829C472.73,488.829 486.903,474.656 486.903,457.2L486.903,68.609Z" style="fill:rgb(208,166,124);"/>
    </g>
    <g transform="matrix(0.0202568,0,0,0.0202568,2.39903,4.73156)">
        <path d="M300.108,39.484L300.108,122.866C300.108,128.606 295.447,133.267 289.707,133.267L195.655,133.267C189.915,133.267 185.254,128.606 185.254,122.866L185.254,39.484L300.108,39.484Z" style="fill:rgb(168,110,0);"/>
    </g>
    <g transform="matrix(0.0202568,0,0,0.0233393,2.25078,3.53399)">
        <path d="M435.115,356.298C435.115,348.682 427.99,342.498 419.215,342.498L287.015,342.498C278.24,342.498 271.115,348.682 271.115,356.298L271.115,420.698C271.115,428.315 278.24,434.498 287.015,434.498L419.215,434.498C427.99,434.498 435.115,428.315 435.115,420.698L435.115,356.298Z" style="fill:rgb(248,248,248);"/>
    </g>
    <g transform="matrix(0.018006,0,0,0.0202568,3.04555,4.52899)">
        <rect x="290.115" y="368.498" width="126" height="20" style="fill:rgb(85,111,122);"/>
    </g>
    <g transform="matrix(0.018006,0,0,0.0202568,3.04555,5.33926)">
        <rect x="290.115" y="368.498" width="126" height="20" style="fill:rgb(85,111,122);"/>
    </g>
    <g transform="matrix(0.0188752,0,0,0.0188752,11.759,4.83337)">
        <path d="M486.903,68.609C486.903,51.153 472.73,36.98 455.273,36.98L66.683,36.98C49.227,36.98 35.054,51.153 35.054,68.609L35.054,457.2C35.054,474.656 49.227,488.829 66.683,488.829L455.273,488.829C472.73,488.829 486.903,474.656 486.903,457.2L486.903,68.609Z" style="fill:rgb(208,166,124);"/>
    </g>
    <g transform="matrix(0.0202568,0,0,0.0202568,11.7691,4.73156)">
        <path d="M300.108,39.484L300.108,122.866C300.108,128.606 295.447,133.267 289.707,133.267L195.655,133.267C189.915,133.267 185.254,128.606 185.254,122.866L185.254,39.484L300.108,39.484Z" style="fill:rgb(168,110,0);"/>
    </g>
    <g transform="matrix(0.0202568,0,0,0.0233393,11.6208,3.53399)">
        <path d="M435.115,356.298C435.115,348.682 427.99,342.498 419.215,342.498L287.015,342.498C278.24,342.498 271.115,348.682 271.115,356.298L271.115,420.698C271.115,428.315 278.24,434.498 287.015,434.498L419.215,434.498C427.99,434.498 435.115,428.315 435.115,420.698L435.115,356.298Z" style="fill:rgb(248,248,248);"/>
    </g>
    <g transform="matrix(0.018006,0,0,0.0202568,12.4156,4.52899)">
        <rect x="290.115" y="368.498" width="126" height="20" style="fill:rgb(85,111,122);"/>
    </g>
    <g transform="matrix(0.018006,0,0,0.0202568,12.4156,5.33926)">
        <rect x="290.115" y="368.498" width="126" height="20" style="fill:rgb(85,111,122);"/>
    </g>
    <g transform="matrix(0.044705,0,0,0.044705,0.84096,-0.439745)">
        <path d="M488.059,373.652C488.059,346.439 465.965,324.345 438.752,324.345L60.478,324.345C33.265,324.345 11.171,346.439 11.171,373.652C11.171,400.865 33.265,422.958 60.478,422.958L438.752,422.958C465.965,422.958 488.059,400.865 488.059,373.652ZM468.059,373.652C468.059,357.477 454.927,344.345 438.752,344.345L60.478,344.345C44.303,344.345 31.171,357.477 31.171,373.652C31.171,389.827 44.303,402.958 60.478,402.958L438.752,402.958C454.927,402.958 468.059,389.827 468.059,373.652Z" style="fill:rgb(85,111,122);"/>
    </g>
    <g transform="matrix(0.044705,0,0,0.044705,0.330882,-0.688556)">
        <circle cx="72.619" cy="379.217" r="20.038" style="fill:rgb(37,68,81);"/>
    </g>
    <g transform="matrix(0.044705,0,0,0.044705,17.1763,-0.688556)">
        <circle cx="72.619" cy="379.217" r="20.038" style="fill:rgb(37,68,81);"/>
    </g>
    <g transform="matrix(0.044705,0,0,0.044705,14.3687,-0.688556)">
        <circle cx="72.619" cy="379.217" r="20.038" style="fill:rgb(37,68,81);"/>
    </g>
    <g transform="matrix(0.044705,0,0,0.044705,11.5612,-0.688556)">
        <circle cx="72.619" cy="379.217" r="20.038" style="fill:rgb(37,68,81);"/>
    </g>
    <g transform="matrix(0.044705,0,0,0.044705,8.75359,-0.688556)">
        <circle cx="72.619" cy="379.217" r="20.038" style="fill:rgb(37,68,81);"/>
    </g>
    <g transform="matrix(0.044705,0,0,0.044705,5.94602,-0.688556)">
        <circle cx="72.619" cy="379.217" r="20.038" style="fill:rgb(37,68,81);"/>
    </g>
    <g transform="matrix(0.044705,0,0,0.044705,3.13845,-0.688556)">
        <circle cx="72.619" cy="379.217" r="20.038" style="fill:rgb(37,68,81);"/>
    </g>
</svg>
