<?xml version="1.0" encoding="UTF-8" standalone="no"?>
<!DOCTYPE svg PUBLIC "-//W3C//DTD SVG 1.1//EN" "http://www.w3.org/Graphics/SVG/1.1/DTD/svg11.dtd">
<svg width="100%" height="100%" viewBox="0 0 24 24" version="1.1" xmlns="http://www.w3.org/2000/svg" xmlns:xlink="http://www.w3.org/1999/xlink" xml:space="preserve" xmlns:serif="http://www.serif.com/" style="fill-rule:evenodd;clip-rule:evenodd;stroke-linejoin:round;stroke-miterlimit:2;">
    <g transform="matrix(0.048,0,0,0.048,0,0)">
        <path d="M250,10C382.46,10 490,117.54 490,250C490,382.46 382.46,490 250,490C117.54,490 10,382.46 10,250C10,117.54 117.54,10 250,10ZM250,35C368.662,35 465,131.338 465,250C465,368.662 368.662,465 250,465C131.338,465 35,368.662 35,250C35,131.338 131.338,35 250,35Z" style="fill:rgb(37,68,81);"/>
    </g>
    <g transform="matrix(0.048,0,0,0.048,0,0)">
        <path d="M393.148,303.929C371.329,361.76 315.436,402.943 250,402.943C165.588,402.943 97.057,334.412 97.057,250C97.057,165.588 165.588,97.057 250,97.057C315.436,97.057 371.329,138.24 393.148,196.071L334.865,196.071C317.014,168.051 285.663,149.445 250,149.445C194.502,149.445 149.445,194.502 149.445,250C149.445,305.498 194.502,350.555 250,350.555C285.663,350.555 317.014,331.949 334.865,303.929L393.148,303.929Z" style="fill:rgb(37,68,81);"/>
    </g>
</svg>
