<?xml version="1.0" encoding="UTF-8" standalone="no"?>
<!DOCTYPE svg PUBLIC "-//W3C//DTD SVG 1.1//EN" "http://www.w3.org/Graphics/SVG/1.1/DTD/svg11.dtd">
<svg width="100%" height="100%" viewBox="0 0 24 24" version="1.1" xmlns="http://www.w3.org/2000/svg" xmlns:xlink="http://www.w3.org/1999/xlink" xml:space="preserve" xmlns:serif="http://www.serif.com/" style="fill-rule:evenodd;clip-rule:evenodd;stroke-linejoin:round;stroke-miterlimit:2;">
    <g transform="matrix(0.0293235,-3.18438e-19,-2.66842e-16,-0.262044,14.0709,73.6247)">
        <rect x="83.59" y="234.206" width="25.809" height="25.809" style="fill:rgb(121,144,156);"/>
    </g>
    <g transform="matrix(0.0293235,-3.18438e-19,-2.66842e-16,-0.262044,15.5089,73.6247)">
        <rect x="83.59" y="234.206" width="25.809" height="25.809" style="fill:rgb(121,144,156);"/>
    </g>
    <g transform="matrix(0.0504539,0,0,0.0504539,-1.11801,-0.691213)">
        <path d="M378.581,272.788L378.581,310.87C378.581,315.272 373.803,315.568 371.081,315.568C362.584,315.568 355.685,322.466 355.685,330.963C355.685,339.46 362.584,346.359 371.081,346.359C379.578,346.359 386.477,339.46 386.477,330.963L386.477,330.915C386.503,326.798 389.853,323.463 393.977,323.463C398.116,323.463 401.477,326.824 401.477,330.963L401.476,331.062C401.422,347.794 387.823,361.359 371.081,361.359C354.305,361.359 340.685,347.739 340.685,330.963C340.685,316.776 350.426,304.846 363.581,301.502L363.581,272.788L378.581,272.788Z" style="fill:rgb(56,72,80);"/>
    </g>
    <g transform="matrix(0.039832,0,0,0.039832,2.56465,1.9168)">
        <circle cx="377.581" cy="268.526" r="35.625" style="fill:rgb(245,125,1);"/>
    </g>
    <g transform="matrix(-0.0150155,-0.0251873,0.208262,-0.124156,-45.4439,36.4149)">
        <rect x="83.59" y="234.206" width="25.809" height="25.809" style="fill:rgb(121,144,156);"/>
    </g>
    <g transform="matrix(0.00840662,-0.0280926,-0.410443,-0.122823,117.514,36.3959)">
        <rect x="83.59" y="234.206" width="25.809" height="25.809" style="fill:rgb(121,144,156);"/>
    </g>
    <g transform="matrix(0.0504539,0,0,0.0504539,-1.11801,-0.691213)">
        <path d="M166.025,103.236L166.025,141.757L59.291,141.757C55.039,141.757 51.587,138.304 51.587,134.052L51.587,110.94C51.587,106.688 55.039,103.236 59.291,103.236L166.025,103.236ZM250,103.236L460.709,103.236C464.961,103.236 468.413,106.688 468.413,110.94L468.413,134.052C468.413,138.304 464.961,141.757 460.709,141.757L250,141.757L250,103.236Z" style="fill:rgb(56,72,80);"/>
    </g>
    <g transform="matrix(0.0304111,0.0304111,-0.114887,0.114887,35.4683,-10.7032)">
        <rect x="83.59" y="234.206" width="25.809" height="25.809" style="fill:rgb(255,193,10);"/>
    </g>
    <g transform="matrix(0.0304111,-0.0304111,-0.15594,-0.15594,45.0832,58.2392)">
        <rect x="83.59" y="234.206" width="25.809" height="25.809" style="fill:rgb(255,193,10);"/>
    </g>
    <g transform="matrix(0.0304111,0.0304111,-0.15594,0.15594,45.0832,-29.5084)">
        <rect x="83.59" y="234.206" width="25.809" height="25.809" style="fill:rgb(255,193,10);"/>
    </g>
    <g transform="matrix(0.0304111,0.0304111,-0.112281,0.112281,33.731,-27.3466)">
        <rect x="83.59" y="234.206" width="25.809" height="25.809" style="fill:rgb(255,193,10);"/>
    </g>
    <g transform="matrix(0.0304111,-0.0304111,-0.15594,-0.15594,45.0832,49.0489)">
        <rect x="83.59" y="234.206" width="25.809" height="25.809" style="fill:rgb(255,193,10);"/>
    </g>
    <g transform="matrix(-0.0304111,0.0304111,0.114887,0.114887,-16.7039,-10.7032)">
        <rect x="83.59" y="234.206" width="25.809" height="25.809" style="fill:rgb(255,193,10);"/>
    </g>
    <g transform="matrix(-0.0304111,-0.0304111,0.15594,-0.15594,-26.3187,58.2392)">
        <rect x="83.59" y="234.206" width="25.809" height="25.809" style="fill:rgb(255,193,10);"/>
    </g>
    <g transform="matrix(-0.0304111,0.0304111,0.15594,0.15594,-26.3187,-29.5084)">
        <rect x="83.59" y="234.206" width="25.809" height="25.809" style="fill:rgb(255,193,10);"/>
    </g>
    <g transform="matrix(-0.0304111,0.0304111,0.113702,0.113702,-15.3362,-27.7161)">
        <rect x="83.59" y="234.206" width="25.809" height="25.809" style="fill:rgb(255,193,10);"/>
    </g>
    <g transform="matrix(-0.0304111,-0.0304111,0.15594,-0.15594,-26.3187,49.0489)">
        <rect x="83.59" y="234.206" width="25.809" height="25.809" style="fill:rgb(255,193,10);"/>
    </g>
    <g transform="matrix(0.0504539,0,0,0.0504539,-1.11801,-0.691213)">
        <path d="M260.015,50.462C260.015,44.722 255.355,40.062 249.615,40.062L166.41,40.062C160.67,40.062 156.009,44.722 156.009,50.462L156.009,452.619C156.009,458.36 160.67,463.02 166.41,463.02L249.615,463.02C255.355,463.02 260.015,458.36 260.015,452.619L260.015,50.462ZM238.015,66.262C238.015,63.944 236.133,62.062 233.815,62.062L182.21,62.062C179.891,62.062 178.009,63.944 178.009,66.262L178.009,446.82C178.009,449.138 179.891,451.02 182.21,451.02L233.815,451.02C236.133,451.02 238.015,449.138 238.015,446.82L238.015,66.262Z" style="fill:rgb(255,152,2);"/>
    </g>
    <g transform="matrix(0.0568699,0,0,0.0504539,-3.09376,-0.691213)">
        <path d="M450.308,452.02C450.308,445.949 445.935,441.02 440.549,441.02L90.267,441.02C84.881,441.02 80.508,445.949 80.508,452.02C80.508,458.091 84.881,463.02 90.267,463.02L440.549,463.02C445.935,463.02 450.308,458.091 450.308,452.02Z" style="fill:rgb(56,72,80);"/>
    </g>
</svg>
