<?xml version="1.0" encoding="UTF-8" standalone="no"?>
<!DOCTYPE svg PUBLIC "-//W3C//DTD SVG 1.1//EN" "http://www.w3.org/Graphics/SVG/1.1/DTD/svg11.dtd">
<svg width="100%" height="100%" viewBox="0 0 24 24" version="1.1" xmlns="http://www.w3.org/2000/svg" xmlns:xlink="http://www.w3.org/1999/xlink" xml:space="preserve" xmlns:serif="http://www.serif.com/" style="fill-rule:evenodd;clip-rule:evenodd;stroke-linejoin:round;stroke-miterlimit:2;">
    <g transform="matrix(0.048,0,0,0.045844,-0.05547,0.466927)">
        <path d="M479.584,111.941C479.584,93.955 465.637,79.353 448.459,79.353L53.852,79.353C36.674,79.353 22.727,93.955 22.727,111.941L22.727,372.65C22.727,390.636 36.674,405.239 53.852,405.239L448.459,405.239C465.637,405.239 479.584,390.636 479.584,372.65L479.584,111.941Z" style="fill:rgb(225,232,235);"/>
    </g>
    <g transform="matrix(0.048,0,0,0.048,0,0)">
        <rect x="21.572" y="143.297" width="456.857" height="52.388" style="fill:rgb(67,67,67);"/>
    </g>
    <g transform="matrix(0.048,0,0,0.048,3.23279,-0.0894915)">
        <circle cx="112.288" cy="313.752" r="44.877" style="fill:rgb(251,192,46);"/>
    </g>
    <g transform="matrix(0.048,0,0,0.048,-0.280308,-0.0894915)">
        <circle cx="112.288" cy="313.752" r="44.877" style="fill:rgb(247,75,65);"/>
    </g>
    <g transform="matrix(0.048,0,0,0.0630212,6.08303,5.71784)">
        <rect x="140.937" y="115.207" width="168.971" height="15.233" style="fill:rgb(67,67,67);"/>
    </g>
    <g transform="matrix(0.048,0,0,0.0630212,6.08303,7.2301)">
        <rect x="140.937" y="115.207" width="168.971" height="15.233" style="fill:rgb(67,67,67);"/>
    </g>
    <g transform="matrix(0.048,0,0,0.0630212,6.08303,8.74235)">
        <rect x="140.937" y="115.207" width="168.971" height="15.233" style="fill:rgb(67,67,67);"/>
    </g>
</svg>
