<?xml version="1.0" encoding="UTF-8" standalone="no"?>
<!DOCTYPE svg PUBLIC "-//W3C//DTD SVG 1.1//EN" "http://www.w3.org/Graphics/SVG/1.1/DTD/svg11.dtd">
<svg width="100%" height="100%" viewBox="0 0 24 24" version="1.1" xmlns="http://www.w3.org/2000/svg" xmlns:xlink="http://www.w3.org/1999/xlink" xml:space="preserve" xmlns:serif="http://www.serif.com/" style="fill-rule:evenodd;clip-rule:evenodd;stroke-linejoin:round;stroke-miterlimit:2;">
    <g transform="matrix(0.048,0,0,0.0537103,-0.75624,-1.1708)">
        <path d="M448.767,92.835C448.767,86.67 443.166,81.664 436.267,81.664L45.243,81.664C38.344,81.664 32.743,86.67 32.743,92.835C32.743,99.001 38.344,104.006 45.243,104.006L436.267,104.006C443.166,104.006 448.767,99.001 448.767,92.835Z" style="fill:rgb(123,153,166);"/>
    </g>
    <g transform="matrix(2.93915e-18,0.048,-0.0537103,3.28881e-18,25.1708,1.64376)">
        <path d="M448.767,92.835C448.767,86.67 443.166,81.664 436.267,81.664L45.243,81.664C38.344,81.664 32.743,86.67 32.743,92.835C32.743,99.001 38.344,104.006 45.243,104.006L436.267,104.006C443.166,104.006 448.767,99.001 448.767,92.835Z" style="fill:rgb(123,153,166);"/>
    </g>
    <g transform="matrix(-0.048,0,0,-0.0537103,24.7562,25.1708)">
        <path d="M448.767,92.835C448.767,86.67 443.166,81.664 436.267,81.664L45.243,81.664C38.344,81.664 32.743,86.67 32.743,92.835C32.743,99.001 38.344,104.006 45.243,104.006L436.267,104.006C443.166,104.006 448.767,99.001 448.767,92.835Z" style="fill:rgb(123,153,166);"/>
    </g>
    <g transform="matrix(-2.93915e-18,-0.048,0.0537103,-3.28881e-18,-1.1708,22.3562)">
        <path d="M448.767,92.835C448.767,86.67 443.166,81.664 436.267,81.664L45.243,81.664C38.344,81.664 32.743,86.67 32.743,92.835C32.743,99.001 38.344,104.006 45.243,104.006L436.267,104.006C443.166,104.006 448.767,99.001 448.767,92.835Z" style="fill:rgb(123,153,166);"/>
    </g>
    <g transform="matrix(0.048,0,0,0.048,0,0)">
        <path d="M388.012,183.313L282.704,282.642L194.305,238.343L111.988,295L111.988,388.012L388.012,388.012L388.012,183.313Z" style="fill:rgb(56,72,80);"/>
    </g>
    <g transform="matrix(0.048,0,0,0.048,-0.337997,-0.702619)">
        <circle cx="164.291" cy="170.069" r="45.262" style="fill:rgb(253,208,81);"/>
    </g>
    <g transform="matrix(0.048,0,0,0.048,0,0)">
        <path d="M142.912,273.498L167.765,269.263L174.445,285.663L204.347,266.063L227.299,281.209L232.918,266.365L260.251,271.271L194.071,237.488L142.912,273.498" style="fill:white;"/>
    </g>
</svg>
