<?xml version="1.0" encoding="UTF-8" standalone="no"?>
<!DOCTYPE svg PUBLIC "-//W3C//DTD SVG 1.1//EN" "http://www.w3.org/Graphics/SVG/1.1/DTD/svg11.dtd">
<svg width="100%" height="100%" viewBox="0 0 24 24" version="1.1" xmlns="http://www.w3.org/2000/svg" xmlns:xlink="http://www.w3.org/1999/xlink" xml:space="preserve" xmlns:serif="http://www.serif.com/" style="fill-rule:evenodd;clip-rule:evenodd;stroke-linejoin:round;stroke-miterlimit:2;">
    <g transform="matrix(0.0439245,0.0253598,-0.0253598,0.0439245,6.10533,-5.4189)">
        <path d="M249.777,12.278C283.995,12.278 311.777,40.059 311.777,74.278L311.777,351.908L249.777,351.908L249.777,12.278Z" style="fill:rgb(174,184,188);"/>
    </g>
    <g transform="matrix(0.0439245,0.0253598,-0.0253598,0.0439245,7.10097,-6.30822)">
        <path d="M252.543,351.908C293.315,351.908 326.416,385.01 326.416,425.781C326.416,466.552 293.315,499.654 252.543,499.654C211.772,499.654 178.671,466.552 178.671,425.781C178.671,385.01 211.772,351.908 252.543,351.908ZM252.543,391.6C271.408,391.6 286.724,406.916 286.724,425.781C286.724,444.646 271.408,459.962 252.543,459.962C233.678,459.962 218.362,444.646 218.362,425.781C218.362,406.916 233.678,391.6 252.543,391.6Z" style="fill:rgb(244,68,55);"/>
    </g>
    <g transform="matrix(-0.0439245,0.0253598,0.0253598,0.0439245,17.8947,-5.4189)">
        <path d="M249.777,12.278C283.995,12.278 311.777,40.059 311.777,74.278L311.777,351.908L249.777,351.908L249.777,12.278Z" style="fill:rgb(174,184,188);"/>
    </g>
    <g transform="matrix(-0.0439245,0.0253598,0.0253598,0.0439245,16.899,-6.30822)">
        <path d="M252.543,351.908C293.315,351.908 326.416,385.01 326.416,425.781C326.416,466.552 293.315,499.654 252.543,499.654C211.772,499.654 178.671,466.552 178.671,425.781C178.671,385.01 211.772,351.908 252.543,351.908ZM252.543,391.6C271.408,391.6 286.724,406.916 286.724,425.781C286.724,444.646 271.408,459.962 252.543,459.962C233.678,459.962 218.362,444.646 218.362,425.781C218.362,406.916 233.678,391.6 252.543,391.6Z" style="fill:rgb(244,68,55);"/>
    </g>
    <g transform="matrix(0.0588614,0,0,0.0588614,-2.71535,-2.93135)">
        <circle cx="250" cy="267.856" r="17.856" style="fill:rgb(85,111,123);"/>
    </g>
</svg>
