<?xml version="1.0" encoding="UTF-8" standalone="no"?>
<!DOCTYPE svg PUBLIC "-//W3C//DTD SVG 1.1//EN" "http://www.w3.org/Graphics/SVG/1.1/DTD/svg11.dtd">
<svg width="100%" height="100%" viewBox="0 0 24 24" version="1.1" xmlns="http://www.w3.org/2000/svg" xmlns:xlink="http://www.w3.org/1999/xlink" xml:space="preserve" xmlns:serif="http://www.serif.com/" style="fill-rule:evenodd;clip-rule:evenodd;stroke-linejoin:round;stroke-miterlimit:2;">
    <g transform="matrix(0.0569185,0,0,0.0569185,-0.834931,-3.74016)">
        <path d="M106.703,241.14C148.798,241.14 182.974,275.316 182.974,317.411C182.974,359.507 148.798,393.683 106.703,393.683C64.607,393.683 30.431,359.507 30.431,317.411C30.431,275.316 64.607,241.14 106.703,241.14ZM106.703,266.14C135,266.14 157.974,289.114 157.974,317.411C157.974,345.709 135,368.683 106.703,368.683C78.405,368.683 55.431,345.709 55.431,317.411C55.431,289.114 78.405,266.14 106.703,266.14Z" style="fill:rgb(56,72,80);"/>
    </g>
    <g transform="matrix(0.0569185,0,0,0.0569185,12.6882,-3.74016)">
        <path d="M106.703,241.14C148.798,241.14 182.974,275.316 182.974,317.411C182.974,359.507 148.798,393.683 106.703,393.683C64.607,393.683 30.431,359.507 30.431,317.411C30.431,275.316 64.607,241.14 106.703,241.14ZM106.703,266.14C135,266.14 157.974,289.114 157.974,317.411C157.974,345.709 135,368.683 106.703,368.683C78.405,368.683 55.431,345.709 55.431,317.411C55.431,289.114 78.405,266.14 106.703,266.14Z" style="fill:rgb(56,72,80);"/>
    </g>
    <g transform="matrix(0.0369266,0,0,0.0498666,0.280499,9.70761)">
        <path d="M317.373,92.623C317.373,85.724 309.809,80.123 300.493,80.123L151.145,80.123C141.828,80.123 134.264,85.724 134.264,92.623C134.264,99.522 141.828,105.123 151.145,105.123L300.493,105.123C309.809,105.123 317.373,99.522 317.373,92.623Z" style="fill:rgb(245,125,1);"/>
    </g>
    <g transform="matrix(0.0400738,0,0,0.0498666,2.92509,3.86806)">
        <path d="M317.373,92.623C317.373,85.724 310.403,80.123 301.818,80.123L149.819,80.123C141.234,80.123 134.264,85.724 134.264,92.623C134.264,99.522 141.234,105.123 149.819,105.123L301.818,105.123C310.403,105.123 317.373,99.522 317.373,92.623Z" style="fill:rgb(245,125,1);"/>
    </g>
    <g transform="matrix(0.0261753,0.0453369,-0.0431858,0.0249333,8.00437,-2.00055)">
        <path d="M317.373,92.623C317.373,85.724 312.038,80.123 305.466,80.123L146.171,80.123C139.6,80.123 134.264,85.724 134.264,92.623C134.264,99.522 139.6,105.123 146.171,105.123L305.466,105.123C312.038,105.123 317.373,99.522 317.373,92.623Z" style="fill:rgb(245,125,1);"/>
    </g>
    <g transform="matrix(0.0259119,0.0448807,-0.0431858,0.0249333,14.7612,-1.85579)">
        <path d="M317.373,92.623C317.373,85.724 311.983,80.123 305.345,80.123L146.292,80.123C139.654,80.123 134.264,85.724 134.264,92.623C134.264,99.522 139.654,105.123 146.292,105.123L305.345,105.123C311.983,105.123 317.373,99.522 317.373,92.623Z" style="fill:rgb(245,125,1);"/>
    </g>
    <g transform="matrix(-0.0185998,0.0322159,0.0431858,0.0249333,13.9011,2.16369)">
        <path d="M317.373,92.623C317.373,85.724 309.865,80.123 300.616,80.123L151.021,80.123C141.773,80.123 134.264,85.724 134.264,92.623C134.264,99.522 141.773,105.123 151.021,105.123L300.616,105.123C309.865,105.123 317.373,99.522 317.373,92.623Z" style="fill:rgb(245,125,1);"/>
    </g>
    <g transform="matrix(0.0219818,0,0,0.0498666,3.53335,2.0165)">
        <path d="M317.373,92.623C317.373,85.724 304.667,80.123 289.016,80.123L162.621,80.123C146.97,80.123 134.264,85.724 134.264,92.623C134.264,99.522 146.97,105.123 162.621,105.123L289.016,105.123C304.667,105.123 317.373,99.522 317.373,92.623Z" style="fill:rgb(56,72,80);"/>
    </g>
    <g transform="matrix(-0.00964878,0.00591583,0.026065,0.0425123,14.6686,1.4343)">
        <path d="M317.373,92.623C317.373,85.724 292.695,80.123 262.298,80.123L189.339,80.123C158.942,80.123 134.264,85.724 134.264,92.623C134.264,99.522 158.942,105.123 189.339,105.123L262.298,105.123C292.695,105.123 317.373,99.522 317.373,92.623Z" style="fill:rgb(245,125,1);"/>
    </g>
    <g transform="matrix(-0.0205652,0.0356201,0.0431858,0.0249333,7.60962,1.0833)">
        <path d="M317.373,92.623C317.373,85.724 310.582,80.123 302.218,80.123L149.419,80.123C141.055,80.123 134.264,85.724 134.264,92.623C134.264,99.522 141.055,105.123 149.419,105.123L302.218,105.123C310.582,105.123 317.373,99.522 317.373,92.623Z" style="fill:rgb(245,125,1);"/>
    </g>
    <g transform="matrix(0.0681873,0,0,0.0681873,4.84112,-7.62039)">
        <circle cx="104.988" cy="321.861" r="16.776" style="fill:rgb(121,144,156);"/>
    </g>
    <g transform="matrix(0.0498666,0,0,0.0498666,0.0029998,-1.72368)">
        <circle cx="104.988" cy="321.861" r="16.776" style="fill:rgb(121,144,156);"/>
    </g>
    <g transform="matrix(0.0498666,0,0,0.0498666,13.5262,-1.72368)">
        <circle cx="104.988" cy="321.861" r="16.776" style="fill:rgb(121,144,156);"/>
    </g>
    <g transform="matrix(0.0372608,0,0,0.0372608,4.46915,0.452258)">
        <circle cx="302.975" cy="153.9" r="22.929" style="fill:rgb(56,72,80);"/>
    </g>
</svg>
