<?xml version="1.0" encoding="UTF-8" standalone="no"?>
<!DOCTYPE svg PUBLIC "-//W3C//DTD SVG 1.1//EN" "http://www.w3.org/Graphics/SVG/1.1/DTD/svg11.dtd">
<svg width="100%" height="100%" viewBox="0 0 24 24" version="1.1" xmlns="http://www.w3.org/2000/svg" xmlns:xlink="http://www.w3.org/1999/xlink" xml:space="preserve" xmlns:serif="http://www.serif.com/" style="fill-rule:evenodd;clip-rule:evenodd;stroke-linejoin:round;stroke-miterlimit:2;">
    <g transform="matrix(0.048,0,0,0.048,0.357972,0.00774197)">
        <circle cx="242.542" cy="249.839" r="226.029" style="fill:rgb(67,165,245);"/>
    </g>
    <g transform="matrix(-1.03323e-18,0.031801,-0.0778274,8.61538e-18,37.2429,7.18575)">
        <path d="M176.04,245.821C176.04,240.261 164.993,235.747 151.387,235.747C137.78,235.747 126.733,240.261 126.733,245.821L126.733,402.869C126.733,408.429 137.78,412.943 151.387,412.943C164.993,412.943 176.04,408.429 176.04,402.869L176.04,245.821Z" style="fill:white;"/>
    </g>
    <g transform="matrix(0.048,0,0,0.048,0,0.48)">
        <path d="M250,95.25C277.527,95.25 299.875,117.599 299.875,145.125C299.875,172.652 277.527,195 250,195C222.473,195 200.125,172.652 200.125,145.125C200.125,117.599 222.473,95.25 250,95.25ZM250,127.917C259.497,127.917 267.208,135.628 267.208,145.125C267.208,154.623 259.497,162.333 250,162.333C240.503,162.333 232.792,154.623 232.792,145.125C232.792,135.628 240.503,127.917 250,127.917Z" style="fill:white;"/>
    </g>
    <g transform="matrix(0.048,0,0,0.048,0,9.58798)">
        <path d="M250,95.25C277.527,95.25 299.875,117.599 299.875,145.125C299.875,172.652 277.527,195 250,195C222.473,195 200.125,172.652 200.125,145.125C200.125,117.599 222.473,95.25 250,95.25ZM250,127.917C259.497,127.917 267.208,135.628 267.208,145.125C267.208,154.623 259.497,162.333 250,162.333C240.503,162.333 232.792,154.623 232.792,145.125C232.792,135.628 240.503,127.917 250,127.917Z" style="fill:white;"/>
    </g>
</svg>
