<?xml version="1.0" encoding="UTF-8" standalone="no"?>
<!DOCTYPE svg PUBLIC "-//W3C//DTD SVG 1.1//EN" "http://www.w3.org/Graphics/SVG/1.1/DTD/svg11.dtd">
<svg width="100%" height="100%" viewBox="0 0 24 24" version="1.1" xmlns="http://www.w3.org/2000/svg" xmlns:xlink="http://www.w3.org/1999/xlink" xml:space="preserve" xmlns:serif="http://www.serif.com/" style="fill-rule:evenodd;clip-rule:evenodd;stroke-linejoin:round;stroke-miterlimit:2;">
    <g transform="matrix(0.048,0,0,0.048,0,0)">
        <path d="M166.025,106.703C166.025,54.615 208.313,12.327 260.401,12.327C312.488,12.327 354.777,54.615 354.777,106.703L354.777,464.176C354.777,474.593 346.319,483.051 335.901,483.051L184.9,483.051C174.482,483.051 166.025,474.593 166.025,464.176L166.025,175.096C166.025,164.679 174.482,156.221 184.9,156.221L185.481,156.079L260.401,156.079C287.652,156.079 309.777,133.954 309.777,106.703C309.777,79.451 287.652,57.327 260.401,57.327C233.149,57.327 211.025,79.451 211.025,106.703C211.025,119.121 200.943,129.203 188.525,129.203C176.107,129.203 166.025,119.121 166.025,106.703L166.025,106.703Z" style="fill:rgb(255,62,1);"/>
    </g>
    <g transform="matrix(0.0440927,0,0,0.0440927,1.01745,1.24941)">
        <path d="M260.401,241.302C303.707,241.302 338.866,276.461 338.866,319.767C338.866,363.073 303.707,398.232 260.401,398.232C217.094,398.232 181.935,363.073 181.935,319.767C181.935,276.461 217.094,241.302 260.401,241.302ZM260.401,267.802C289.081,267.802 312.366,291.087 312.366,319.767C312.366,348.448 289.081,371.732 260.401,371.732C231.72,371.732 208.435,348.448 208.435,319.767C208.435,291.087 231.72,267.802 260.401,267.802Z" style="fill:white;"/>
    </g>
    <g transform="matrix(0.0311783,0.0311783,-0.0311783,0.0311783,17.4035,-1.72654)">
        <rect x="181.935" y="280.483" width="26.5" height="144" style="fill:white;"/>
    </g>
</svg>
