<?xml version="1.0" encoding="UTF-8" standalone="no"?>
<!DOCTYPE svg PUBLIC "-//W3C//DTD SVG 1.1//EN" "http://www.w3.org/Graphics/SVG/1.1/DTD/svg11.dtd">
<svg width="100%" height="100%" viewBox="0 0 24 24" version="1.1" xmlns="http://www.w3.org/2000/svg" xmlns:xlink="http://www.w3.org/1999/xlink" xml:space="preserve" xmlns:serif="http://www.serif.com/" style="fill-rule:evenodd;clip-rule:evenodd;stroke-linejoin:round;stroke-miterlimit:2;">
    <g transform="matrix(0.048,0,0,0.048,0.0255098,-1.36424e-15)">
        <path d="M25.363,268.461L25.337,268.461C24.774,262.309 24.487,256.151 24.487,250.001C24.487,138.766 113.685,24.136 250.313,24.136C397.098,24.136 474.45,155.705 474.45,235.319C474.45,254.515 467.671,256.78 452.991,256.78L140.785,256.78C128.158,256.78 123.103,261.913 121.123,268.47L121.101,268.47L121.123,268.479C120.094,271.894 119.895,275.696 119.895,279.364L119.895,370.273C119.895,400.765 121.592,404.152 137.959,420.531C145.868,428.432 184.256,461.191 250.313,461.191C325.399,461.191 371.133,417.705 377.905,411.492C382.988,406.419 412.347,405.28 403.311,414.888C387.502,432.387 328.225,475.864 250.313,475.864C125.502,475.864 34.966,373.567 25.337,268.47L25.363,268.461ZM130.06,82.295C133.446,78.34 172.962,37.12 250.313,37.12C327.656,37.12 363.226,76.082 367.179,79.469C371.133,82.295 380.73,92.461 380.73,99.235L380.73,220.636C380.73,235.887 374.52,240.402 364.354,240.402L136.272,240.402C121.023,240.402 118.197,234.189 118.197,223.462L118.197,100.362C118.197,94.15 126.106,86.25 130.06,82.295Z" style="fill:rgb(70,91,101);"/>
    </g>
</svg>
