<?xml version="1.0" encoding="UTF-8" standalone="no"?>
<!DOCTYPE svg PUBLIC "-//W3C//DTD SVG 1.1//EN" "http://www.w3.org/Graphics/SVG/1.1/DTD/svg11.dtd">
<svg width="100%" height="100%" viewBox="0 0 24 24" version="1.1" xmlns="http://www.w3.org/2000/svg" xmlns:xlink="http://www.w3.org/1999/xlink" xml:space="preserve" xmlns:serif="http://www.serif.com/" style="fill-rule:evenodd;clip-rule:evenodd;stroke-linejoin:round;stroke-miterlimit:2;">
    <g transform="matrix(0.048,0,0,0.048,0,0)">
        <circle cx="250" cy="250" r="240" style="fill:rgb(34,150,243);"/>
    </g>
    <g transform="matrix(18.6303,0,0,19.0073,6.13721,18.7472)">
        <path d="M0.217,-0.263C0.228,-0.146 0.266,-0.088 0.329,-0.088C0.353,-0.088 0.375,-0.094 0.394,-0.105C0.414,-0.116 0.433,-0.143 0.451,-0.185C0.463,-0.212 0.473,-0.229 0.481,-0.236C0.49,-0.243 0.499,-0.246 0.509,-0.246C0.528,-0.246 0.544,-0.24 0.554,-0.229C0.565,-0.218 0.571,-0.202 0.571,-0.182C0.571,-0.134 0.547,-0.09 0.5,-0.05C0.454,-0.009 0.397,0.011 0.33,0.011C0.268,0.011 0.213,-0.011 0.167,-0.057C0.12,-0.102 0.092,-0.171 0.083,-0.263L0.021,-0.263C0.015,-0.263 0.012,-0.267 0.012,-0.276C0.012,-0.284 0.015,-0.294 0.021,-0.307C0.028,-0.319 0.033,-0.325 0.037,-0.325L0.079,-0.325L0.079,-0.343C0.079,-0.357 0.08,-0.378 0.081,-0.405L0.021,-0.405C0.015,-0.405 0.012,-0.409 0.012,-0.417C0.012,-0.425 0.015,-0.436 0.021,-0.448C0.028,-0.461 0.033,-0.467 0.037,-0.467L0.086,-0.467C0.107,-0.636 0.187,-0.721 0.326,-0.721C0.387,-0.721 0.44,-0.705 0.484,-0.674C0.529,-0.642 0.551,-0.603 0.551,-0.556C0.551,-0.54 0.546,-0.527 0.535,-0.516C0.525,-0.505 0.512,-0.499 0.497,-0.499C0.48,-0.499 0.468,-0.503 0.461,-0.512C0.453,-0.52 0.445,-0.533 0.438,-0.551C0.429,-0.574 0.417,-0.592 0.404,-0.604C0.391,-0.616 0.369,-0.622 0.338,-0.622C0.302,-0.622 0.274,-0.61 0.255,-0.584C0.236,-0.559 0.223,-0.52 0.218,-0.467L0.375,-0.467C0.382,-0.467 0.385,-0.463 0.385,-0.454C0.385,-0.445 0.382,-0.434 0.376,-0.423C0.37,-0.411 0.364,-0.405 0.36,-0.405L0.214,-0.405L0.213,-0.357C0.213,-0.342 0.213,-0.332 0.214,-0.325L0.375,-0.325C0.382,-0.325 0.385,-0.321 0.385,-0.313C0.385,-0.304 0.382,-0.293 0.376,-0.281C0.37,-0.269 0.364,-0.263 0.36,-0.263L0.217,-0.263Z" style="fill:white;fill-rule:nonzero;"/>
    </g>
</svg>
