<?xml version="1.0" encoding="UTF-8" standalone="no"?>
<!DOCTYPE svg PUBLIC "-//W3C//DTD SVG 1.1//EN" "http://www.w3.org/Graphics/SVG/1.1/DTD/svg11.dtd">
<svg width="100%" height="100%" viewBox="0 0 24 24" version="1.1" xmlns="http://www.w3.org/2000/svg" xmlns:xlink="http://www.w3.org/1999/xlink" xml:space="preserve" xmlns:serif="http://www.serif.com/" style="fill-rule:evenodd;clip-rule:evenodd;stroke-linejoin:round;stroke-miterlimit:2;">
    <g transform="matrix(-0.0323938,-0.0323938,-0.0359104,0.0359104,15.0836,16.079)">
        <path d="M123.652,80.382C123.652,73.861 117.783,68.567 110.555,68.567C103.326,68.567 97.458,73.861 97.458,80.382L97.458,250.127C97.458,256.648 103.326,261.941 110.555,261.941C117.783,261.941 123.652,256.648 123.652,250.127L123.652,80.382Z" style="fill:rgb(55,71,79);"/>
    </g>
    <g transform="matrix(-0.0458118,0,0,0.02076,7.58487,16.6421)">
        <path d="M123.652,97.469C123.652,81.517 117.783,68.567 110.555,68.567C103.326,68.567 97.458,81.517 97.458,97.469L97.458,233.04C97.458,248.991 103.326,261.941 110.555,261.941C117.783,261.941 123.652,248.991 123.652,233.04L123.652,97.469Z" style="fill:rgb(55,71,79);"/>
    </g>
    <g transform="matrix(0,0.0458118,-0.02076,0,7.3579,16.4151)">
        <path d="M123.652,97.469C123.652,81.517 117.783,68.567 110.555,68.567C103.326,68.567 97.458,81.517 97.458,97.469L97.458,233.04C97.458,248.991 103.326,261.941 110.555,261.941C117.783,261.941 123.652,248.991 123.652,233.04L123.652,97.469Z" style="fill:rgb(55,71,79);"/>
    </g>
    <g transform="matrix(-0.0323938,0.0323938,-0.0359104,-0.0359104,15.0836,7.92091)">
        <path d="M123.652,80.382C123.652,73.861 117.783,68.567 110.555,68.567C103.326,68.567 97.458,73.861 97.458,80.382L97.458,250.127C97.458,256.648 103.326,261.941 110.555,261.941C117.783,261.941 123.652,256.648 123.652,250.127L123.652,80.382Z" style="fill:rgb(55,71,79);"/>
    </g>
    <g transform="matrix(-0.0458118,0,0,-0.02076,7.58487,7.35778)">
        <path d="M123.652,97.469C123.652,81.517 117.783,68.567 110.555,68.567C103.326,68.567 97.458,81.517 97.458,97.469L97.458,233.04C97.458,248.991 103.326,261.941 110.555,261.941C117.783,261.941 123.652,248.991 123.652,233.04L123.652,97.469Z" style="fill:rgb(55,71,79);"/>
    </g>
    <g transform="matrix(0,-0.0458118,-0.02076,0,7.3579,7.58475)">
        <path d="M123.652,97.469C123.652,81.517 117.783,68.567 110.555,68.567C103.326,68.567 97.458,81.517 97.458,97.469L97.458,233.04C97.458,248.991 103.326,261.941 110.555,261.941C117.783,261.941 123.652,248.991 123.652,233.04L123.652,97.469Z" style="fill:rgb(55,71,79);"/>
    </g>
    <g transform="matrix(0.0323938,-0.0323938,0.0359104,0.0359104,8.91668,16.079)">
        <path d="M123.652,80.382C123.652,73.861 117.783,68.567 110.555,68.567C103.326,68.567 97.458,73.861 97.458,80.382L97.458,250.127C97.458,256.648 103.326,261.941 110.555,261.941C117.783,261.941 123.652,256.648 123.652,250.127L123.652,80.382Z" style="fill:rgb(55,71,79);"/>
    </g>
    <g transform="matrix(0.0458118,0,0,0.02076,16.4154,16.6421)">
        <path d="M123.652,97.469C123.652,81.517 117.783,68.567 110.555,68.567C103.326,68.567 97.458,81.517 97.458,97.469L97.458,233.04C97.458,248.991 103.326,261.941 110.555,261.941C117.783,261.941 123.652,248.991 123.652,233.04L123.652,97.469Z" style="fill:rgb(55,71,79);"/>
    </g>
    <g transform="matrix(0,0.0458118,0.02076,0,16.6424,16.4151)">
        <path d="M123.652,97.469C123.652,81.517 117.783,68.567 110.555,68.567C103.326,68.567 97.458,81.517 97.458,97.469L97.458,233.04C97.458,248.991 103.326,261.941 110.555,261.941C117.783,261.941 123.652,248.991 123.652,233.04L123.652,97.469Z" style="fill:rgb(55,71,79);"/>
    </g>
    <g transform="matrix(0.0323938,0.0323938,0.0359104,-0.0359104,8.91668,7.92075)">
        <path d="M123.652,80.382C123.652,73.861 117.783,68.567 110.555,68.567C103.326,68.567 97.458,73.861 97.458,80.382L97.458,250.127C97.458,256.648 103.326,261.941 110.555,261.941C117.783,261.941 123.652,256.648 123.652,250.127L123.652,80.382Z" style="fill:rgb(55,71,79);"/>
    </g>
    <g transform="matrix(0.0458118,0,0,-0.02076,16.4154,7.35761)">
        <path d="M123.652,97.469C123.652,81.517 117.783,68.567 110.555,68.567C103.326,68.567 97.458,81.517 97.458,97.469L97.458,233.04C97.458,248.991 103.326,261.941 110.555,261.941C117.783,261.941 123.652,248.991 123.652,233.04L123.652,97.469Z" style="fill:rgb(55,71,79);"/>
    </g>
    <g transform="matrix(0,-0.0458118,0.02076,0,16.6424,7.58459)">
        <path d="M123.652,97.469C123.652,81.517 117.783,68.567 110.555,68.567C103.326,68.567 97.458,81.517 97.458,97.469L97.458,233.04C97.458,248.991 103.326,261.941 110.555,261.941C117.783,261.941 123.652,248.991 123.652,233.04L123.652,97.469Z" style="fill:rgb(55,71,79);"/>
    </g>
</svg>
