<?xml version="1.0" encoding="UTF-8" standalone="no"?>
<!DOCTYPE svg PUBLIC "-//W3C//DTD SVG 1.1//EN" "http://www.w3.org/Graphics/SVG/1.1/DTD/svg11.dtd">
<svg width="100%" height="100%" viewBox="0 0 24 24" version="1.1" xmlns="http://www.w3.org/2000/svg" xmlns:xlink="http://www.w3.org/1999/xlink" xml:space="preserve" xmlns:serif="http://www.serif.com/" style="fill-rule:evenodd;clip-rule:evenodd;stroke-linejoin:round;stroke-miterlimit:2;">
    <g transform="matrix(0.048,0,0,0.048,0,0)">
        <path d="M453.047,51.736C460.185,61.692 464.388,73.89 464.388,87.062L464.388,412.938C464.388,446.454 437.177,473.664 403.662,473.664L77.785,473.664C64.614,473.664 52.416,469.461 42.459,462.324L453.047,51.736ZM34.813,455.828C23.846,444.841 17.059,429.676 17.059,412.938L17.059,87.062C17.059,53.546 44.27,26.336 77.785,26.336L403.662,26.336C420.399,26.336 435.564,33.122 446.552,44.09L34.813,455.828Z" style="fill:rgb(84,110,122);"/>
    </g>
    <g transform="matrix(0.0331404,0,0,0.0517948,3.06168,0.229865)">
        <path d="M141.371,70.906C141.371,64.513 133.259,59.322 123.267,59.322C113.274,59.322 105.162,64.513 105.162,70.906L105.162,213.377C105.162,219.771 113.274,224.961 123.267,224.961C133.259,224.961 141.371,219.771 141.371,213.377L141.371,70.906Z" style="fill:rgb(207,216,220);"/>
    </g>
    <g transform="matrix(2.02927e-18,0.0331404,-0.0517948,3.17151e-18,14.509,3.50696)">
        <path d="M141.371,70.906C141.371,64.513 133.259,59.322 123.267,59.322C113.274,59.322 105.162,64.513 105.162,70.906L105.162,213.377C105.162,219.771 113.274,224.961 123.267,224.961C133.259,224.961 141.371,219.771 141.371,213.377L141.371,70.906Z" style="fill:rgb(207,216,220);"/>
    </g>
    <g transform="matrix(2.02927e-18,0.0331404,-0.0517948,3.17151e-18,23.3249,12.291)">
        <path d="M141.371,70.906C141.371,64.513 133.259,59.322 123.267,59.322C113.274,59.322 105.162,64.513 105.162,70.906L105.162,213.377C105.162,219.771 113.274,224.961 123.267,224.961C133.259,224.961 141.371,219.771 141.371,213.377L141.371,70.906Z" style="fill:rgb(207,216,220);"/>
    </g>
</svg>
