<?xml version="1.0" encoding="UTF-8" standalone="no"?>
<!DOCTYPE svg PUBLIC "-//W3C//DTD SVG 1.1//EN" "http://www.w3.org/Graphics/SVG/1.1/DTD/svg11.dtd">
<svg width="100%" height="100%" viewBox="0 0 24 24" version="1.1" xmlns="http://www.w3.org/2000/svg" xmlns:xlink="http://www.w3.org/1999/xlink" xml:space="preserve" xmlns:serif="http://www.serif.com/" style="fill-rule:evenodd;clip-rule:evenodd;stroke-linejoin:round;stroke-miterlimit:2;">
    <g transform="matrix(0.0442781,0,0,0.0442781,5.52067,0.135462)">
        <path d="M174.298,304.605C203.946,311.449 329.742,311.475 345.829,311.614C345.829,311.614 351.876,251.698 336.642,134.993C333.334,109.646 320.646,55.881 257.704,55.881C194.762,55.881 177.591,112.892 174.298,148.317C169.287,202.225 174.298,304.605 174.298,304.605Z" style="fill:rgb(107,84,59);"/>
    </g>
    <g transform="matrix(0.0337705,0,0,0.0648934,8.37489,-5.57286)">
        <path d="M289.915,233.224L216.826,233.224L216.826,277.187C216.826,283.938 202.968,287.81 202.968,287.81L216.826,325.224L289.915,325.224L307.682,286.942C307.682,286.942 289.915,284.857 289.915,277.793L289.915,233.224Z" style="fill:rgb(189,137,61);"/>
    </g>
    <g transform="matrix(0.0388604,0,0,0.0442781,6.91684,-0.30732)">
        <path d="M328.582,139.247C328.582,104.915 296.823,77.042 257.704,77.042C218.585,77.042 186.826,104.915 186.826,139.247L186.826,216.685C186.826,251.017 218.585,278.891 257.704,278.891C296.823,278.891 328.582,251.017 328.582,216.685L328.582,139.247Z" style="fill:rgb(255,183,78);"/>
    </g>
    <g transform="matrix(0.0442781,0,0,0.0442781,5.4504,-0.395876)">
        <circle cx="227.08" cy="186.633" r="8.667" style="fill:rgb(121,72,26);"/>
    </g>
    <g transform="matrix(0.0442781,0,0,0.0442781,8.30289,-0.395876)">
        <circle cx="227.08" cy="186.633" r="8.667" style="fill:rgb(121,72,26);"/>
    </g>
    <g transform="matrix(0.0442781,0,0,0.0442781,5.52067,0.135462)">
        <path d="M186.826,165.966C216.474,172.81 259.227,144.735 289.915,115.562C293.669,137.044 312.495,158.638 328.582,158.777C328.582,158.777 335.472,149 336.338,142.581C339.341,120.321 320.646,55.881 257.704,55.881C194.762,55.881 174.298,112.739 174.298,148.317C174.298,163.807 186.826,165.966 186.826,165.966Z" style="fill:rgb(107,84,59);"/>
    </g>
    <g transform="matrix(0.0442781,0,0,0.0442781,5.52067,-0.30732)">
        <path d="M143.753,416.224C124.476,416.224 112.072,402.326 116.708,383.615C128.782,334.888 167.9,299.224 221.159,299.224L259.542,352.419L296.843,299.224C350.102,299.224 389.221,334.888 401.295,383.615C405.931,402.326 393.526,416.224 374.25,416.224L143.753,416.224Z" style="fill:rgb(246,122,168);"/>
    </g>
    <g transform="matrix(0.0442781,0,0,0.0442781,-4.19808,-0.764883)">
        <rect x="216.826" y="233.224" width="73.089" height="92" style="fill:rgb(189,137,61);"/>
    </g>
    <g transform="matrix(0.0442781,0,0,0.0442781,-4.38996,-0.30732)">
        <path d="M328.582,147.92C328.582,108.801 296.823,77.042 257.704,77.042C218.585,77.042 186.826,108.801 186.826,147.92L186.826,208.012C186.826,247.131 218.585,278.891 257.704,278.891C296.823,278.891 328.582,247.131 328.582,208.012L328.582,147.92Z" style="fill:rgb(255,183,78);"/>
    </g>
    <g transform="matrix(0.0442781,0,0,0.0442781,-4.35653,0.135462)">
        <ellipse cx="181.433" cy="183.359" rx="14.638" ry="19.26" style="fill:rgb(255,183,78);"/>
    </g>
    <g transform="matrix(0.0442781,0,0,0.0442781,2.3309,0.135462)">
        <ellipse cx="181.433" cy="183.359" rx="14.638" ry="19.26" style="fill:rgb(255,183,78);"/>
    </g>
    <g transform="matrix(0.0442781,0,0,0.0442781,-4.46023,-0.395876)">
        <circle cx="227.08" cy="186.633" r="8.667" style="fill:rgb(121,72,26);"/>
    </g>
    <g transform="matrix(0.0442781,0,0,0.0442781,-1.60774,-0.395876)">
        <circle cx="227.08" cy="186.633" r="8.667" style="fill:rgb(121,72,26);"/>
    </g>
    <g transform="matrix(0.0442781,0,0,0.0442781,-4.38996,0.135462)">
        <path d="M196.826,151.772C226.474,158.616 259.227,144.735 289.915,115.562C293.669,137.044 302.495,147.781 318.582,147.92L318.582,183.359C318.582,183.359 330.461,170.517 331.327,164.099C337.146,120.965 339.24,78.944 307.011,77.057C290.728,33.504 186.826,60.601 186.826,134.119L186.826,164.099C187.068,174.052 191.872,178.79 196.826,183.359L196.826,151.772Z" style="fill:rgb(67,67,67);"/>
    </g>
    <g transform="matrix(0.0442781,0,0,0.0442781,-4.38996,-0.30732)">
        <path d="M143.753,416.224C124.476,416.224 112.072,402.326 116.708,383.615C128.782,334.888 167.9,299.224 221.159,299.224L259.001,303.998L296.843,299.224C350.102,299.224 389.221,334.888 401.295,383.615C405.931,402.326 393.526,416.224 374.25,416.224L143.753,416.224Z" style="fill:rgb(207,216,220);"/>
    </g>
    <g transform="matrix(0.031881,0,0,0.031881,3.78413,12.4486)">
        <path d="M328.582,147.92C328.582,108.801 296.823,77.042 257.704,77.042C218.585,77.042 186.826,108.801 186.826,147.92L186.826,208.012C186.826,247.131 218.585,278.891 257.704,278.891C296.823,278.891 328.582,247.131 328.582,208.012L328.582,147.92Z" style="fill:rgb(255,183,78);"/>
    </g>
    <g transform="matrix(0.031881,0,0,0.031881,3.8082,12.7674)">
        <ellipse cx="181.433" cy="183.359" rx="14.638" ry="19.26" style="fill:rgb(255,183,78);"/>
    </g>
    <g transform="matrix(0.031881,0,0,0.031881,8.62326,12.7674)">
        <ellipse cx="181.433" cy="183.359" rx="14.638" ry="19.26" style="fill:rgb(255,183,78);"/>
    </g>
    <g transform="matrix(0.031881,0,0,0.031881,3.73353,12.3848)">
        <circle cx="227.08" cy="186.633" r="8.667" style="fill:rgb(121,72,26);"/>
    </g>
    <g transform="matrix(0.031881,0,0,0.031881,5.78738,12.3848)">
        <circle cx="227.08" cy="186.633" r="8.667" style="fill:rgb(121,72,26);"/>
    </g>
    <g transform="matrix(0.048,0,0,0.048,0.0503442,-0.176)">
        <path d="M242.929,320.302C242.929,320.302 236.777,306.037 245.529,290.352C247.574,286.688 251.549,287.852 250,291.752C244.584,305.395 250,313.102 250,313.102C250,313.102 252.212,302.158 260.638,298.702C264.326,297.19 266.253,301.038 262.729,302.902C257.04,305.914 255.129,319.302 255.129,319.302C254.239,325.693 245.287,325.646 242.929,320.302Z" style="fill:rgb(63,63,63);"/>
    </g>
</svg>
