<?xml version="1.0" encoding="UTF-8" standalone="no"?>
<!DOCTYPE svg PUBLIC "-//W3C//DTD SVG 1.1//EN" "http://www.w3.org/Graphics/SVG/1.1/DTD/svg11.dtd">
<svg width="100%" height="100%" viewBox="0 0 24 24" version="1.1" xmlns="http://www.w3.org/2000/svg" xmlns:xlink="http://www.w3.org/1999/xlink" xml:space="preserve" xmlns:serif="http://www.serif.com/" style="fill-rule:evenodd;clip-rule:evenodd;stroke-linejoin:round;stroke-miterlimit:2;">
    <g transform="matrix(0.0516941,0,0,0.0576047,-1.959,-0.696469)">
        <rect x="205.701" y="42.373" width="218.798" height="101.071" style="fill:rgb(239,235,233);"/>
    </g>
    <g transform="matrix(0.0515963,0,0,0.047927,-2.30481,0.507527)">
        <path d="M478.428,162.712C478.428,147.319 466.82,134.823 452.523,134.823L135.305,134.823C121.007,134.823 109.399,147.319 109.399,162.712L109.399,385.824C109.399,401.217 121.007,413.713 135.305,413.713L452.523,413.713C466.82,413.713 478.428,401.217 478.428,385.824L478.428,162.712Z" style="fill:rgb(70,91,101);"/>
    </g>
    <g transform="matrix(0.0381323,0,0,0.047927,-0.613027,0.876764)">
        <path d="M204.931,145.289C204.931,113.15 172.136,87.057 131.741,87.057C91.347,87.057 58.552,113.15 58.552,145.289L58.552,387.839C58.552,419.978 91.347,446.071 131.741,446.071C172.136,446.071 204.931,419.978 204.931,387.839L204.931,145.289Z" style="fill:rgb(97,126,139);"/>
    </g>
    <g transform="matrix(0.0516941,0,0,0.0622244,-1.959,-3.24711)">
        <path d="M424.499,204.545C424.499,198.805 418.89,194.145 411.98,194.145L218.22,194.145C211.311,194.145 205.701,198.805 205.701,204.545L205.701,225.347C205.701,231.087 211.311,235.747 218.22,235.747L411.98,235.747C418.89,235.747 424.499,231.087 424.499,225.347L424.499,204.545Z" style="fill:rgb(144,202,249);"/>
    </g>
    <g transform="matrix(0.0516941,0,0,0.0516941,-1.959,0.0318915)">
        <circle cx="224.576" cy="275.424" r="18.875" style="fill:rgb(144,164,174);"/>
    </g>
    <g transform="matrix(0.0516941,0,0,0.0516941,1.1607,0.0318915)">
        <circle cx="224.576" cy="275.424" r="18.875" style="fill:rgb(144,164,174);"/>
    </g>
    <g transform="matrix(0.0516941,0,0,0.0516941,7.4001,0.0318915)">
        <circle cx="224.576" cy="275.424" r="18.875" style="fill:rgb(144,164,174);"/>
    </g>
    <g transform="matrix(0.0516941,0,0,0.0516941,4.2804,0.0318915)">
        <circle cx="224.576" cy="275.424" r="18.875" style="fill:rgb(144,164,174);"/>
    </g>
    <g transform="matrix(0.0516941,0,0,0.0516941,-1.959,3.21797)">
        <circle cx="224.576" cy="275.424" r="18.875" style="fill:rgb(144,164,174);"/>
    </g>
    <g transform="matrix(0.0516941,0,0,0.0516941,1.1607,3.21797)">
        <circle cx="224.576" cy="275.424" r="18.875" style="fill:rgb(144,164,174);"/>
    </g>
    <g transform="matrix(0.0516941,0,0,0.0516941,7.4001,3.21797)">
        <circle cx="224.576" cy="275.424" r="18.875" style="fill:rgb(144,164,174);"/>
    </g>
    <g transform="matrix(0.0516941,0,0,0.0516941,4.2804,3.21797)">
        <circle cx="224.576" cy="275.424" r="18.875" style="fill:rgb(144,164,174);"/>
    </g>
</svg>
