<?xml version="1.0" encoding="UTF-8" standalone="no"?>
<!DOCTYPE svg PUBLIC "-//W3C//DTD SVG 1.1//EN" "http://www.w3.org/Graphics/SVG/1.1/DTD/svg11.dtd">
<svg width="100%" height="100%" viewBox="0 0 24 24" version="1.1" xmlns="http://www.w3.org/2000/svg" xmlns:xlink="http://www.w3.org/1999/xlink" xml:space="preserve" xmlns:serif="http://www.serif.com/" style="fill-rule:evenodd;clip-rule:evenodd;stroke-linejoin:round;stroke-miterlimit:2;">
    <g transform="matrix(0.0447944,0.0295963,-0.0295963,0.0447944,8.36949,-6.85213)">
        <path d="M167.712,116.364C170.42,59.928 210.396,23.883 259.245,23.883L259.838,23.885C310.164,24.185 350.924,62.792 350.924,122.512L350.924,280.431C350.924,287.929 264.68,383.757 259.378,389.059L259.112,389.059C253.81,383.757 167.565,287.929 167.565,280.431L167.565,188.278L248.638,269.351C251.565,272.278 256.318,272.278 259.245,269.351C262.172,266.424 262.172,261.671 259.245,258.744L167.565,167.065L167.565,137.43L216.102,185.967C219.029,188.894 223.782,188.894 226.709,185.967C229.636,183.04 229.636,178.287 226.709,175.36L167.712,116.364Z" style="fill:rgb(207,216,220);"/>
    </g>
    <g transform="matrix(0.0363394,0.02401,-0.0295963,0.0447944,10.2254,-5.62588)">
        <path d="M277.735,31.383C277.735,27.244 273.592,23.883 268.49,23.883C263.388,23.883 259.245,27.244 259.245,31.383L259.245,484.742C259.245,488.881 263.388,492.242 268.49,492.242C273.592,492.242 277.735,488.881 277.735,484.742L277.735,31.383Z" style="fill:rgb(98,98,98);"/>
    </g>
    <g transform="matrix(0.0426735,-0.00871822,0.00173085,0.00847209,-4.7803,18.0529)">
        <path d="M277.735,70.449C277.735,44.749 273.592,23.883 268.49,23.883C263.388,23.883 259.245,44.749 259.245,70.449L259.245,445.675C259.245,471.376 263.388,492.242 268.49,492.242C273.592,492.242 277.735,471.376 277.735,445.675L277.735,70.449Z" style="fill:rgb(98,98,98);"/>
    </g>
    <g transform="matrix(0.0426735,-0.00871822,0.00173085,0.00847209,-6.01158,19.9164)">
        <path d="M277.735,70.449C277.735,44.749 273.592,23.883 268.49,23.883C263.388,23.883 259.245,44.749 259.245,70.449L259.245,445.675C259.245,471.376 263.388,492.242 268.49,492.242C273.592,492.242 277.735,471.376 277.735,445.675L277.735,70.449Z" style="fill:rgb(98,98,98);"/>
    </g>
    <g transform="matrix(-0.00871822,-0.0426735,-0.00847209,0.00173085,13.8434,30.3578)">
        <path d="M277.735,70.449C277.735,44.749 273.592,23.883 268.49,23.883C263.388,23.883 259.245,44.749 259.245,70.449L259.245,445.675C259.245,471.376 263.388,492.242 268.49,492.242C273.592,492.242 277.735,471.376 277.735,445.675L277.735,70.449Z" style="fill:rgb(98,98,98);"/>
    </g>
    <g transform="matrix(-0.00871822,-0.0426735,-0.00847209,0.00173085,12.6121,32.2214)">
        <path d="M277.735,70.449C277.735,44.749 273.592,23.883 268.49,23.883C263.388,23.883 259.245,44.749 259.245,70.449L259.245,445.675C259.245,471.376 263.388,492.242 268.49,492.242C273.592,492.242 277.735,471.376 277.735,445.675L277.735,70.449Z" style="fill:rgb(98,98,98);"/>
    </g>
</svg>
