<?xml version="1.0" encoding="UTF-8" standalone="no"?>
<!DOCTYPE svg PUBLIC "-//W3C//DTD SVG 1.1//EN" "http://www.w3.org/Graphics/SVG/1.1/DTD/svg11.dtd">
<svg width="100%" height="100%" viewBox="0 0 24 24" version="1.1" xmlns="http://www.w3.org/2000/svg" xmlns:xlink="http://www.w3.org/1999/xlink" xml:space="preserve" xmlns:serif="http://www.serif.com/" style="fill-rule:evenodd;clip-rule:evenodd;stroke-linejoin:round;stroke-miterlimit:2;">
    <g transform="matrix(0.048,0,0,0.048,0,0)">
        <path d="M318.228,375.483L318.228,375.454C318.228,368.555 323.829,362.954 330.728,362.954C337.626,362.954 343.228,368.555 343.228,375.454L343.228,465.154L343.208,465.154C342.845,471.727 337.392,476.954 330.728,476.954C324.063,476.954 318.61,471.727 318.247,465.154L318.228,465.154L318.228,375.483L318.228,375.483ZM159.873,465.154L159.854,465.154L159.854,230.74C159.854,180.136 200.938,139.053 251.541,139.053C302.144,139.053 343.228,180.136 343.228,230.74L343.228,325.654L343.226,325.654C343.119,332.461 337.56,337.954 330.728,337.954C323.896,337.954 318.336,332.461 318.229,325.654L318.228,325.654L318.228,230.74C318.228,193.934 288.346,164.053 251.541,164.053C214.735,164.053 184.854,193.934 184.854,230.74L184.854,465.154L184.835,465.154C184.472,471.727 179.019,476.954 172.354,476.954C165.69,476.954 160.237,471.727 159.873,465.154ZM237.528,410.617C237.528,403.999 243.383,398.954 250,398.954C256.617,398.954 262.472,403.999 262.472,410.617L262.446,448.617C262.446,455.124 256.507,459.954 250,459.954C243.493,459.954 237.554,454.939 237.554,448.617L237.528,410.617ZM378.897,319.237C378.895,319.152 378.894,319.067 378.894,318.983C378.894,312.084 384.495,306.483 391.394,306.483C398.293,306.483 403.894,312.084 403.894,318.983C403.894,319.067 403.893,319.152 403.892,319.237L403.894,319.237L403.76,428.816C403.761,434.514 397.67,439.483 391.394,439.483C385.118,439.483 379.028,435.092 379.028,428.816L378.894,319.237L378.897,319.237ZM251.541,17.72C258.44,17.72 264.041,23.321 264.041,30.22C264.041,37.119 258.44,42.72 251.541,42.72C147.77,42.72 63.521,126.969 63.521,230.74L63.521,423.454L63.519,423.454C63.393,430.245 57.841,435.72 51.021,435.72C44.201,435.72 38.649,430.245 38.523,423.454L38.521,423.454L38.521,230.74C38.521,113.171 133.972,17.72 251.541,17.72ZM439.561,354.139C439.605,347.277 445.189,341.72 452.061,341.72C458.96,341.72 464.561,347.321 464.561,354.22L464.561,424.121L464.529,424.121C464.067,430.599 458.657,435.72 452.061,435.72C445.465,435.72 440.055,430.599 439.593,424.121L439.561,424.121L439.561,354.22L439.561,354.139ZM99.226,367.941C99.169,367.335 99.187,366.962 99.187,366.962L99.187,230.74C99.187,198.61 109.155,168.791 126.167,144.2L126.286,144.288C128.528,140.932 132.351,138.72 136.687,138.72C143.586,138.72 149.187,144.321 149.187,151.22C149.187,154.519 147.906,157.522 145.814,159.757C132.158,180.049 124.187,204.471 124.187,230.74L124.187,366.983C124.187,366.983 124.206,367.362 124.147,367.975C124.173,368.302 124.186,368.632 124.186,368.966C124.186,375.865 118.585,381.466 111.685,381.466C104.786,381.466 99.185,375.865 99.185,368.966C99.185,368.621 99.199,368.279 99.226,367.941ZM237.5,350.483L237.5,350.483L237.5,212.22C237.5,205.321 243.101,199.72 250,199.72C256.899,199.72 262.5,205.321 262.5,212.22L262.5,350.483L262.5,350.483C262.484,357.369 256.889,362.954 250,362.954C243.111,362.954 237.516,357.369 237.5,350.483ZM439.561,230.74C439.561,160.348 400.795,98.94 343.468,66.718C339.005,64.809 335.874,60.377 335.874,55.22C335.874,48.321 341.475,42.72 348.374,42.72C350.882,42.72 353.218,43.46 355.176,44.733L355.227,44.649C420.437,81.094 464.561,150.804 464.561,230.74L464.561,298.22C464.561,305.119 458.96,310.72 452.061,310.72C445.162,310.72 439.561,305.119 439.561,298.22L439.561,230.74ZM192.575,90.487L192.477,90.276C210.647,82.619 230.603,78.386 251.541,78.386C335.627,78.386 403.894,146.653 403.894,230.74L403.894,262.987L403.885,262.987C403.628,269.661 398.13,275 391.394,275C384.659,275 379.16,269.661 378.904,262.987L378.894,262.987L378.894,230.74C378.894,160.451 321.829,103.386 251.541,103.386C234.945,103.386 219.086,106.568 204.535,112.356C202.571,113.64 200.226,114.386 197.707,114.386C190.809,114.386 185.207,108.785 185.207,101.886C185.207,96.816 188.233,92.447 192.575,90.487Z" style="fill:rgb(70,91,101);"/>
    </g>
</svg>
