<?xml version="1.0" encoding="UTF-8" standalone="no"?>
<!DOCTYPE svg PUBLIC "-//W3C//DTD SVG 1.1//EN" "http://www.w3.org/Graphics/SVG/1.1/DTD/svg11.dtd">
<svg width="100%" height="100%" viewBox="0 0 24 24" version="1.1" xmlns="http://www.w3.org/2000/svg" xmlns:xlink="http://www.w3.org/1999/xlink" xml:space="preserve" xmlns:serif="http://www.serif.com/" style="fill-rule:evenodd;clip-rule:evenodd;stroke-linejoin:round;stroke-miterlimit:2;">
    <g transform="matrix(5.78553e-18,0.0944849,-0.130953,8.01857e-18,31.6354,-11.694)">
        <rect x="239.214" y="66.448" width="23.112" height="166.988" style="fill:rgb(70,91,101);"/>
    </g>
    <g transform="matrix(0.0515372,0,0,0.0451866,-0.941278,-0.254006)">
        <path d="M109.784,174.287C109.784,161.435 100.636,151.002 89.368,151.002C78.1,151.002 68.952,161.435 68.952,174.287L68.952,368.086C68.952,380.938 78.1,391.371 89.368,391.371C100.636,391.371 109.784,380.938 109.784,368.086L109.784,174.287Z" style="fill:rgb(121,144,156);"/>
    </g>
    <g transform="matrix(0.0515372,0,0,0.0611178,1.16309,-4.57433)">
        <path d="M109.784,168.217C109.784,158.716 100.636,151.002 89.368,151.002C78.1,151.002 68.952,158.716 68.952,168.217L68.952,374.156C68.952,383.657 78.1,391.371 89.368,391.371C100.636,391.371 109.784,383.657 109.784,374.156L109.784,168.217Z" style="fill:rgb(121,144,156);"/>
    </g>
    <g transform="matrix(-0.0515372,0,0,0.0451866,24.9413,-0.254006)">
        <path d="M109.784,174.287C109.784,161.435 100.636,151.002 89.368,151.002C78.1,151.002 68.952,161.435 68.952,174.287L68.952,368.086C68.952,380.938 78.1,391.371 89.368,391.371C100.636,391.371 109.784,380.938 109.784,368.086L109.784,174.287Z" style="fill:rgb(121,144,156);"/>
    </g>
    <g transform="matrix(-0.0515372,0,0,0.0611178,22.8369,-4.57433)">
        <path d="M109.784,168.217C109.784,158.716 100.636,151.002 89.368,151.002C78.1,151.002 68.952,158.716 68.952,168.217L68.952,374.156C68.952,383.657 78.1,391.371 89.368,391.371C100.636,391.371 109.784,383.657 109.784,374.156L109.784,168.217Z" style="fill:rgb(121,144,156);"/>
    </g>
</svg>
