<?xml version="1.0" encoding="UTF-8" standalone="no"?>
<!DOCTYPE svg PUBLIC "-//W3C//DTD SVG 1.1//EN" "http://www.w3.org/Graphics/SVG/1.1/DTD/svg11.dtd">
<svg width="100%" height="100%" viewBox="0 0 24 24" version="1.1" xmlns="http://www.w3.org/2000/svg" xmlns:xlink="http://www.w3.org/1999/xlink" xml:space="preserve" xmlns:serif="http://www.serif.com/" style="fill-rule:evenodd;clip-rule:evenodd;stroke-linejoin:round;stroke-miterlimit:2;">
    <g transform="matrix(0.0825621,0,0,0.0825621,-9.2204,-16.4423)">
        <path d="M256.934,475.732C207.092,475.732 144.743,428.674 161.153,368.906C171.28,332.023 198.535,318.088 228.877,297.747C278.527,264.461 259.244,213.26 259.244,213.26C259.244,213.26 380.392,296.692 350.964,411.197C341.577,447.722 294.645,475.732 256.934,475.732Z" style="fill:rgb(255,62,1);"/>
    </g>
    <g transform="matrix(0.048,0,0,0.048,-0.149483,1.36424e-15)">
        <path d="M256.934,475.732C207.092,475.732 158.984,437.395 175.394,377.627C185.521,340.744 219.659,312.468 250,292.127C299.65,258.841 285.894,213.26 285.894,213.26C285.894,213.26 376.323,292.623 346.894,407.127C337.507,443.652 294.645,475.732 256.934,475.732Z" style="fill:rgb(251,192,46);"/>
    </g>
</svg>
