<?xml version="1.0" encoding="UTF-8" standalone="no"?>
<!DOCTYPE svg PUBLIC "-//W3C//DTD SVG 1.1//EN" "http://www.w3.org/Graphics/SVG/1.1/DTD/svg11.dtd">
<svg width="100%" height="100%" viewBox="0 0 24 24" version="1.1" xmlns="http://www.w3.org/2000/svg" xmlns:xlink="http://www.w3.org/1999/xlink" xml:space="preserve" xmlns:serif="http://www.serif.com/" style="fill-rule:evenodd;clip-rule:evenodd;stroke-linejoin:round;stroke-miterlimit:2;">
    <g transform="matrix(0.0339411,0.0339411,-0.0339411,0.0339411,11.0624,-2.33968)">
        <path d="M281.202,216.68C281.202,200.841 268.343,187.982 252.504,187.982L195.108,187.982C179.269,187.982 166.41,200.841 166.41,216.68L166.41,445.878C166.41,461.717 179.269,474.576 195.108,474.576L252.504,474.576C268.343,474.576 281.202,461.717 281.202,445.878L281.202,216.68Z" style="fill:rgb(121,144,156);"/>
    </g>
    <g transform="matrix(0.0339411,0.0339411,-0.0339411,0.0339411,11.0624,-2.33968)">
        <path d="M307.377,216.103C306.585,235.479 281.202,251.125 281.202,251.125L166.41,251.125C166.41,251.125 141.027,235.479 140.235,216.103L307.377,216.103Z" style="fill:rgb(70,91,101);"/>
    </g>
    <g transform="matrix(0.0339411,0.0339411,-0.0339411,0.0339411,11.0624,-2.33968)">
        <path d="M140.235,216.103C140.222,215.794 140.216,215.486 140.216,215.177L140.216,140.755C140.216,131.953 147.362,124.807 156.163,124.807L291.448,124.807C300.25,124.807 307.396,131.953 307.396,140.755L307.396,215.177C307.396,215.486 307.39,215.794 307.377,216.103L140.235,216.103Z" style="fill:rgb(121,144,156);"/>
    </g>
    <g transform="matrix(0.044271,0.044271,-0.0339411,0.0339411,7.54927,-3.60071)">
        <path d="M233.171,243.614C233.171,238.095 229.735,233.614 225.504,233.614C221.273,233.614 217.837,238.095 217.837,243.614L217.837,282.103C217.837,287.622 221.273,292.103 225.504,292.103C229.735,292.103 233.171,287.622 233.171,282.103L233.171,243.614Z" style="fill:rgb(70,91,101);"/>
    </g>
    <g transform="matrix(0.0328789,0.0328789,-0.0328789,0.0328789,11.0061,-1.82919)">
        <circle cx="224.129" cy="277.113" r="10.323" style="fill:rgb(255,183,78);"/>
    </g>
    <g transform="matrix(0.0339411,0.0339411,-0.0249844,0.0249844,9.89353,-1.34752)">
        <path d="M318.409,122.531C318.409,115.908 314.451,110.531 309.575,110.531L143.242,110.531C138.367,110.531 134.409,115.908 134.409,122.531L134.409,146.531C134.409,153.154 138.367,158.531 143.242,158.531L309.575,158.531C314.451,158.531 318.409,153.154 318.409,146.531L318.409,122.531Z" style="fill:rgb(70,91,101);"/>
    </g>
    <g transform="matrix(0.0234438,0.0234438,-0.0282843,0.0282843,13.2558,-0.0443185)">
        <path d="M250,-28.802C250,-37.081 241.891,-43.802 231.903,-43.802C221.915,-43.802 213.806,-37.081 213.806,-28.802L213.806,79.198C213.806,87.477 221.915,94.198 231.903,94.198C241.891,94.198 250,87.477 250,79.198L250,-28.802Z" style="fill:rgb(255,193,8);"/>
    </g>
    <g transform="matrix(0.0287127,0.0165773,-0.02,0.034641,9.44931,-0.988006)">
        <path d="M250,-28.802C250,-37.081 241.891,-43.802 231.903,-43.802C221.915,-43.802 213.806,-37.081 213.806,-28.802L213.806,79.198C213.806,87.477 221.915,94.198 231.903,94.198C241.891,94.198 250,87.477 250,79.198L250,-28.802Z" style="fill:rgb(255,193,8);"/>
    </g>
    <g transform="matrix(0.0165773,0.0287127,-0.034641,0.02,17.3842,1.31844)">
        <path d="M250,-28.802C250,-37.081 241.891,-43.802 231.903,-43.802C221.915,-43.802 213.806,-37.081 213.806,-28.802L213.806,79.198C213.806,87.477 221.915,94.198 231.903,94.198C241.891,94.198 250,87.477 250,79.198L250,-28.802Z" style="fill:rgb(255,193,8);"/>
    </g>
</svg>
