<?xml version="1.0" encoding="UTF-8" standalone="no"?>
<!DOCTYPE svg PUBLIC "-//W3C//DTD SVG 1.1//EN" "http://www.w3.org/Graphics/SVG/1.1/DTD/svg11.dtd">
<svg width="100%" height="100%" viewBox="0 0 24 24" version="1.1" xmlns="http://www.w3.org/2000/svg" xmlns:xlink="http://www.w3.org/1999/xlink" xml:space="preserve" xmlns:serif="http://www.serif.com/" style="fill-rule:evenodd;clip-rule:evenodd;stroke-linejoin:round;stroke-miterlimit:2;">
    <g transform="matrix(0.048,0,0,0.048,-0.03698,0)">
        <rect x="239.214" y="66.448" width="23.112" height="166.988" style="fill:rgb(85,111,123);"/>
    </g>
    <g transform="matrix(0.048,0,0,0.025301,7.64099,6.09383)">
        <rect x="239.214" y="66.448" width="23.112" height="166.988" style="fill:rgb(85,111,123);"/>
    </g>
    <g transform="matrix(0.048,0,0,0.025301,-8.11248,6.09383)">
        <rect x="239.214" y="66.448" width="23.112" height="166.988" style="fill:rgb(85,111,123);"/>
    </g>
    <g transform="matrix(0.048,0,0,0.048,-0.03698,8.93529)">
        <rect x="239.214" y="66.448" width="23.112" height="166.988" style="fill:rgb(85,111,123);"/>
    </g>
    <g transform="matrix(2.93915e-18,0.048,-0.0967197,5.92237e-18,26.5024,-3.70724)">
        <rect x="239.214" y="66.448" width="23.112" height="166.988" style="fill:rgb(85,111,123);"/>
    </g>
    <g transform="matrix(0.048,0,0,0.048,-9.17565,8.94453)">
        <path d="M343.22,48.536C343.22,38.757 335.28,30.817 325.501,30.817L236.903,30.817C227.123,30.817 219.183,38.757 219.183,48.536L219.183,83.975C219.183,93.755 227.123,101.695 236.903,101.695L325.501,101.695C335.28,101.695 343.22,93.755 343.22,83.975L343.22,48.536Z" style="fill:rgb(255,193,8);"/>
    </g>
    <g transform="matrix(0.048,0,0,0.048,-0.600924,-0.1849)">
        <circle cx="262.519" cy="70.3" r="49.499" style="fill:rgb(244,68,55);"/>
    </g>
    <g transform="matrix(0.048,0,0,0.048,-1.49769,8.94453)">
        <path d="M343.22,48.536C343.22,38.757 335.28,30.817 325.501,30.817L236.903,30.817C227.123,30.817 219.183,38.757 219.183,48.536L219.183,83.975C219.183,93.755 227.123,101.695 236.903,101.695L325.501,101.695C335.28,101.695 343.22,93.755 343.22,83.975L343.22,48.536Z" style="fill:rgb(255,193,8);"/>
    </g>
    <g transform="matrix(0.048,0,0,0.048,-1.49769,17.1217)">
        <path d="M343.22,48.536C343.22,38.757 335.28,30.817 325.501,30.817L236.903,30.817C227.123,30.817 219.183,38.757 219.183,48.536L219.183,83.975C219.183,93.755 227.123,101.695 236.903,101.695L325.501,101.695C335.28,101.695 343.22,93.755 343.22,83.975L343.22,48.536Z" style="fill:rgb(149,118,205);"/>
    </g>
    <g transform="matrix(0.048,0,0,0.048,6.18028,8.94453)">
        <path d="M343.22,48.536C343.22,38.757 335.28,30.817 325.501,30.817L236.903,30.817C227.123,30.817 219.183,38.757 219.183,48.536L219.183,83.975C219.183,93.755 227.123,101.695 236.903,101.695L325.501,101.695C335.28,101.695 343.22,93.755 343.22,83.975L343.22,48.536Z" style="fill:rgb(255,193,8);"/>
    </g>
</svg>
