<?xml version="1.0" encoding="UTF-8" standalone="no"?>
<!DOCTYPE svg PUBLIC "-//W3C//DTD SVG 1.1//EN" "http://www.w3.org/Graphics/SVG/1.1/DTD/svg11.dtd">
<svg width="100%" height="100%" viewBox="0 0 24 24" version="1.1" xmlns="http://www.w3.org/2000/svg" xmlns:xlink="http://www.w3.org/1999/xlink" xml:space="preserve" xmlns:serif="http://www.serif.com/" style="fill-rule:evenodd;clip-rule:evenodd;stroke-linejoin:round;stroke-miterlimit:2;">
    <g transform="matrix(0.0456896,0,0,0.0456896,0.0496,2.68663)">
        <path d="M273.112,154.854C273.112,148.476 267.934,143.297 261.556,143.297C255.178,143.297 250,148.476 250,154.854L250,431.433C250,437.811 255.178,442.989 261.556,442.989C267.934,442.989 273.112,437.811 273.112,431.433L273.112,154.854Z" style="fill:rgb(125,179,67);"/>
    </g>
    <g transform="matrix(0.0282524,0.0163115,-0.0137533,0.0238213,10.6948,5.92733)">
        <path d="M312.404,193.529C308.759,250.22 215.331,314.478 215.331,366.313C215.331,406.506 242.845,439.137 276.733,439.137C310.622,439.137 338.136,406.506 338.136,366.313C338.136,314.478 320.846,226.326 312.404,193.529Z" style="fill:rgb(57,142,61);"/>
    </g>
    <g transform="matrix(0.0497778,0,0,0.0497778,0.0732751,-1.66478)">
        <path d="M215.422,76.565C215.422,63.222 226.256,52.388 239.599,52.388C252.943,52.388 263.776,63.222 263.776,76.565C270.448,65.009 285.247,61.044 296.803,67.716C308.359,74.388 312.324,89.186 305.652,100.742C317.208,94.07 332.007,98.036 338.679,109.592C345.35,121.148 341.385,135.946 329.829,142.618C343.173,142.618 354.006,153.451 354.006,166.795C354.006,180.139 343.173,190.972 329.829,190.972C341.385,197.644 345.35,212.443 338.679,223.998C332.007,235.554 317.208,239.52 305.652,232.848C312.324,244.404 308.359,259.202 296.803,265.874C285.247,272.546 270.448,268.581 263.776,257.025C263.776,270.369 252.943,281.202 239.599,281.202C226.256,281.202 215.422,270.369 215.422,257.025C208.751,268.581 193.952,272.546 182.396,265.874C170.84,259.202 166.875,244.404 173.547,232.848C161.991,239.52 147.192,235.554 140.52,223.998C133.848,212.443 137.814,197.644 149.37,190.972C136.026,190.972 125.193,180.139 125.193,166.795C125.193,153.451 136.026,142.618 149.37,142.618C137.814,135.946 133.848,121.148 140.52,109.592C147.192,98.036 161.991,94.07 173.547,100.742C166.875,89.186 170.84,74.388 182.396,67.716C193.952,61.044 208.751,65.009 215.422,76.565Z" style="fill:rgb(149,118,205);"/>
    </g>
    <g transform="matrix(0.0497778,0,0,0.0497778,-0.617018,-1.24294)">
        <circle cx="253.467" cy="158.32" r="65.1" style="fill:rgb(255,220,1);"/>
    </g>
</svg>
