<?xml version="1.0" encoding="UTF-8" standalone="no"?>
<!DOCTYPE svg PUBLIC "-//W3C//DTD SVG 1.1//EN" "http://www.w3.org/Graphics/SVG/1.1/DTD/svg11.dtd">
<svg width="100%" height="100%" viewBox="0 0 24 24" version="1.1" xmlns="http://www.w3.org/2000/svg" xmlns:xlink="http://www.w3.org/1999/xlink" xml:space="preserve" xmlns:serif="http://www.serif.com/" style="fill-rule:evenodd;clip-rule:evenodd;stroke-linejoin:round;stroke-miterlimit:2;">
    <g transform="matrix(0.048,0,0,0.048,0,0)">
        <path d="M25.039,402.542L25.039,99.769C25.039,83.186 38.502,69.723 55.085,69.723L149.461,69.723C166.044,69.723 179.507,83.186 179.507,99.769L179.507,111.325L442.604,111.325C460.463,111.325 474.961,125.824 474.961,143.683L474.961,402.542C474.961,420.401 460.463,434.9 442.604,434.9L57.396,434.9C39.537,434.9 25.039,420.401 25.039,402.542Z" style="fill:rgb(206,140,0);"/>
    </g>
    <g transform="matrix(-8.81746e-18,0.048,-0.048,-8.81746e-18,25.68,4.45899)">
        <path d="M223.209,89.585L309.002,175.378L309.002,462.058C309.002,472.19 300.776,480.415 290.645,480.415L50.23,480.415C40.099,480.415 31.874,472.19 31.874,462.058L31.874,107.942C31.874,97.81 40.099,89.585 50.23,89.585L223.209,89.585Z" style="fill:rgb(224,227,231);"/>
    </g>
    <g transform="matrix(-8.81746e-18,0.048,-0.048,-8.81746e-18,25.68,5.08299)">
        <path d="M223.209,89.585L309.002,175.378L309.002,462.058C309.002,472.19 300.776,480.415 290.645,480.415L50.23,480.415C40.099,480.415 31.874,472.19 31.874,462.058L31.874,107.942C31.874,97.81 40.099,89.585 50.23,89.585L223.209,89.585Z" style="fill:rgb(248,248,248);"/>
    </g>
    <g transform="matrix(2.8708e-18,-0.0468837,0.048,2.93915e-18,-0.0924499,25.4805)">
        <path d="M388.555,59.322C388.555,41.463 373.71,26.965 355.427,26.965L131.356,26.965C113.072,26.965 98.228,41.463 98.228,59.322L98.228,444.53C98.228,462.389 113.072,476.888 131.356,476.888L355.427,476.888C373.71,476.888 388.555,462.389 388.555,444.53L388.555,59.322Z" style="fill:rgb(248,195,65);"/>
    </g>
</svg>
