<?xml version="1.0" encoding="UTF-8" standalone="no"?>
<!DOCTYPE svg PUBLIC "-//W3C//DTD SVG 1.1//EN" "http://www.w3.org/Graphics/SVG/1.1/DTD/svg11.dtd">
<svg width="100%" height="100%" viewBox="0 0 24 24" version="1.1" xmlns="http://www.w3.org/2000/svg" xmlns:xlink="http://www.w3.org/1999/xlink" xml:space="preserve" xmlns:serif="http://www.serif.com/" style="fill-rule:evenodd;clip-rule:evenodd;stroke-linejoin:round;stroke-miterlimit:2;">
    <g transform="matrix(22.7468,0,0,22.7468,0.187586,20.4191)">
        <path d="M0.536,-0.081L0.502,-0.171L0.211,-0.171L0.177,-0.079C0.163,-0.043 0.152,-0.019 0.143,-0.007C0.133,0.006 0.118,0.012 0.096,0.012C0.078,0.012 0.062,0.006 0.048,-0.008C0.034,-0.021 0.027,-0.036 0.027,-0.053C0.027,-0.063 0.028,-0.073 0.032,-0.083C0.035,-0.094 0.04,-0.108 0.048,-0.127L0.231,-0.592C0.236,-0.605 0.242,-0.621 0.25,-0.64C0.257,-0.659 0.265,-0.674 0.273,-0.687C0.281,-0.699 0.292,-0.709 0.306,-0.717C0.319,-0.724 0.336,-0.728 0.356,-0.728C0.376,-0.728 0.393,-0.724 0.406,-0.717C0.42,-0.709 0.431,-0.699 0.439,-0.687C0.448,-0.675 0.455,-0.662 0.46,-0.648C0.466,-0.634 0.473,-0.616 0.482,-0.593L0.669,-0.131C0.684,-0.096 0.691,-0.07 0.691,-0.054C0.691,-0.038 0.684,-0.022 0.67,-0.009C0.656,0.005 0.64,0.012 0.62,0.012C0.609,0.012 0.599,0.01 0.591,0.006C0.583,0.002 0.576,-0.003 0.57,-0.01C0.565,-0.017 0.559,-0.028 0.552,-0.043C0.546,-0.057 0.541,-0.07 0.536,-0.081ZM0.249,-0.28L0.463,-0.28L0.355,-0.575L0.249,-0.28Z" style="fill:rgb(97,126,139);fill-rule:nonzero;"/>
    </g>
    <g transform="matrix(0.048,0,0,0.048,0,0)">
        <path d="M317.567,327.344C324.289,323.181 332.134,320.124 341.105,318.17C344.31,317.431 352.259,315.767 364.954,313.179C377.649,310.591 388.525,308.218 397.584,306.061C406.643,303.904 416.472,301.285 427.072,298.204C426.455,284.893 423.775,275.126 419.03,268.902C414.285,262.677 404.455,259.565 389.542,259.565C376.724,259.565 367.08,261.353 360.609,264.927C354.139,268.501 348.593,273.862 343.971,281.011C339.349,288.159 336.083,292.874 334.173,295.154C332.262,297.434 328.164,298.574 321.878,298.574C316.209,298.574 311.31,296.756 307.181,293.12C303.052,289.484 300.988,284.832 300.988,279.162C300.988,270.288 304.131,261.661 310.416,253.28C316.702,244.899 326.5,237.997 339.811,232.574C353.122,227.151 369.699,224.439 389.542,224.439C411.727,224.439 429.167,227.058 441.862,232.297C454.556,237.535 463.523,245.823 468.761,257.162C473.999,268.501 476.618,283.537 476.618,302.271C476.618,314.103 476.587,324.148 476.525,332.406C476.464,340.663 476.371,349.845 476.248,359.952C476.248,369.442 477.819,379.333 480.962,389.624C484.105,399.915 485.677,406.54 485.677,409.498C485.677,414.675 483.242,419.389 478.374,423.641C473.506,427.893 467.99,430.019 461.828,430.019C456.651,430.019 451.537,427.585 446.483,422.717C441.43,417.848 436.069,410.792 430.399,401.549C418.198,411.039 406.397,418.156 394.996,422.901C383.595,427.647 370.808,430.019 356.635,430.019C348.061,430.019 340.177,428.897 332.984,426.651C342.785,414.515 345.899,397.562 339.652,382.079L317.567,327.344ZM427.072,328.523C419.677,331.235 408.923,334.1 394.811,337.12C380.699,340.14 370.932,342.358 365.509,343.775C360.086,345.193 354.909,347.966 349.979,352.095C345.049,356.224 342.584,361.986 342.584,369.38C342.584,377.022 345.481,383.523 351.273,388.885C357.066,394.246 364.646,396.927 374.013,396.927C383.996,396.927 393.209,394.739 401.651,390.364C410.094,385.988 416.287,380.35 420.231,373.448C424.792,365.806 427.072,353.235 427.072,335.733L427.072,328.523Z" style="fill:rgb(70,91,101);fill-rule:nonzero;"/>
    </g>
</svg>
