<?xml version="1.0" encoding="UTF-8" standalone="no"?>
<!DOCTYPE svg PUBLIC "-//W3C//DTD SVG 1.1//EN" "http://www.w3.org/Graphics/SVG/1.1/DTD/svg11.dtd">
<svg width="100%" height="100%" viewBox="0 0 24 24" version="1.1" xmlns="http://www.w3.org/2000/svg" xmlns:xlink="http://www.w3.org/1999/xlink" xml:space="preserve" xmlns:serif="http://www.serif.com/" style="fill-rule:evenodd;clip-rule:evenodd;stroke-linejoin:round;stroke-miterlimit:2;">
    <g transform="matrix(0.0454517,0,0,0.0454517,0.637086,0.637086)">
        <circle cx="250" cy="250" r="226.029" style="fill:white;"/>
    </g>
    <g transform="matrix(0.048,0,0,0.048,0,0)">
        <path d="M250,23.971C374.749,23.971 476.029,125.251 476.029,250C476.029,374.749 374.749,476.029 250,476.029C125.251,476.029 23.971,374.749 23.971,250C23.971,125.251 125.251,23.971 250,23.971ZM308.346,445.55L330.02,376.136L278.873,308.83L222.289,308.83L168.664,379.397L189.075,444.762C208.322,450.784 228.785,454.029 250,454.029C270.269,454.029 289.852,451.067 308.346,445.55ZM81.962,365.69L150.846,366.483L203.073,297.757L183.614,237.869L102.018,212.347L46.08,256.718C47.391,297.094 60.455,334.519 81.962,365.69ZM453.929,256.46L397.903,212.019L316.885,237.361L297.509,296.993L350.286,366.443L418.057,365.663C439.603,334.427 452.669,296.917 453.929,256.46ZM184.668,56.673C144.58,70.234 110.063,95.92 85.492,129.354L108.573,191.346L191.791,217.376L239.181,182.945L239.181,96.99L184.668,56.673ZM315.49,56.726L261.181,95.484L261.181,182.965L308.103,217.056L391.953,190.829L414.73,129.656C390.177,96.116 355.63,70.339 315.49,56.726Z" style="fill:rgb(67,67,67);"/>
    </g>
</svg>
