<?xml version="1.0" encoding="UTF-8" standalone="no"?>
<!DOCTYPE svg PUBLIC "-//W3C//DTD SVG 1.1//EN" "http://www.w3.org/Graphics/SVG/1.1/DTD/svg11.dtd">
<svg width="100%" height="100%" viewBox="0 0 24 24" version="1.1" xmlns="http://www.w3.org/2000/svg" xmlns:xlink="http://www.w3.org/1999/xlink" xml:space="preserve" xmlns:serif="http://www.serif.com/" style="fill-rule:evenodd;clip-rule:evenodd;stroke-linejoin:round;stroke-miterlimit:2;">
    <g transform="matrix(-0.0643393,0.0172397,-0.00620121,-0.0231432,16.6155,16.5353)">
        <path d="M69.337,110.147C69.337,96.553 65.368,85.516 60.478,85.516C55.588,85.516 51.618,96.553 51.618,110.147L51.618,269.668C51.618,283.262 55.588,294.299 60.478,294.299C65.368,294.299 69.337,283.262 69.337,269.668L69.337,110.147Z" style="fill:rgb(70,91,101);"/>
    </g>
    <g transform="matrix(-0.0175772,-0.064248,0.0179419,-0.0049086,8.67869,16.0597)">
        <path d="M69.337,117.242C69.337,99.732 65.368,85.516 60.478,85.516C55.588,85.516 51.618,99.732 51.618,117.242L51.618,262.573C51.618,280.083 55.588,294.299 60.478,294.299C65.368,294.299 69.337,280.083 69.337,262.573L69.337,117.242Z" style="fill:rgb(70,91,101);"/>
    </g>
    <g transform="matrix(0.0472113,0,0,0.0472113,-0.336253,-0.560862)">
        <path d="M92.014,92.327L262.177,92.327C267.18,92.327 271.501,95.273 273.497,99.523C273.981,100.396 274.367,101.342 274.637,102.349L334.825,326.975C336.611,333.639 332.65,340.499 325.986,342.284C319.322,344.07 312.463,340.109 310.677,333.445L252.768,117.327L104.514,117.327L104.514,288.61C104.514,295.509 98.913,301.11 92.014,301.11C85.115,301.11 79.514,295.509 79.514,288.61L79.514,104.827C79.514,97.928 85.115,92.327 92.014,92.327Z" style="fill:rgb(70,91,101);"/>
    </g>
    <g transform="matrix(0.0472113,0,0,0.0472113,-0.336253,-0.560862)">
        <path d="M49.469,415.132C38.467,415.132 29.535,406.199 29.535,395.197L29.535,302.169C29.535,291.167 38.467,282.235 49.469,282.235L172.022,282.235C183.024,282.235 191.956,291.167 191.956,302.169L191.956,315.379L320.291,315.379C328.549,315.379 335.253,322.084 335.253,330.342L335.253,400.169C335.253,408.427 328.549,415.132 320.291,415.132L49.469,415.132Z" style="fill:rgb(255,193,8);"/>
    </g>
    <g transform="matrix(0.0472113,0,0,0.0472113,-0.336253,-0.560862)">
        <path d="M352.514,407.827L352.514,153.994C352.514,146.265 358.789,139.99 366.518,139.99L394.527,139.99C402.257,139.99 408.532,146.265 408.532,153.994L408.532,407.827L352.514,407.827Z" style="fill:rgb(121,144,156);"/>
    </g>
    <g transform="matrix(0.0472113,0,0,0.0472113,-0.336253,-0.560862)">
        <path d="M352.514,395.327L480.563,395.327C487.462,395.327 493.063,400.928 493.063,407.827C493.063,414.726 487.462,420.327 480.563,420.327L352.514,420.327L352.514,395.327Z" style="fill:rgb(70,91,101);"/>
    </g>
    <g transform="matrix(0.0472113,0,0,0.0472113,0.0682232,-1.87605)">
        <circle cx="100.924" cy="419.106" r="48.536" style="fill:rgb(56,72,80);"/>
    </g>
    <g transform="matrix(0.023231,0,0,0.023231,2.48843,8.17426)">
        <circle cx="100.924" cy="419.106" r="48.536" style="fill:rgb(121,144,156);"/>
    </g>
    <g transform="matrix(0.0472113,0,0,0.0472113,8.7808,-1.87605)">
        <circle cx="100.924" cy="419.106" r="48.536" style="fill:rgb(56,72,80);"/>
    </g>
    <g transform="matrix(0.023231,0,0,0.023231,11.201,8.17426)">
        <circle cx="100.924" cy="419.106" r="48.536" style="fill:rgb(121,144,156);"/>
    </g>
</svg>
