<?xml version="1.0" encoding="UTF-8" standalone="no"?>
<!DOCTYPE svg PUBLIC "-//W3C//DTD SVG 1.1//EN" "http://www.w3.org/Graphics/SVG/1.1/DTD/svg11.dtd">
<svg width="100%" height="100%" viewBox="0 0 24 24" version="1.1" xmlns="http://www.w3.org/2000/svg" xmlns:xlink="http://www.w3.org/1999/xlink" xml:space="preserve" xmlns:serif="http://www.serif.com/" style="fill-rule:evenodd;clip-rule:evenodd;stroke-linejoin:round;stroke-miterlimit:2;">
    <g transform="matrix(0.0260857,0,0,0.0434486,5.4239,2.34221)">
        <path d="M266.179,237.144C266.179,228.719 254.787,221.88 240.755,221.88C226.723,221.88 215.331,228.719 215.331,237.144L215.331,458.542C215.331,466.966 226.723,473.806 240.755,473.806C254.787,473.806 266.179,466.966 266.179,458.542L266.179,237.144Z" style="fill:rgb(144,202,249);"/>
    </g>
    <g transform="matrix(1.59729e-18,0.0260857,-0.0412455,2.52556e-18,26.0511,15.985)">
        <path d="M266.179,237.959C266.179,229.085 254.787,221.88 240.755,221.88C226.723,221.88 215.331,229.085 215.331,237.959L215.331,457.727C215.331,466.601 226.723,473.806 240.755,473.806C254.787,473.806 266.179,466.601 266.179,457.727L266.179,237.959Z" style="fill:rgb(144,202,249);"/>
    </g>
    <g transform="matrix(0.051015,0,0,0.051015,-0.735177,-0.771181)">
        <path d="M253.95,46.995L209.601,123.81C209.172,124.543 208.844,125.342 208.636,126.187L208.631,126.208C208.458,126.911 208.374,127.626 208.375,128.336L208.375,128.376C208.38,130.029 208.832,131.578 209.616,132.908C210.344,134.15 211.38,135.233 212.69,136.031C213.495,136.523 214.383,136.892 215.328,137.112L215.35,137.117C216.016,137.271 216.692,137.346 217.364,137.346L217.374,137.346L284.71,137.346L233.284,226.419C230.801,230.721 232.277,236.23 236.578,238.713C240.88,241.197 246.389,239.721 248.873,235.419L308.072,132.882C308.501,132.15 308.829,131.351 309.038,130.505L309.043,130.485C309.215,129.781 309.299,129.067 309.299,128.357L309.299,128.317C309.294,126.664 308.842,125.115 308.057,123.785C307.329,122.543 306.293,121.459 304.983,120.662C304.179,120.17 303.291,119.801 302.346,119.581L302.324,119.575C301.657,119.422 300.981,119.346 300.309,119.346L300.299,119.346L232.963,119.346L274.735,46.995L365.05,46.995C373.766,70.033 378.659,95.918 378.659,123.267C378.659,219.363 318.247,297.381 243.837,297.381C169.426,297.381 109.014,219.363 109.014,123.267C109.014,95.918 113.907,70.033 122.623,46.995L253.95,46.995Z" style="fill:rgb(144,202,249);"/>
    </g>
</svg>
