<?xml version="1.0" encoding="UTF-8" standalone="no"?>
<!DOCTYPE svg PUBLIC "-//W3C//DTD SVG 1.1//EN" "http://www.w3.org/Graphics/SVG/1.1/DTD/svg11.dtd">
<svg width="100%" height="100%" viewBox="0 0 24 24" version="1.1" xmlns="http://www.w3.org/2000/svg" xmlns:xlink="http://www.w3.org/1999/xlink" xml:space="preserve" xmlns:serif="http://www.serif.com/" style="fill-rule:evenodd;clip-rule:evenodd;stroke-linejoin:round;stroke-miterlimit:2;">
    <g transform="matrix(0.020088,0.020088,-0.0456235,0.0456235,21.9331,-10.6879)">
        <path d="M385.845,201.202C385.845,197.522 379.06,194.535 370.703,194.535L299.153,194.535C290.797,194.535 284.012,197.522 284.012,201.202L284.012,214.535C284.012,218.214 290.797,221.202 299.153,221.202L370.703,221.202C379.06,221.202 385.845,218.214 385.845,214.535L385.845,201.202Z" style="fill:rgb(97,126,139);"/>
    </g>
    <g transform="matrix(0.0317402,0.0317402,-0.0459012,0.0459012,17.2555,-13.8155)">
        <path d="M385.845,201.202C385.845,197.522 381.525,194.535 376.204,194.535L293.653,194.535C288.332,194.535 284.012,197.522 284.012,201.202L284.012,214.535C284.012,218.214 288.332,221.202 293.653,221.202L376.204,221.202C381.525,221.202 385.845,218.214 385.845,214.535L385.845,201.202Z" style="fill:rgb(67,67,67);"/>
    </g>
    <g transform="matrix(0.048,0,0,0.048,0.0791698,-0.233343)">
        <path d="M276.98,49.769C276.98,38.033 267.452,28.505 255.716,28.505L128.737,28.505C117.001,28.505 107.473,38.033 107.473,49.769L107.473,113.559C107.473,125.295 117.001,134.823 128.737,134.823L255.716,134.823C267.452,134.823 276.98,125.295 276.98,113.559L276.98,49.769ZM236.98,73.137C236.98,70.581 234.905,68.505 232.348,68.505L152.105,68.505C149.548,68.505 147.473,70.581 147.473,73.137L147.473,100.191C147.473,102.747 149.548,104.823 152.105,104.823L232.348,104.823C234.905,104.823 236.98,102.747 236.98,100.191L236.98,73.137Z" style="fill:rgb(67,67,67);"/>
    </g>
    <g transform="matrix(0.048,0,0,0.048,1.44396,-0.194824)">
        <path d="M293.209,89.585L399.002,195.378L399.002,462.058C399.002,472.19 390.776,480.415 380.645,480.415L50.23,480.415C40.099,480.415 31.874,472.19 31.874,462.058L31.874,107.942C31.874,97.81 40.099,89.585 50.23,89.585L293.209,89.585Z" style="fill:rgb(244,68,55);"/>
    </g>
    <g transform="matrix(0.0347883,0,0,0.0347883,3.52526,5.13394)">
        <path d="M237.428,140.666C237.428,140.666 172.428,234.316 172.428,274.452C172.428,310.326 201.553,339.452 237.428,339.452C273.302,339.452 302.428,310.326 302.428,274.452C302.428,234.316 237.428,140.666 237.428,140.666Z" style="fill:rgb(67,67,67);"/>
    </g>
</svg>
