<?xml version="1.0" encoding="UTF-8" standalone="no"?>
<!DOCTYPE svg PUBLIC "-//W3C//DTD SVG 1.1//EN" "http://www.w3.org/Graphics/SVG/1.1/DTD/svg11.dtd">
<svg width="100%" height="100%" viewBox="0 0 24 24" version="1.1" xmlns="http://www.w3.org/2000/svg" xmlns:xlink="http://www.w3.org/1999/xlink" xml:space="preserve" xmlns:serif="http://www.serif.com/" style="fill-rule:evenodd;clip-rule:evenodd;stroke-linejoin:round;stroke-miterlimit:2;">
    <g transform="matrix(0.0495778,0,0,0.0495778,-1.44517,-1.49568)">
        <path d="M424.492,292.373L424.492,376.177C424.492,384.02 430.859,390.387 438.701,390.387C446.544,390.387 452.911,384.02 452.911,376.177L452.911,213.812C452.911,206.925 474.911,194.767 474.911,213.812L474.911,376.177C474.911,396.162 458.686,412.387 438.701,412.387C418.716,412.387 402.492,396.162 402.492,376.177L402.492,292.373C402.492,284.53 396.124,278.163 388.282,278.163C380.44,278.163 368.297,256.163 388.282,256.163C408.267,256.163 424.492,272.388 424.492,292.373Z" style="fill:rgb(67,67,67);"/>
    </g>
    <g transform="matrix(0.0495778,0,0,0.0495778,-2.12131,-1.67399)">
        <path d="M127.504,475.347L127.504,133.282C127.504,95.439 158.228,64.715 196.071,64.715L333.205,64.715C371.048,64.715 401.772,95.439 401.772,133.282L401.772,475.347L127.504,475.347Z" style="fill:rgb(245,125,1);"/>
    </g>
    <g transform="matrix(0.0495778,0,0,0.0409556,-1.93033,-1.48831)">
        <path d="M354.006,163.136C354.006,141.131 339.248,123.267 321.071,123.267L200.501,123.267C182.323,123.267 167.565,141.131 167.565,163.136L167.565,216.294C167.565,238.299 182.323,256.163 200.501,256.163L321.071,256.163C339.248,256.163 354.006,238.299 354.006,216.294L354.006,163.136Z" style="fill:rgb(144,202,249);"/>
    </g>
    <g transform="matrix(0.0495778,0,0,0.0748362,-1.39559,-7.48107)">
        <rect x="112.866" y="250" width="274.268" height="14.253" style="fill:rgb(67,67,67);"/>
    </g>
    <g transform="matrix(0.0495778,0,0,0.0495778,-1.49108,-0.871889)">
        <path d="M253.467,298.921C253.467,298.921 218.413,350.424 218.413,372.496C218.413,391.843 234.12,407.55 253.467,407.55C272.814,407.55 288.521,391.843 288.521,372.496C288.521,350.424 253.467,298.921 253.467,298.921Z" style="fill:rgb(67,67,67);"/>
    </g>
    <g transform="matrix(0.0528398,0,0,0.0528398,-3.53898,-1.22908)">
        <circle cx="465.694" cy="190.804" r="24.202" style="fill:rgb(144,164,174);"/>
    </g>
    <g transform="matrix(0.0457606,-0.0264199,0.0264199,0.0457606,-4.15199,9.26913)">
        <path d="M441.492,162.027C441.492,155.956 436.563,151.027 430.492,151.027C424.42,151.027 419.492,155.956 419.492,162.027L411.697,225.527C411.697,231.598 424.42,241.027 430.492,241.027C436.563,241.027 441.492,236.098 441.492,230.027L441.492,162.027Z" style="fill:rgb(144,164,174);"/>
    </g>
    <g transform="matrix(0.0495778,0,0,0.0495778,-1.39559,-0.986475)">
        <path d="M411.787,461.479C411.787,455.101 406.609,449.923 400.231,449.923L102.851,449.923C96.472,449.923 91.294,455.101 91.294,461.479C91.294,467.857 96.472,473.035 102.851,473.035L400.231,473.035C406.609,473.035 411.787,467.857 411.787,461.479Z" style="fill:rgb(67,67,67);"/>
    </g>
</svg>
