<?xml version="1.0" encoding="UTF-8" standalone="no"?>
<!DOCTYPE svg PUBLIC "-//W3C//DTD SVG 1.1//EN" "http://www.w3.org/Graphics/SVG/1.1/DTD/svg11.dtd">
<svg width="100%" height="100%" viewBox="0 0 24 24" version="1.1" xmlns="http://www.w3.org/2000/svg" xmlns:xlink="http://www.w3.org/1999/xlink" xml:space="preserve" xmlns:serif="http://www.serif.com/" style="fill-rule:evenodd;clip-rule:evenodd;stroke-linejoin:round;stroke-miterlimit:2;">
    <g transform="matrix(0.0498432,0,0,0.0498432,-0.997054,-2.43481)">
        <circle cx="114.599" cy="153.505" r="43.336" style="fill:rgb(78,86,90);"/>
    </g>
    <g transform="matrix(0.0498432,0,0,0.0498432,6.288,-2.43481)">
        <circle cx="114.599" cy="153.505" r="43.336" style="fill:rgb(78,86,90);"/>
    </g>
    <g transform="matrix(0.0498432,0,0,0.0498432,-0.997054,11.1324)">
        <circle cx="114.599" cy="153.505" r="43.336" style="fill:rgb(78,86,90);"/>
    </g>
    <g transform="matrix(0.0498432,0,0,0.0498432,6.288,11.1324)">
        <circle cx="114.599" cy="153.505" r="43.336" style="fill:rgb(78,86,90);"/>
    </g>
    <g transform="matrix(0.0498432,0,0,0.0498432,13.5731,-2.43481)">
        <circle cx="114.599" cy="153.505" r="43.336" style="fill:rgb(78,86,90);"/>
    </g>
    <g transform="matrix(0.0821591,0,0,0.0561284,-5.42044,-2.4093)">
        <path d="M132.126,166.333C132.126,159.253 128.2,153.505 123.363,153.505C118.526,153.505 114.599,159.253 114.599,166.333L114.599,363.328C114.599,370.408 118.526,376.156 123.363,376.156C128.2,376.156 132.126,370.408 132.126,363.328L132.126,166.333Z" style="fill:rgb(78,86,90);"/>
    </g>
    <g transform="matrix(0.0821591,0,0,0.0561284,1.86462,-2.4093)">
        <path d="M132.126,166.333C132.126,159.253 128.2,153.505 123.363,153.505C118.526,153.505 114.599,159.253 114.599,166.333L114.599,363.328C114.599,370.408 118.526,376.156 123.363,376.156C128.2,376.156 132.126,370.408 132.126,363.328L132.126,166.333Z" style="fill:rgb(78,86,90);"/>
    </g>
    <g transform="matrix(0.0821591,0,0,0.0280642,9.14967,1.89871)">
        <path d="M132.126,179.161C132.126,165.001 128.2,153.505 123.363,153.505C118.526,153.505 114.599,165.001 114.599,179.161L114.599,350.5C114.599,364.66 118.526,376.156 123.363,376.156C128.2,376.156 132.126,364.66 132.126,350.5L132.126,179.161Z" style="fill:rgb(78,86,90);"/>
    </g>
    <g transform="matrix(5.0308e-18,0.0821591,-0.0686732,4.20502e-18,30.5468,1.78474)">
        <path d="M132.126,163.99C132.126,158.203 128.2,153.505 123.363,153.505C118.526,153.505 114.599,158.203 114.599,163.99L114.599,365.671C114.599,371.458 118.526,376.156 123.363,376.156C128.2,376.156 132.126,371.458 132.126,365.671L132.126,163.99Z" style="fill:rgb(78,86,90);"/>
    </g>
    <g transform="matrix(6.98376,0,0,6.98376,16.5863,20.6807)">
        <path d="M0.273,-0.306L0.222,-0.306L0.222,-0.076C0.222,-0.046 0.215,-0.024 0.202,-0.009C0.189,0.005 0.171,0.012 0.15,0.012C0.127,0.012 0.109,0.005 0.096,-0.01C0.083,-0.025 0.077,-0.047 0.077,-0.076L0.077,-0.627C0.077,-0.658 0.084,-0.681 0.098,-0.695C0.112,-0.709 0.135,-0.716 0.166,-0.716L0.402,-0.716C0.434,-0.716 0.462,-0.714 0.485,-0.712C0.508,-0.709 0.529,-0.703 0.548,-0.695C0.57,-0.685 0.59,-0.672 0.607,-0.654C0.625,-0.637 0.638,-0.616 0.647,-0.593C0.656,-0.57 0.66,-0.545 0.66,-0.519C0.66,-0.466 0.645,-0.423 0.615,-0.391C0.585,-0.359 0.539,-0.337 0.478,-0.323C0.504,-0.31 0.528,-0.289 0.552,-0.263C0.575,-0.236 0.596,-0.208 0.615,-0.177C0.633,-0.147 0.647,-0.12 0.657,-0.096C0.668,-0.072 0.673,-0.055 0.673,-0.046C0.673,-0.036 0.67,-0.027 0.664,-0.018C0.658,-0.009 0.65,-0.001 0.639,0.004C0.629,0.01 0.617,0.012 0.603,0.012C0.587,0.012 0.573,0.008 0.562,0.001C0.551,-0.007 0.541,-0.017 0.533,-0.028C0.525,-0.04 0.515,-0.057 0.501,-0.08L0.443,-0.177C0.422,-0.212 0.403,-0.239 0.387,-0.258C0.371,-0.276 0.354,-0.289 0.337,-0.296C0.32,-0.303 0.299,-0.306 0.273,-0.306ZM0.356,-0.607L0.222,-0.607L0.222,-0.41L0.352,-0.41C0.387,-0.41 0.416,-0.413 0.44,-0.419C0.464,-0.425 0.482,-0.435 0.494,-0.45C0.507,-0.464 0.513,-0.484 0.513,-0.51C0.513,-0.53 0.508,-0.547 0.498,-0.562C0.488,-0.577 0.474,-0.589 0.456,-0.596C0.439,-0.603 0.406,-0.607 0.356,-0.607Z" style="fill:rgb(78,86,90);fill-rule:nonzero;"/>
    </g>
</svg>
