<?xml version="1.0" encoding="UTF-8" standalone="no"?>
<!DOCTYPE svg PUBLIC "-//W3C//DTD SVG 1.1//EN" "http://www.w3.org/Graphics/SVG/1.1/DTD/svg11.dtd">
<svg width="100%" height="100%" viewBox="0 0 24 24" version="1.1" xmlns="http://www.w3.org/2000/svg" xmlns:xlink="http://www.w3.org/1999/xlink" xml:space="preserve" xmlns:serif="http://www.serif.com/" style="fill-rule:evenodd;clip-rule:evenodd;stroke-linejoin:round;stroke-miterlimit:2;">
    <g transform="matrix(0.048,0,0,0.048,-1.36424e-15,0.575258)">
        <path d="M250,378.274C313.568,378.274 365.177,389.321 365.177,402.928C365.177,416.534 313.568,427.581 250,427.581C186.432,427.581 134.823,416.534 134.823,402.928C134.823,389.321 186.432,378.274 250,378.274ZM250,385.877C300.812,385.877 342.065,392.136 342.065,399.846C342.065,407.556 300.812,413.815 250,413.815C199.188,413.815 157.935,407.556 157.935,399.846C157.935,392.136 199.188,385.877 250,385.877Z" style="fill:rgb(144,202,249);"/>
    </g>
    <g transform="matrix(0.048,0,0,0.048,-1.36424e-15,0.575258)">
        <path d="M250,362.866C336.104,362.866 406.009,384.269 406.009,410.632C406.009,436.994 336.104,458.398 250,458.398C163.896,458.398 93.991,436.994 93.991,410.632C93.991,384.269 163.896,362.866 250,362.866ZM250,369.8C324.503,369.8 384.99,384.989 384.99,403.698C384.99,422.407 324.503,437.596 250,437.596C175.497,437.596 115.01,422.407 115.01,403.698C115.01,384.989 175.497,369.8 250,369.8Z" style="fill:rgb(67,165,245);"/>
    </g>
    <g transform="matrix(0.0433525,0,0,-0.0433525,2.29745,20.9938)">
        <path d="M223.806,23.883C223.806,23.883 74.345,218.567 74.345,302.003C74.345,384.493 141.316,451.464 223.806,451.464C306.295,451.464 373.267,384.493 373.267,302.003C373.267,218.567 223.806,23.883 223.806,23.883Z" style="fill:rgb(244,68,55);"/>
    </g>
    <g transform="matrix(0.0520666,0,0,0.0520666,-1.01666,-1.44516)">
        <circle cx="250" cy="179.507" r="76.656" style="fill:rgb(185,30,30);"/>
    </g>
    <g transform="matrix(0.0433525,0,0,0.0433525,1.16186,0.11908)">
        <circle cx="250" cy="179.507" r="76.656" style="fill:white;"/>
    </g>
</svg>
