<?xml version="1.0" encoding="UTF-8" standalone="no"?>
<!DOCTYPE svg PUBLIC "-//W3C//DTD SVG 1.1//EN" "http://www.w3.org/Graphics/SVG/1.1/DTD/svg11.dtd">
<svg width="100%" height="100%" viewBox="0 0 24 24" version="1.1" xmlns="http://www.w3.org/2000/svg" xmlns:xlink="http://www.w3.org/1999/xlink" xml:space="preserve" xmlns:serif="http://www.serif.com/" style="fill-rule:evenodd;clip-rule:evenodd;stroke-linejoin:round;stroke-miterlimit:2;">
    <g transform="matrix(0.020875,0.0120522,-0.0338567,0.0586415,18.0408,-3.97298)">
        <path d="M79.374,83.694C79.374,80.681 72.504,78.235 64.041,78.235C55.578,78.235 48.708,80.681 48.708,83.694L48.708,368.896C48.708,371.909 55.578,374.354 64.041,374.354C72.504,374.354 79.374,371.909 79.374,368.896L79.374,83.694Z" style="fill:rgb(171,49,12);"/>
    </g>
    <g transform="matrix(0.048,0,0,0.048,-0.606283,-0.138182)">
        <rect x="236.041" y="394.568" width="41.333" height="42.453" style="fill:rgb(171,49,12);"/>
    </g>
    <g transform="matrix(0.0319557,0.0184496,-0.0184496,0.0319557,8.54937,-1.63054)">
        <circle cx="232.858" cy="231.703" r="180.085" style="fill:rgb(34,150,243);"/>
    </g>
    <g transform="matrix(0.0319557,0.0184496,-0.0184496,0.0319557,8.33917,-2.53151)">
        <path d="M240,70.189C243.302,70.007 246.641,69.915 250,69.915C253.359,69.915 256.698,70.007 260,70.189L260,429.811C256.698,429.993 253.359,430.085 250,430.085C246.641,430.085 243.302,429.993 240,429.811L240,70.189Z" style="fill:rgb(187,222,251);"/>
    </g>
    <g transform="matrix(0.0319557,0.0184496,-0.0184496,0.0319557,8.33917,-2.53151)">
        <path d="M429.811,240C429.993,243.302 430.085,246.641 430.085,250C430.085,253.359 429.993,256.698 429.811,260L70.189,260C70.007,256.698 69.915,253.359 69.915,250C69.915,246.641 70.007,243.302 70.189,240L429.811,240Z" style="fill:rgb(187,222,251);"/>
    </g>
    <g transform="matrix(0.0319557,0.0184496,-0.0184496,0.0319557,8.33917,-2.53151)">
        <path d="M255.393,69.995C266.548,70.324 277.448,71.67 288.02,73.943C317.902,101.796 355.042,155.433 355.042,250C355.042,344.567 317.902,398.204 288.02,426.057C277.454,428.331 266.549,429.677 255.393,430.005C286.105,408.077 335.042,356.437 335.042,250C335.042,143.563 286.105,91.923 255.393,69.995Z" style="fill:rgb(187,222,251);"/>
    </g>
    <g transform="matrix(0.0319557,0.0184496,-0.0184496,0.0319557,8.33917,-2.53151)">
        <path d="M374.556,119.986C379.264,124.497 383.727,129.26 387.927,134.26C356.83,153.798 312.296,169.915 250,169.915C187.704,169.915 143.17,153.798 112.073,134.26C116.269,129.265 120.732,124.501 125.444,119.986C154.651,136.854 195.013,149.915 250,149.915C304.987,149.915 345.349,136.854 374.556,119.986Z" style="fill:rgb(187,222,251);"/>
    </g>
    <g transform="matrix(0.0319557,0.0184496,-0.0184496,0.0319557,8.33917,-2.53151)">
        <path d="M112.073,365.74C143.17,346.202 187.704,330.085 250,330.085C312.296,330.085 356.83,346.202 387.927,365.74C383.731,370.735 379.268,375.499 374.556,380.014C345.349,363.146 304.987,350.085 250,350.085C195.013,350.085 154.651,363.146 125.444,380.014C120.736,375.503 116.273,370.74 112.073,365.74Z" style="fill:rgb(187,222,251);"/>
    </g>
    <g transform="matrix(0.0319557,0.0184496,-0.0184496,0.0319557,8.33917,-2.53151)">
        <path d="M244.607,69.995C213.895,91.923 164.958,143.563 164.958,250C164.958,356.437 213.895,408.077 244.607,430.005C233.452,429.676 222.552,428.33 211.98,426.057C182.098,398.204 144.958,344.567 144.958,250C144.958,155.433 182.098,101.796 211.98,73.943C222.546,71.669 233.451,70.323 244.607,69.995Z" style="fill:rgb(187,222,251);"/>
    </g>
    <g transform="matrix(0.048,0,0,0.048,-0.284312,-0.138182)">
        <path d="M333.552,435.313C333.552,429.265 328.642,424.354 322.593,424.354L177.407,424.354C171.358,424.354 166.448,429.265 166.448,435.313L166.448,457.229C166.448,463.277 171.358,468.188 177.407,468.188L322.593,468.188C328.642,468.188 333.552,463.277 333.552,457.229L333.552,435.313Z" style="fill:rgb(255,113,68);"/>
    </g>
    <g transform="matrix(0.048,0,0,0.048,-0.284312,0.341818)">
        <path d="M373.552,452.354C373.552,445.363 367.876,439.688 360.885,439.688L139.115,439.688C132.124,439.688 126.448,445.363 126.448,452.354C126.448,459.345 132.124,465.021 139.115,465.021L360.885,465.021C367.876,465.021 373.552,459.345 373.552,452.354Z" style="fill:rgb(171,49,12);"/>
    </g>
    <g transform="matrix(0.048,0,0,0.048,-0.284312,-0.138182)">
        <path d="M337.937,44.98C398.201,76.677 439.333,139.906 439.333,212.667C439.333,317.163 354.496,402 250,402C212.779,402 178.051,391.236 148.757,372.649L162.125,349.496C187.464,365.817 217.634,375.292 250,375.292C339.755,375.292 412.625,302.422 412.625,212.667C412.625,149.784 376.858,95.189 324.57,68.133L337.937,44.98Z" style="fill:rgb(171,49,12);"/>
    </g>
</svg>
