<?xml version="1.0" encoding="UTF-8" standalone="no"?>
<!DOCTYPE svg PUBLIC "-//W3C//DTD SVG 1.1//EN" "http://www.w3.org/Graphics/SVG/1.1/DTD/svg11.dtd">
<svg width="100%" height="100%" viewBox="0 0 24 24" version="1.1" xmlns="http://www.w3.org/2000/svg" xmlns:xlink="http://www.w3.org/1999/xlink" xml:space="preserve" xmlns:serif="http://www.serif.com/" style="fill-rule:evenodd;clip-rule:evenodd;stroke-linejoin:round;stroke-miterlimit:2;">
    <g transform="matrix(0.0463644,0.0124233,-0.016616,0.0620118,2.02115,-4.26059)">
        <path d="M436.451,27.383C436.451,21.366 429.917,16.48 421.868,16.48C413.819,16.48 407.285,21.366 407.285,27.383L407.285,246.415C407.285,252.433 413.819,257.319 421.868,257.319C429.917,257.319 436.451,252.433 436.451,246.415L436.451,27.383Z" style="fill:rgb(172,74,34);"/>
    </g>
    <g transform="matrix(0.0526552,0.0141089,-0.0124233,0.0463644,0.342095,-0.395055)">
        <path d="M414.785,245.98C414.785,219.488 398.928,200.98 372.519,197.98L181.895,177.98C158.568,177.98 139.63,199.488 139.63,225.98L139.63,321.98C139.63,348.472 158.568,369.98 181.895,369.98L372.519,349.98C396.727,346.98 414.785,328.472 414.785,301.98L414.785,245.98Z" style="fill:rgb(121,144,156);"/>
    </g>
    <g transform="matrix(0.0472892,0.00822988,0.00822988,-0.0472892,-4.9676,26.9942)">
        <path d="M410.285,231.563C410.285,227.01 406.588,223.313 402.035,223.313L195.035,223.313C190.481,223.313 186.785,227.01 186.785,231.563C186.785,236.117 190.481,239.813 195.035,239.813L402.035,239.813C406.588,239.813 410.285,236.117 410.285,231.563Z" style="fill:rgb(85,111,123);"/>
    </g>
    <g transform="matrix(0.0450686,0.0165173,-0.0165173,0.0450686,2.63092,-1.36385)">
        <path d="M410.285,231.563C410.285,227.01 406.588,223.313 402.035,223.313L195.035,223.313C190.481,223.313 186.785,227.01 186.785,231.563C186.785,236.117 190.481,239.813 195.035,239.813L402.035,239.813C406.588,239.813 410.285,236.117 410.285,231.563Z" style="fill:rgb(85,111,123);"/>
    </g>
    <g transform="matrix(0.0463644,0.0124233,-0.0124233,0.0463644,0.554426,1.76966)">
        <path d="M410.285,231.563C410.285,227.01 406.588,223.313 402.035,223.313L195.035,223.313C190.481,223.313 186.785,227.01 186.785,231.563C186.785,236.117 190.481,239.813 195.035,239.813L402.035,239.813C406.588,239.813 410.285,236.117 410.285,231.563Z" style="fill:rgb(85,111,123);"/>
    </g>
    <g transform="matrix(0.0586436,0,0,0.0586436,-2.3487,0.4612)">
        <circle cx="125.963" cy="318.952" r="61.633" style="fill:rgb(227,227,227);"/>
    </g>
    <g transform="matrix(0.0586436,0,0,0.0586436,-2.3487,0.4612)">
        <circle cx="94.376" cy="288.136" r="5.393" style="fill:rgb(144,164,174);"/>
    </g>
    <g transform="matrix(0.0586436,0,0,0.0586436,-1.1647,-0.17132)">
        <circle cx="94.376" cy="288.136" r="5.393" style="fill:rgb(144,164,174);"/>
    </g>
    <g transform="matrix(0.0586436,0,0,0.0586436,-1.33696,0.94972)">
        <circle cx="94.376" cy="288.136" r="5.393" style="fill:rgb(144,164,174);"/>
    </g>
</svg>
