<?xml version="1.0" encoding="UTF-8" standalone="no"?>
<!DOCTYPE svg PUBLIC "-//W3C//DTD SVG 1.1//EN" "http://www.w3.org/Graphics/SVG/1.1/DTD/svg11.dtd">
<svg width="100%" height="100%" viewBox="0 0 24 24" version="1.1" xmlns="http://www.w3.org/2000/svg" xmlns:xlink="http://www.w3.org/1999/xlink" xml:space="preserve" xmlns:serif="http://www.serif.com/" style="fill-rule:evenodd;clip-rule:evenodd;stroke-linejoin:round;stroke-miterlimit:2;">
    <g transform="matrix(0.048,0,0,0.048,-2.7735,-0.3698)">
        <path d="M307.781,204.16L381.741,473.035L233.821,473.035L307.781,204.16Z" style="fill:rgb(67,165,245);"/>
    </g>
    <g transform="matrix(0.048,0,0,0.048,0,0)">
        <path d="M121.376,47.76C128.205,40.93 139.295,40.93 146.124,47.76C152.954,54.589 152.954,65.679 146.124,72.508C80.859,137.774 80.859,243.748 146.124,309.013C152.954,315.843 152.954,326.932 146.124,333.762C139.295,340.592 128.205,340.592 121.376,333.762C42.451,254.837 42.451,126.684 121.376,47.76ZM168.187,94.571C175.017,87.742 186.107,87.742 192.936,94.571C199.766,101.401 199.766,112.491 192.936,119.32C153.507,158.749 153.507,222.772 192.936,262.201C199.766,269.031 199.766,280.121 192.936,286.95C186.107,293.78 175.017,293.78 168.187,286.95C115.099,233.862 115.099,147.66 168.187,94.571Z" style="fill:rgb(144,202,249);"/>
    </g>
    <g transform="matrix(-0.048,0,0,0.048,23.9923,0)">
        <path d="M121.376,47.76C128.205,40.93 139.295,40.93 146.124,47.76C152.954,54.589 152.954,65.679 146.124,72.508C80.859,137.774 80.859,243.748 146.124,309.013C152.954,315.843 152.954,326.932 146.124,333.762C139.295,340.592 128.205,340.592 121.376,333.762C42.451,254.837 42.451,126.684 121.376,47.76ZM168.187,94.571C175.017,87.742 186.107,87.742 192.936,94.571C199.766,101.401 199.766,112.491 192.936,119.32C153.507,158.749 153.507,222.772 192.936,262.201C199.766,269.031 199.766,280.121 192.936,286.95C186.107,293.78 175.017,293.78 168.187,286.95C115.099,233.862 115.099,147.66 168.187,94.571Z" style="fill:rgb(144,202,249);"/>
    </g>
    <g transform="matrix(0.048,0,0,0.048,-0.63259,-0.536165)">
        <circle cx="263.179" cy="201.931" r="38.603" style="fill:rgb(22,102,192);"/>
    </g>
</svg>
