<?xml version="1.0" encoding="UTF-8" standalone="no"?>
<!DOCTYPE svg PUBLIC "-//W3C//DTD SVG 1.1//EN" "http://www.w3.org/Graphics/SVG/1.1/DTD/svg11.dtd">
<svg width="100%" height="100%" viewBox="0 0 24 24" version="1.1" xmlns="http://www.w3.org/2000/svg" xmlns:xlink="http://www.w3.org/1999/xlink" xml:space="preserve" xmlns:serif="http://www.serif.com/" style="fill-rule:evenodd;clip-rule:evenodd;stroke-linejoin:round;stroke-miterlimit:2;">
    <g transform="matrix(0.032447,-0.0308595,0.0330796,0.0347813,-6.02432,5.32631)">
        <rect x="78.733" y="207.142" width="195.15" height="23.983" style="fill:rgb(70,91,101);"/>
    </g>
    <g transform="matrix(0.0269609,-0.0357523,0.0383244,0.0289005,-6.74169,16.9093)">
        <rect x="78.733" y="207.142" width="195.15" height="23.983" style="fill:rgb(70,91,101);"/>
    </g>
    <g transform="matrix(-0.0286685,-0.0189495,0.0264679,-0.0400431,11.601,26.6187)">
        <rect x="78.733" y="207.142" width="195.15" height="23.983" style="fill:rgb(70,91,101);"/>
    </g>
    <g transform="matrix(0.0291178,-0.0409155,0.0391078,0.0278313,4.28152,13.4746)">
        <rect x="78.733" y="207.142" width="195.15" height="23.983" style="fill:rgb(70,91,101);"/>
    </g>
    <g transform="matrix(-0.0328206,-0.0304619,-0.0326534,0.0351818,24.8833,4.97612)">
        <rect x="78.733" y="207.142" width="195.15" height="23.983" style="fill:rgb(70,91,101);"/>
    </g>
    <g transform="matrix(0.0281376,0.0348338,0.0373398,-0.0301619,4.7461,14.1542)">
        <rect x="78.733" y="207.142" width="195.15" height="23.983" style="fill:rgb(70,91,101);"/>
    </g>
    <g transform="matrix(0.0595553,0,0,0.0595553,-0.556714,3.77198)">
        <circle cx="72.804" cy="109.399" r="26.194" style="fill:rgb(251,140,1);"/>
    </g>
    <g transform="matrix(0.0595553,0,0,0.0595553,5.12563,-1.4422)">
        <circle cx="72.804" cy="109.399" r="26.194" style="fill:rgb(244,68,55);"/>
    </g>
    <g transform="matrix(0.0595553,0,0,0.0595553,10.808,3.77198)">
        <circle cx="72.804" cy="109.399" r="26.194" style="fill:rgb(125,179,67);"/>
    </g>
    <g transform="matrix(0.0595553,0,0,0.0595553,16.4903,10.6318)">
        <circle cx="72.804" cy="109.399" r="26.194" style="fill:rgb(67,165,245);"/>
    </g>
    <g transform="matrix(0.0595553,0,0,0.0595553,-0.556714,13.9122)">
        <circle cx="72.804" cy="109.399" r="26.194" style="fill:rgb(97,126,139);"/>
    </g>
    <g transform="matrix(0.0595553,0,0,0.0595553,5.12563,6.1387)">
        <circle cx="72.804" cy="109.399" r="26.194" style="fill:rgb(97,126,139);"/>
    </g>
    <g transform="matrix(0.0595553,0,0,0.0595553,10.808,9.83669)">
        <circle cx="72.804" cy="109.399" r="26.194" style="fill:rgb(97,126,139);"/>
    </g>
    <g transform="matrix(0.0595553,0,0,0.0595553,16.4903,1.86751)">
        <circle cx="72.804" cy="109.399" r="26.194" style="fill:rgb(97,126,139);"/>
    </g>
</svg>
