<?xml version="1.0" encoding="UTF-8" standalone="no"?>
<!DOCTYPE svg PUBLIC "-//W3C//DTD SVG 1.1//EN" "http://www.w3.org/Graphics/SVG/1.1/DTD/svg11.dtd">
<svg width="100%" height="100%" viewBox="0 0 24 24" version="1.1" xmlns="http://www.w3.org/2000/svg" xmlns:xlink="http://www.w3.org/1999/xlink" xml:space="preserve" xmlns:serif="http://www.serif.com/" style="fill-rule:evenodd;clip-rule:evenodd;stroke-linejoin:round;stroke-miterlimit:2;">
    <g transform="matrix(0.048,0,0,0.048,-0.51735,-0.33282)">
        <path d="M131.356,203.197C131.356,195.225 124.883,188.752 116.911,188.752L49.499,188.752C41.527,188.752 35.054,195.225 35.054,203.197L35.054,460.131C35.054,468.104 41.527,474.576 49.499,474.576L116.911,474.576C124.883,474.576 131.356,468.104 131.356,460.131L131.356,203.197Z" style="fill:rgb(251,140,1);"/>
    </g>
    <g transform="matrix(0.048,0,0,0.0662426,5.16499,-8.99032)">
        <path d="M131.356,199.219C131.356,193.442 124.883,188.752 116.911,188.752L49.499,188.752C41.527,188.752 35.054,193.442 35.054,199.219L35.054,464.109C35.054,469.886 41.527,474.576 49.499,474.576L116.911,474.576C124.883,474.576 131.356,469.886 131.356,464.109L131.356,199.219Z" style="fill:rgb(244,68,55);"/>
    </g>
    <g transform="matrix(0.048,0,0,0.0567978,10.8473,-4.50807)">
        <path d="M131.356,200.96C131.356,194.222 124.883,188.752 116.911,188.752L49.499,188.752C41.527,188.752 35.054,194.222 35.054,200.96L35.054,462.369C35.054,469.106 41.527,474.576 49.499,474.576L116.911,474.576C124.883,474.576 131.356,469.106 131.356,462.369L131.356,200.96Z" style="fill:rgb(125,179,67);"/>
    </g>
    <g transform="matrix(0.048,0,0,0.0346739,16.5297,5.99145)">
        <path d="M131.356,208.749C131.356,197.712 124.883,188.752 116.911,188.752L49.499,188.752C41.527,188.752 35.054,197.712 35.054,208.749L35.054,454.579C35.054,465.616 41.527,474.576 49.499,474.576L116.911,474.576C124.883,474.576 131.356,465.616 131.356,454.579L131.356,208.749Z" style="fill:rgb(67,165,245);"/>
    </g>
</svg>
