<?xml version="1.0" encoding="UTF-8" standalone="no"?>
<!DOCTYPE svg PUBLIC "-//W3C//DTD SVG 1.1//EN" "http://www.w3.org/Graphics/SVG/1.1/DTD/svg11.dtd">
<svg width="100%" height="100%" viewBox="0 0 24 24" version="1.1" xmlns="http://www.w3.org/2000/svg" xmlns:xlink="http://www.w3.org/1999/xlink" xml:space="preserve" xmlns:serif="http://www.serif.com/" style="fill-rule:evenodd;clip-rule:evenodd;stroke-linejoin:round;stroke-miterlimit:2;">
    <g id="path6574" transform="matrix(0.048,0,0,0.048,0,0)">
        <path d="M249.976,35.598L249.928,21.304C249.932,21.304 249.935,21.304 249.938,21.304C374.167,21.304 476.391,124.671 476.391,250.288C476.391,375.32 375.116,478.422 251.468,479.267L251.467,478.882C149.956,478.552 66.528,393.99 66.528,291.27C66.528,189.989 147.635,106.361 247.226,103.721L247.071,35.027C247.071,35.027 248.097,35.184 249.976,35.598Z" style="fill:rgb(57,142,61);fill-rule:nonzero;"/>
    </g>
    <g id="path2201" transform="matrix(0.048,0,0,0.048,0,0)">
        <path d="M251.703,21.045C354.585,22.663 438.732,107.799 438.732,211.046C438.732,314.216 354.71,399.301 251.937,401.043L252.057,454.314C252.057,454.314 160.829,440.3 120.89,329.873C147.481,243.823 228.414,212.854 247.458,206.66L247.632,283.908C247.632,283.908 348.022,257.251 378.239,159.468C342.533,60.744 265.832,39.08 249.976,35.598L250.205,103.666C149.265,104.69 66.528,188.976 66.528,291.27C66.528,374.545 121.36,445.886 196.202,470.086C97.51,445.005 23.609,354.893 23.609,248.875C23.609,123.738 126.566,20.759 251.703,20.733L251.703,21.045Z" style="fill:rgb(165,214,167);fill-rule:nonzero;"/>
    </g>
</svg>
