<?xml version="1.0" encoding="UTF-8" standalone="no"?>
<!DOCTYPE svg PUBLIC "-//W3C//DTD SVG 1.1//EN" "http://www.w3.org/Graphics/SVG/1.1/DTD/svg11.dtd">
<svg width="100%" height="100%" viewBox="0 0 24 24" version="1.1" xmlns="http://www.w3.org/2000/svg" xmlns:xlink="http://www.w3.org/1999/xlink" xml:space="preserve" xmlns:serif="http://www.serif.com/" style="fill-rule:evenodd;clip-rule:evenodd;stroke-linejoin:round;stroke-miterlimit:2;">
    <g transform="matrix(0.0477271,0,0,0.0477271,-0.564478,0.137415)">
        <circle cx="241.271" cy="68.299" r="48.833" style="fill:rgb(67,165,245);"/>
    </g>
    <g transform="matrix(0.049854,0,0,0.049854,-1.10954,-0.142119)">
        <path d="M241.911,325.886C227.028,325.886 214.946,313.804 214.946,298.921L214.946,157.165C214.946,142.283 227.028,130.2 241.911,130.2C256.793,130.2 268.875,142.283 268.875,157.165L268.875,187.524L310.332,187.524C325.214,187.524 337.296,199.606 337.296,214.488C337.296,229.37 325.214,241.453 310.332,241.453L268.875,241.453L268.875,271.957L351.998,271.957C352.289,271.957 352.578,271.961 352.865,271.971C363.411,271.634 373.631,277.543 378.279,287.736L422.714,385.17C428.889,398.711 422.909,414.717 409.369,420.892C395.828,427.068 379.822,421.088 373.647,407.547L336.405,325.886L241.911,325.886Z" style="fill:rgb(67,165,245);"/>
    </g>
    <g transform="matrix(0.049854,0,0,0.049854,-1.10954,-0.142119)">
        <path d="M196.911,187.524L196.911,227.397C161.917,244.266 137.749,280.079 137.749,321.493C137.749,379.108 184.525,425.884 242.14,425.884C283.122,425.884 318.62,402.218 335.703,367.812L353.994,407.918C328.128,441.334 287.629,462.864 242.14,462.864C164.115,462.864 100.769,399.518 100.769,321.493C100.769,259.284 141.037,206.405 196.911,187.524Z" style="fill:rgb(22,102,192);"/>
    </g>
</svg>
