<?xml version="1.0" encoding="UTF-8" standalone="no"?>
<!DOCTYPE svg PUBLIC "-//W3C//DTD SVG 1.1//EN" "http://www.w3.org/Graphics/SVG/1.1/DTD/svg11.dtd">
<svg width="100%" height="100%" viewBox="0 0 24 24" version="1.1" xmlns="http://www.w3.org/2000/svg" xmlns:xlink="http://www.w3.org/1999/xlink" xml:space="preserve" xmlns:serif="http://www.serif.com/" style="fill-rule:evenodd;clip-rule:evenodd;stroke-linejoin:round;stroke-miterlimit:2;">
    <g transform="matrix(0.0422141,0,0,0.0422141,1.69667,1.59676)">
        <path d="M257.073,155.516C257.073,155.516 207.147,141.516 184.11,151.016C161.073,160.516 128.573,168.095 116.073,161.055C103.573,154.016 93.573,146.046 93.573,146.046L44.573,250C44.573,250 190.153,380.24 236.073,394.016C291.073,410.516 417.974,327.468 384.073,293.567C355.857,265.351 257.073,155.516 257.073,155.516Z" style="fill:rgb(255,183,78);"/>
    </g>
    <g transform="matrix(0.0422141,0,0,0.0422141,1.69667,1.59676)">
        <path d="M394.573,151.266C394.573,151.266 339.633,167.567 327.858,161.055C301.954,146.73 270.534,136.055 245.534,161.055C224.011,182.579 203.592,201.498 191.573,213.516C179.555,225.534 188.025,248.213 220,244.516C242.539,241.91 278.073,203.516 278.073,203.516L383.573,293.567L443.573,250L394.573,151.266Z" style="fill:rgb(187,150,95);"/>
    </g>
    <g transform="matrix(0.0235199,0.0113235,-0.0111821,0.0232261,3.80297,3.2556)">
        <path d="M159.091,104.016C159.091,89.979 147.837,78.582 133.975,78.582L58.629,78.582C44.767,78.582 33.513,89.979 33.513,104.016L33.513,341.285C33.513,355.322 44.767,366.718 58.629,366.718L133.975,366.718C147.837,366.718 159.091,355.322 159.091,341.285L159.091,104.016Z" style="fill:rgb(67,165,245);"/>
    </g>
    <g transform="matrix(0.0233341,0.011234,-0.011234,0.0233341,3.99342,3.28893)">
        <circle cx="89.885" cy="306.822" r="25.167" style="fill:rgb(187,222,251);"/>
    </g>
    <g transform="matrix(-0.0235199,0.0113235,0.0111821,0.0232261,20.197,3.2556)">
        <path d="M159.091,104.016C159.091,89.979 147.837,78.582 133.975,78.582L58.629,78.582C44.767,78.582 33.513,89.979 33.513,104.016L33.513,341.285C33.513,355.322 44.767,366.718 58.629,366.718L133.975,366.718C147.837,366.718 159.091,355.322 159.091,341.285L159.091,104.016Z" style="fill:rgb(67,165,245);"/>
    </g>
    <g transform="matrix(-0.0233341,0.011234,0.011234,0.0233341,20.0066,3.28893)">
        <circle cx="89.885" cy="306.822" r="25.167" style="fill:rgb(187,222,251);"/>
    </g>
</svg>
