<?xml version="1.0" encoding="UTF-8" standalone="no"?>
<!DOCTYPE svg PUBLIC "-//W3C//DTD SVG 1.1//EN" "http://www.w3.org/Graphics/SVG/1.1/DTD/svg11.dtd">
<svg width="100%" height="100%" viewBox="0 0 24 24" version="1.1" xmlns="http://www.w3.org/2000/svg" xmlns:xlink="http://www.w3.org/1999/xlink" xml:space="preserve" xmlns:serif="http://www.serif.com/" style="fill-rule:evenodd;clip-rule:evenodd;stroke-linejoin:round;stroke-miterlimit:2;">
    <g transform="matrix(0.0427315,-0.0246711,0.0246711,0.0427315,-7.15561,11.4948)">
        <path d="M245.362,132.512L245.362,278.166L162.75,278.166C146.699,278.166 133.667,265.135 133.667,249.083L133.667,162.512L116.31,162.512C108.031,162.512 101.31,155.79 101.31,147.512C101.31,139.233 108.031,132.512 116.31,132.512L245.362,132.512ZM215.362,248.166L215.362,162.512L172.117,162.512C167.453,162.512 163.667,166.298 163.667,170.961L163.667,239.716C163.667,244.38 167.453,248.166 172.117,248.166L215.362,248.166Z" style="fill:rgb(245,125,1);"/>
    </g>
    <g transform="matrix(0.0427315,-0.0246711,0.0246711,0.0427315,-3.64379,7.5798)">
        <path d="M147.492,300.745L144.052,301.256L144.052,175.678L483.451,185.678L488.577,244.923L485.586,250.51L461.133,240.976L442.018,255.911L419.418,247.099L400.303,262.034L377.703,253.222L358.589,268.157L335.989,259.346L316.874,274.28L294.274,265.469L275.159,280.404L252.559,271.592L233.444,286.527L210.844,277.716L191.73,292.65L169.129,283.839L147.492,300.745Z" style="fill:rgb(182,202,212);"/>
    </g>
    <g transform="matrix(0.1718,-0.0925943,0.0269216,0.0499504,-64.8578,38.2911)">
        <path d="M472.3,195.53C472.3,192.77 471.649,190.53 470.846,190.53L391.254,190.53C390.451,190.53 389.8,192.77 389.8,195.53C389.8,198.289 390.451,200.53 391.254,200.53L470.846,200.53C471.649,200.53 472.3,198.289 472.3,195.53Z" style="fill:rgb(225,245,254);"/>
    </g>
</svg>
