<?xml version="1.0" encoding="UTF-8" standalone="no"?>
<!DOCTYPE svg PUBLIC "-//W3C//DTD SVG 1.1//EN" "http://www.w3.org/Graphics/SVG/1.1/DTD/svg11.dtd">
<svg width="100%" height="100%" viewBox="0 0 24 24" version="1.1" xmlns="http://www.w3.org/2000/svg" xmlns:xlink="http://www.w3.org/1999/xlink" xml:space="preserve" xmlns:serif="http://www.serif.com/" style="fill-rule:evenodd;clip-rule:evenodd;stroke-linejoin:round;stroke-miterlimit:2;">
    <g transform="matrix(0.0326791,0,0,0.0326791,-21.953,4.21343)">
        <path d="M943.912,541.823C943.912,552.861 934.951,561.823 923.912,561.823L861.412,561.823C850.374,561.823 841.412,552.861 841.412,541.823C841.412,541.823 841.462,500.185 841.56,499.386C841.528,491.989 840.309,482.386 831.912,471.823C813.847,449.098 769.967,394.977 743.412,362.823C729.255,345.68 730.756,328.549 734.912,311.823C743.762,276.206 771.796,164.973 780.912,126.323C783.768,114.217 794.069,103.188 812.412,106.323C828.879,109.137 830.877,124.909 829.912,137.323C827.796,164.556 820.629,232.139 818.912,249.323C818.248,255.969 815.111,255.702 812.412,254.823C797.474,249.956 781.813,255.428 773.412,264.323C756.396,282.339 761.627,304.626 773.912,317.323C793.312,337.373 844.212,385.823 844.212,385.823C851.34,392.951 858.251,382.161 852.412,376.323C852.412,376.323 800.796,326.023 784.412,309.823C775.99,301.495 770.143,287.092 782.912,274.323C795.682,261.553 813.036,267.055 822.412,276.323C845.229,298.873 901.162,353.173 923.412,374.823C938.334,389.342 943.912,408.944 943.912,433.823L943.912,541.823Z" style="fill:rgb(255,183,78);"/>
    </g>
    <g transform="matrix(0.0252693,0,0,0.0252693,5.40527,0.492232)">
        <path d="M486.903,68.609C486.903,51.153 472.73,36.98 455.273,36.98L66.683,36.98C49.227,36.98 35.054,51.153 35.054,68.609L35.054,457.2C35.054,474.656 49.227,488.829 66.683,488.829L455.273,488.829C472.73,488.829 486.903,474.656 486.903,457.2L486.903,68.609Z" style="fill:rgb(208,166,124);"/>
    </g>
    <g transform="matrix(0.0271188,0,0,0.0271188,5.41878,0.355935)">
        <path d="M300.108,39.484L300.108,122.866C300.108,128.606 295.447,133.267 289.707,133.267L195.655,133.267C189.915,133.267 185.254,128.606 185.254,122.866L185.254,39.484L300.108,39.484Z" style="fill:rgb(168,110,0);"/>
    </g>
    <g transform="matrix(0.0271188,0,0,0.0312456,5.2203,-1.24731)">
        <path d="M435.115,356.298C435.115,348.682 427.99,342.498 419.215,342.498L287.015,342.498C278.24,342.498 271.115,348.682 271.115,356.298L271.115,420.698C271.115,428.315 278.24,434.498 287.015,434.498L419.215,434.498C427.99,434.498 435.115,428.315 435.115,420.698L435.115,356.298Z" style="fill:rgb(248,248,248);"/>
    </g>
    <g transform="matrix(0.0241056,0,0,0.0271188,6.28431,0.0847468)">
        <rect x="290.115" y="368.498" width="126" height="20" style="fill:rgb(85,111,122);"/>
    </g>
    <g transform="matrix(0.0241056,0,0,0.0271188,6.28431,1.1695)">
        <rect x="290.115" y="368.498" width="126" height="20" style="fill:rgb(85,111,122);"/>
    </g>
    <g transform="matrix(-0.0326791,0,0,0.0326791,45.953,4.21343)">
        <path d="M943.912,541.823C943.912,552.861 934.951,561.823 923.912,561.823L861.412,561.823C850.374,561.823 841.412,552.861 841.412,541.823C841.412,541.823 841.462,500.185 841.56,499.386C841.528,491.989 840.309,482.386 831.912,471.823C813.847,449.098 769.967,394.977 743.412,362.823C729.255,345.68 730.756,328.549 734.912,311.823C743.762,276.206 771.796,164.973 780.912,126.323C783.768,114.217 794.069,103.188 812.412,106.323C828.879,109.137 830.877,124.909 829.912,137.323C827.796,164.556 820.629,232.139 818.912,249.323C818.248,255.969 815.111,255.702 812.412,254.823C797.474,249.956 781.813,255.428 773.412,264.323C756.396,282.339 761.627,304.626 773.912,317.323C793.312,337.373 844.212,385.823 844.212,385.823C851.34,392.951 858.251,382.161 852.412,376.323C852.412,376.323 800.796,326.023 784.412,309.823C775.99,301.495 770.143,287.092 782.912,274.323C795.682,261.553 813.036,267.055 822.412,276.323C845.229,298.873 901.162,353.173 923.412,374.823C938.334,389.342 943.912,408.944 943.912,433.823L943.912,541.823Z" style="fill:rgb(255,183,78);"/>
    </g>
</svg>
