<?xml version="1.0" encoding="UTF-8" standalone="no"?>
<!DOCTYPE svg PUBLIC "-//W3C//DTD SVG 1.1//EN" "http://www.w3.org/Graphics/SVG/1.1/DTD/svg11.dtd">
<svg width="100%" height="100%" viewBox="0 0 24 24" version="1.1" xmlns="http://www.w3.org/2000/svg" xmlns:xlink="http://www.w3.org/1999/xlink" xml:space="preserve" xmlns:serif="http://www.serif.com/" style="fill-rule:evenodd;clip-rule:evenodd;stroke-linejoin:round;stroke-miterlimit:2;">
    <g transform="matrix(0.053664,0,0,0.0568824,-2.29964,0.183531)">
        <rect x="338.213" y="46.225" width="67.797" height="107.088" style="fill:rgb(121,144,156);"/>
    </g>
    <g transform="matrix(0.048,0,0,0.048,-2.72848e-15,0.0661202)">
        <path d="M433.744,222.176L433.744,448.169C433.744,465.901 419.349,480.296 401.618,480.296L98.382,480.296C80.651,480.296 66.256,465.901 66.256,448.169L66.256,222.176L433.744,222.176Z" style="fill:rgb(207,216,220);"/>
    </g>
    <g transform="matrix(0.048,0,0,0.048,-2.72848e-15,0.0661202)">
        <path d="M195.67,480.296L195.67,338.963C195.67,328.312 204.318,319.664 214.969,319.664L285.031,319.664C295.682,319.664 304.33,328.312 304.33,338.963L304.33,480.296L195.67,480.296Z" style="fill:rgb(121,72,26);"/>
    </g>
    <g transform="matrix(0.0383685,0,0,0.0383685,1.95154,3.81684)">
        <circle cx="215.909" cy="412.677" r="13.29" style="fill:rgb(255,193,8);"/>
    </g>
    <g transform="matrix(0.0498925,0,0,0.0585484,-0.300147,0.112867)">
        <path d="M246.533,13.097L461.479,204.16L31.587,204.16L246.533,13.097Z" style="fill:rgb(255,61,0);"/>
    </g>
</svg>
