<?xml version="1.0" encoding="UTF-8" standalone="no"?>
<!DOCTYPE svg PUBLIC "-//W3C//DTD SVG 1.1//EN" "http://www.w3.org/Graphics/SVG/1.1/DTD/svg11.dtd">
<svg width="100%" height="100%" viewBox="0 0 24 24" version="1.1" xmlns="http://www.w3.org/2000/svg" xmlns:xlink="http://www.w3.org/1999/xlink" xml:space="preserve" xmlns:serif="http://www.serif.com/" style="fill-rule:evenodd;clip-rule:evenodd;stroke-linejoin:round;stroke-miterlimit:2;">
    <g transform="matrix(0.048,0,0,0.048,-2.51686,1.59332)">
        <path d="M116.718,439.923L116.718,133.143C116.718,121.238 126.384,111.572 138.29,111.572L310.863,111.572C322.769,111.572 332.435,121.238 332.435,133.143L332.435,439.923L116.718,439.923Z" style="fill:rgb(97,118,134);"/>
    </g>
    <g transform="matrix(0.048,0,0,0.048,4.95753,1.59332)">
        <path d="M116.718,439.923L116.718,133.143C116.718,121.238 126.384,111.572 138.29,111.572L310.863,111.572C322.769,111.572 332.435,121.238 332.435,133.143L332.435,439.923L116.718,439.923Z" style="fill:rgb(97,118,134);"/>
    </g>
    <g transform="matrix(0.048,0,0,0.048,1.22034,0.11094)">
        <path d="M116.718,463.806L116.718,133.143C116.718,121.238 126.384,111.572 138.29,111.572L310.863,111.572C322.769,111.572 332.435,121.238 332.435,133.143L332.435,463.806L116.718,463.806Z" style="fill:rgb(229,233,236);"/>
    </g>
    <g transform="matrix(0.0416666,0,0,0.0416666,1.29365,0.249617)">
        <circle cx="256.953" cy="103.64" r="75.905" style="fill:rgb(223,96,81);"/>
    </g>
    <g transform="matrix(0.04,0,0,0.0489942,2.09245,-0.350196)">
        <rect x="196.841" y="349.769" width="101.695" height="114.037" style="fill:rgb(144,202,249);"/>
    </g>
    <g transform="matrix(0.0349091,0,0,0.0204362,1.15125,5.77805)">
        <rect x="196.841" y="349.769" width="101.695" height="114.037" style="fill:rgb(144,202,249);"/>
    </g>
    <g transform="matrix(0.0349091,0,0,0.0204362,5.55557,5.77805)">
        <rect x="196.841" y="349.769" width="101.695" height="114.037" style="fill:rgb(144,202,249);"/>
    </g>
    <g transform="matrix(0.0349091,0,0,0.0204362,1.15125,2.48757)">
        <rect x="196.841" y="349.769" width="101.695" height="114.037" style="fill:rgb(144,202,249);"/>
    </g>
    <g transform="matrix(0.0349091,0,0,0.0204362,5.55557,2.48757)">
        <rect x="196.841" y="349.769" width="101.695" height="114.037" style="fill:rgb(144,202,249);"/>
    </g>
    <g transform="matrix(0.0595327,0,0,0.0296686,-1.32377,8.36219)">
        <path d="M395.609,472.265C395.609,463.336 391.996,456.086 387.546,456.086L60.066,456.086C55.616,456.086 52.003,463.336 52.003,472.265C52.003,481.194 55.616,488.444 60.066,488.444L387.546,488.444C391.996,488.444 395.609,481.194 395.609,472.265Z" style="fill:rgb(67,92,103);"/>
    </g>
    <g transform="matrix(0.0428943,0,0,0.048,1.37473,0.0748844)">
        <path d="M258.898,56.995C258.898,51.476 253.884,46.995 247.708,46.995C241.532,46.995 236.518,51.476 236.518,56.995L236.518,130.216C236.518,135.735 241.532,140.216 247.708,140.216C253.884,140.216 258.898,135.735 258.898,130.216L258.898,56.995Z" style="fill:rgb(229,233,236);"/>
    </g>
    <g transform="matrix(2.62652e-18,0.0428943,-0.048,2.93915e-18,16.4931,-6.05732)">
        <path d="M258.898,56.995C258.898,51.476 253.884,46.995 247.708,46.995C241.532,46.995 236.518,51.476 236.518,56.995L236.518,130.216C236.518,135.735 241.532,140.216 247.708,140.216C253.884,140.216 258.898,135.735 258.898,130.216L258.898,56.995Z" style="fill:rgb(229,233,236);"/>
    </g>
</svg>
