<?xml version="1.0" encoding="UTF-8" standalone="no"?>
<!DOCTYPE svg PUBLIC "-//W3C//DTD SVG 1.1//EN" "http://www.w3.org/Graphics/SVG/1.1/DTD/svg11.dtd">
<svg width="100%" height="100%" viewBox="0 0 24 24" version="1.1" xmlns="http://www.w3.org/2000/svg" xmlns:xlink="http://www.w3.org/1999/xlink" xml:space="preserve" xmlns:serif="http://www.serif.com/" style="fill-rule:evenodd;clip-rule:evenodd;stroke-linejoin:round;stroke-miterlimit:2;">
    <g transform="matrix(0.0473696,0,0,0.0612825,0.225095,-2.25162)">
        <rect x="238.237" y="106.388" width="22.667" height="99.333" style="fill:rgb(255,193,8);"/>
    </g>
    <g transform="matrix(0.00965793,0.0463746,-0.0599953,0.0124946,23.4286,-2.38399)">
        <rect x="238.237" y="106.388" width="22.667" height="99.333" style="fill:rgb(255,193,8);"/>
    </g>
    <g transform="matrix(-0.00965793,0.0463746,0.0599953,0.0124946,0.685275,-2.38399)">
        <rect x="238.237" y="106.388" width="22.667" height="99.333" style="fill:rgb(255,193,8);"/>
    </g>
    <g transform="matrix(-0.0398494,-0.0256107,0.0331328,-0.0515535,13.7462,31.1485)">
        <rect x="238.237" y="106.388" width="22.667" height="99.333" style="fill:rgb(255,193,8);"/>
    </g>
    <g transform="matrix(0.0398494,-0.0256107,-0.0331328,-0.0515535,10.2324,31.1485)">
        <rect x="238.237" y="106.388" width="22.667" height="99.333" style="fill:rgb(255,193,8);"/>
    </g>
    <g transform="matrix(0.0643979,0,0,0.0643979,-9.98584,-3.19009)">
        <circle cx="341.381" cy="238.8" r="64.686" style="fill:rgb(64,82,181);"/>
    </g>
    <g transform="matrix(0.0353126,0,0,0.0353126,-0.00786959,-4.43636)">
        <circle cx="341.381" cy="238.8" r="64.686" style="fill:rgb(64,82,181);"/>
    </g>
    <g transform="matrix(0.0353126,0,0,0.0353126,7.76671,1.92287)">
        <circle cx="341.381" cy="238.8" r="64.686" style="fill:rgb(64,82,181);"/>
    </g>
    <g transform="matrix(0.0353126,0,0,0.0353126,-7.87678,1.87407)">
        <circle cx="341.381" cy="238.8" r="64.686" style="fill:rgb(64,82,181);"/>
    </g>
    <g transform="matrix(0.0353126,0,0,0.0353126,-5.20878,11.5711)">
        <circle cx="341.381" cy="238.8" r="64.686" style="fill:rgb(64,82,181);"/>
    </g>
    <g transform="matrix(0.0353126,0,0,0.0353126,5.00775,11.5711)">
        <circle cx="341.381" cy="238.8" r="64.686" style="fill:rgb(64,82,181);"/>
    </g>
</svg>
