<?xml version="1.0" encoding="UTF-8" standalone="no"?>
<!DOCTYPE svg PUBLIC "-//W3C//DTD SVG 1.1//EN" "http://www.w3.org/Graphics/SVG/1.1/DTD/svg11.dtd">
<svg width="100%" height="100%" viewBox="0 0 24 24" version="1.1" xmlns="http://www.w3.org/2000/svg" xmlns:xlink="http://www.w3.org/1999/xlink" xml:space="preserve" xmlns:serif="http://www.serif.com/" style="fill-rule:evenodd;clip-rule:evenodd;stroke-linejoin:round;stroke-miterlimit:2;">
    <g transform="matrix(0.0301432,0,0,0.0301432,4.10424,0.776384)">
        <circle cx="261.941" cy="125.963" r="112.096" style="fill:rgb(187,222,251);"/>
    </g>
    <g transform="matrix(0.0301432,0,0,0.0301432,2.33056,4.1553)">
        <circle cx="261.941" cy="125.963" r="112.096" style="fill:rgb(148,88,48);"/>
    </g>
    <g transform="matrix(0.0301432,0,0,0.0301432,6.14547,4.1553)">
        <circle cx="261.941" cy="125.963" r="112.096" style="fill:rgb(233,111,169);"/>
    </g>
    <g transform="matrix(0.0514468,1.01825e-18,-1.01825e-18,-0.0431321,-0.54461,27.6239)">
        <path d="M243.837,111.71L343.991,416.795L143.683,416.795L243.837,111.71Z" style="fill:rgb(243,174,75);"/>
    </g>
    <g transform="matrix(0.0514468,0,0,0.0514468,-0.683334,-1.53054)">
        <path d="M357.088,211.094C357.088,203.015 350.529,196.456 342.45,196.456L150.616,196.456C142.537,196.456 135.978,203.015 135.978,211.094C135.978,219.173 142.537,225.732 150.616,225.732L342.45,225.732C350.529,225.732 357.088,219.173 357.088,211.094Z" style="fill:rgb(220,150,49);"/>
    </g>
    <g transform="matrix(0.048,0,0,0.048,0,0)">
        <path d="M279.147,400.679L268.226,428.571L258.485,438.312L262.744,442.57L257.969,454.766L250,446.797L242.031,454.766L237.256,442.57L241.515,438.312L231.774,428.571L220.853,400.679L250,429.826L279.147,400.679ZM305.517,203.154L342.148,239.785L328.761,273.973L305.517,297.217L315.68,307.38L310.905,319.576L297.031,305.703L258.485,344.249L289.212,374.975L284.437,387.171L250,352.734L215.563,387.171L210.788,374.975L241.515,344.249L202.969,305.703L189.095,319.576L184.32,307.38L194.483,297.217L171.239,273.973L157.852,239.785L194.483,203.154L192.301,200.972L213.636,200.972L211.454,203.154L250,241.7L288.546,203.154L286.364,200.972L307.699,200.972L305.517,203.154ZM211.454,297.217L250,335.763L288.546,297.217L250,258.671L211.454,297.217ZM164.422,250.186L202.969,288.732L241.515,250.186L202.969,211.64L164.422,250.186ZM258.485,250.186L297.031,288.732L335.578,250.186L297.031,211.64L258.485,250.186Z" style="fill:rgb(220,150,49);"/>
    </g>
</svg>
