<?xml version="1.0" encoding="UTF-8" standalone="no"?>
<!DOCTYPE svg PUBLIC "-//W3C//DTD SVG 1.1//EN" "http://www.w3.org/Graphics/SVG/1.1/DTD/svg11.dtd">
<svg width="100%" height="100%" viewBox="0 0 24 24" version="1.1" xmlns="http://www.w3.org/2000/svg" xmlns:xlink="http://www.w3.org/1999/xlink" xml:space="preserve" xmlns:serif="http://www.serif.com/" style="fill-rule:evenodd;clip-rule:evenodd;stroke-linejoin:round;stroke-miterlimit:2;">
    <g transform="matrix(0.048,0,0,0.048,-0.11094,0.3698)">
        <path d="M482.28,131.972C482.28,113.986 467.678,99.384 449.692,99.384L54.931,99.384C36.945,99.384 22.342,113.986 22.342,131.972L22.342,392.681C22.342,410.667 36.945,425.27 54.931,425.27L449.692,425.27C467.678,425.27 482.28,410.667 482.28,392.681L482.28,131.972Z" style="fill:rgb(226,227,227);"/>
    </g>
    <g transform="matrix(0.0259937,0,0,0.0259937,-0.571035,6.42354)">
        <rect x="216.826" y="233.224" width="73.089" height="92" style="fill:rgb(189,137,61);"/>
    </g>
    <g transform="matrix(0.0259937,0,0,0.0259937,-0.683682,6.69215)">
        <path d="M328.582,147.92C328.582,108.801 296.823,77.042 257.704,77.042C218.585,77.042 186.826,108.801 186.826,147.92L186.826,208.012C186.826,247.131 218.585,278.891 257.704,278.891C296.823,278.891 328.582,247.131 328.582,208.012L328.582,147.92Z" style="fill:rgb(255,183,78);"/>
    </g>
    <g transform="matrix(0.0259937,0,0,0.0259937,-0.664056,6.95209)">
        <ellipse cx="181.433" cy="183.359" rx="14.638" ry="19.26" style="fill:rgb(255,183,78);"/>
    </g>
    <g transform="matrix(0.0259937,0,0,0.0259937,3.26184,6.95209)">
        <ellipse cx="181.433" cy="183.359" rx="14.638" ry="19.26" style="fill:rgb(255,183,78);"/>
    </g>
    <g transform="matrix(0.0259937,0,0,0.0259937,-0.724935,6.64016)">
        <circle cx="227.08" cy="186.633" r="8.667" style="fill:rgb(121,72,26);"/>
    </g>
    <g transform="matrix(0.0259937,0,0,0.0259937,0.949638,6.64016)">
        <circle cx="227.08" cy="186.633" r="8.667" style="fill:rgb(121,72,26);"/>
    </g>
    <g transform="matrix(0.0259937,0,0,0.0259937,-0.683682,6.95209)">
        <path d="M196.826,151.772C226.474,158.616 259.227,144.735 289.915,115.562C293.669,137.044 302.495,147.781 318.582,147.92L318.582,183.359C318.582,183.359 330.461,170.517 331.327,164.099C337.146,120.965 339.24,78.944 307.011,77.057C290.728,33.504 186.826,60.601 186.826,134.119L186.826,164.099C187.068,174.052 191.872,178.79 196.826,183.359L196.826,151.772Z" style="fill:rgb(67,67,67);"/>
    </g>
    <g transform="matrix(0.0259937,0,0,0.0259937,-0.683682,6.69215)">
        <path d="M143.753,416.224C124.476,416.224 112.072,402.326 116.708,383.615C128.782,334.888 167.9,299.224 221.159,299.224L259.001,303.998L296.843,299.224C350.102,299.224 389.221,334.888 401.295,383.615C405.931,402.326 393.526,416.224 374.25,416.224L143.753,416.224Z" style="fill:rgb(37,94,123);"/>
    </g>
    <g transform="matrix(0.0183803,0.0183803,-0.0183803,0.0183803,7.3899,3.74449)">
        <rect x="260.799" y="331.224" width="26.5" height="26.5" style="fill:rgb(226,226,226);"/>
    </g>
    <g transform="matrix(0.0259937,0,0,0.0259937,-0.574189,6.69215)">
        <path d="M263.753,327.558L250.42,327.558L239.42,416.224L273.753,416.224L263.753,327.558Z" style="fill:rgb(226,226,226);"/>
    </g>
    <g transform="matrix(0.0587463,0,0,0.0587463,-2.53727,-0.614572)">
        <circle cx="245.57" cy="122.304" r="12.904" style="fill:rgb(56,72,80);"/>
    </g>
    <g transform="matrix(0.0363871,0,0,0.048,2.93245,0.3698)">
        <path d="M258.089,83.012C258.089,78.016 252.739,73.96 246.148,73.96C239.557,73.96 234.206,78.016 234.206,83.012L234.206,120.125C234.206,125.121 239.557,129.177 246.148,129.177C252.739,129.177 258.089,125.121 258.089,120.125L258.089,83.012Z" style="fill:rgb(144,164,174);"/>
    </g>
    <g transform="matrix(0.048,0,0,0.048,0.22188,0.14792)">
        <path d="M265.794,49.114C265.794,42.842 260.702,37.75 254.43,37.75L231.703,37.75C225.431,37.75 220.339,42.842 220.339,49.114L220.339,81.086C220.339,87.358 225.431,92.45 231.703,92.45L254.43,92.45C260.702,92.45 265.794,87.358 265.794,81.086L265.794,49.114Z" style="fill:rgb(244,68,55);"/>
    </g>
    <g transform="matrix(0.0555796,0,0,0.0630212,3.73227,3.15646)">
        <rect x="140.937" y="115.207" width="168.971" height="15.233" style="fill:rgb(54,60,63);"/>
    </g>
    <g transform="matrix(0.0555796,0,0,0.0630212,3.73227,5.22097)">
        <rect x="140.937" y="115.207" width="168.971" height="15.233" style="fill:rgb(54,60,63);"/>
    </g>
    <g transform="matrix(0.0555796,0,0,0.0630212,3.73227,7.28549)">
        <rect x="140.937" y="115.207" width="168.971" height="15.233" style="fill:rgb(54,60,63);"/>
    </g>
</svg>
