<?xml version="1.0" encoding="UTF-8" standalone="no"?>
<!DOCTYPE svg PUBLIC "-//W3C//DTD SVG 1.1//EN" "http://www.w3.org/Graphics/SVG/1.1/DTD/svg11.dtd">
<svg width="100%" height="100%" viewBox="0 0 24 24" version="1.1" xmlns="http://www.w3.org/2000/svg" xmlns:xlink="http://www.w3.org/1999/xlink" xml:space="preserve" xmlns:serif="http://www.serif.com/" style="fill-rule:evenodd;clip-rule:evenodd;stroke-linejoin:round;stroke-miterlimit:2;">
    <g transform="matrix(0.048,0,0,0.048,0,0.671992)">
        <path d="M250,209.655C276.306,179.242 324.434,133.334 375.255,133.334C431.918,133.334 477.922,179.337 477.922,236C477.922,292.663 431.918,338.667 375.255,338.667C324.434,338.667 276.306,292.758 250,262.345C223.694,292.758 175.566,338.667 124.745,338.667C68.082,338.667 22.078,292.663 22.078,236C22.078,179.337 68.082,133.334 124.745,133.334C175.566,133.334 223.694,179.242 250,209.655ZM229.277,236C229.277,236 179.251,168.604 124.919,168.604C87.722,168.604 57.523,198.803 57.523,236C57.523,273.197 87.722,303.396 124.919,303.396C179.251,303.396 229.277,236 229.277,236ZM270.723,236C270.723,236 320.749,168.604 375.081,168.604C412.278,168.604 442.477,198.803 442.477,236C442.477,273.197 412.278,303.396 375.081,303.396C320.749,303.396 270.723,236 270.723,236Z" style="fill:rgb(64,82,181);"/>
    </g>
</svg>
