<?xml version="1.0" encoding="UTF-8" standalone="no"?>
<!DOCTYPE svg PUBLIC "-//W3C//DTD SVG 1.1//EN" "http://www.w3.org/Graphics/SVG/1.1/DTD/svg11.dtd">
<svg width="100%" height="100%" viewBox="0 0 24 24" version="1.1" xmlns="http://www.w3.org/2000/svg" xmlns:xlink="http://www.w3.org/1999/xlink" xml:space="preserve" xmlns:serif="http://www.serif.com/" style="fill-rule:evenodd;clip-rule:evenodd;stroke-linejoin:round;stroke-miterlimit:2;">
    <g transform="matrix(0.0596928,0,0,0.0596928,-1.89997,-1.83098)">
        <circle cx="232.858" cy="231.703" r="180.085" style="fill:rgb(34,150,243);"/>
    </g>
    <g transform="matrix(0.0596928,0,0,0.0596928,-2.92321,-2.92321)">
        <path d="M240,70.189C243.302,70.007 246.641,69.915 250,69.915C253.359,69.915 256.698,70.007 260,70.189L260,429.811C256.698,429.993 253.359,430.085 250,430.085C246.641,430.085 243.302,429.993 240,429.811L240,70.189Z" style="fill:rgb(187,222,251);"/>
    </g>
    <g transform="matrix(0.0596928,0,0,0.0596928,-2.92321,-2.92321)">
        <path d="M429.811,240C429.993,243.302 430.085,246.641 430.085,250C430.085,253.359 429.993,256.698 429.811,260L70.189,260C70.007,256.698 69.915,253.359 69.915,250C69.915,246.641 70.007,243.302 70.189,240L429.811,240Z" style="fill:rgb(187,222,251);"/>
    </g>
    <g transform="matrix(0.0596928,0,0,0.0596928,-2.92321,-2.92321)">
        <path d="M255.393,69.995C266.548,70.324 277.448,71.67 288.02,73.943C317.902,101.796 355.042,155.433 355.042,250C355.042,344.567 317.902,398.204 288.02,426.057C277.454,428.331 266.549,429.677 255.393,430.005C286.105,408.077 335.042,356.437 335.042,250C335.042,143.563 286.105,91.923 255.393,69.995Z" style="fill:rgb(187,222,251);"/>
    </g>
    <g transform="matrix(0.0596928,0,0,0.0596928,-2.92321,-2.92321)">
        <path d="M374.556,119.986C379.264,124.497 383.727,129.26 387.927,134.26C356.83,153.798 312.296,169.915 250,169.915C187.704,169.915 143.17,153.798 112.073,134.26C116.269,129.265 120.732,124.501 125.444,119.986C154.651,136.854 195.013,149.915 250,149.915C304.987,149.915 345.349,136.854 374.556,119.986Z" style="fill:rgb(187,222,251);"/>
    </g>
    <g transform="matrix(0.0596928,0,0,0.0596928,-2.92321,-2.92321)">
        <path d="M112.073,365.74C143.17,346.202 187.704,330.085 250,330.085C312.296,330.085 356.83,346.202 387.927,365.74C383.731,370.735 379.268,375.499 374.556,380.014C345.349,363.146 304.987,350.085 250,350.085C195.013,350.085 154.651,363.146 125.444,380.014C120.736,375.503 116.273,370.74 112.073,365.74Z" style="fill:rgb(187,222,251);"/>
    </g>
    <g transform="matrix(0.0596928,0,0,0.0596928,-2.92321,-2.92321)">
        <path d="M244.607,69.995C213.895,91.923 164.958,143.563 164.958,250C164.958,356.437 213.895,408.077 244.607,430.005C233.452,429.676 222.552,428.33 211.98,426.057C182.098,398.204 144.958,344.567 144.958,250C144.958,155.433 182.098,101.796 211.98,73.943C222.546,71.669 233.451,70.323 244.607,69.995Z" style="fill:rgb(187,222,251);"/>
    </g>
    <g transform="matrix(0.048,0,0,0.048,-0.501827,-0.48074)">
        <path d="M421.526,260.015C421.526,229.188 396.498,204.16 365.671,204.16L155.239,204.16C124.412,204.16 99.384,229.188 99.384,260.015C99.384,290.843 124.412,315.871 155.239,315.871L365.671,315.871C396.498,315.871 421.526,290.843 421.526,260.015Z" style="fill:rgb(70,91,101);"/>
    </g>
    <g transform="matrix(0.0827237,0,0,0.0827237,-10.3877,-7.16867)">
        <text x="200.308px" y="249.615px" style="font-family:'ArialRoundedMTBold', 'Arial Rounded MT Bold', sans-serif;font-size:50px;fill:rgb(187,222,251);">WWW</text>
    </g>
</svg>
