<?xml version="1.0" encoding="UTF-8" standalone="no"?>
<!DOCTYPE svg PUBLIC "-//W3C//DTD SVG 1.1//EN" "http://www.w3.org/Graphics/SVG/1.1/DTD/svg11.dtd">
<svg width="100%" height="100%" viewBox="0 0 24 24" version="1.1" xmlns="http://www.w3.org/2000/svg" xmlns:xlink="http://www.w3.org/1999/xlink" xml:space="preserve" xmlns:serif="http://www.serif.com/" style="fill-rule:evenodd;clip-rule:evenodd;stroke-linejoin:round;stroke-miterlimit:2;">
    <g transform="matrix(0.0342012,0,0,0.0342012,0.599569,0.599616)">
        <path d="M333.333,17.554C158.928,17.554 17.555,158.933 17.555,333.333C17.555,351.257 19.127,368.802 21.994,385.904C22.314,385.867 22.628,385.846 22.943,385.808C39.139,518.158 213.204,732.184 471.903,615.471C200.69,664.829 95.058,465.187 87.98,375.314C88.129,375.266 88.268,375.202 88.417,375.165C88.14,373.529 87.927,371.871 87.681,370.23C87.655,369.596 87.618,368.945 87.607,368.317L87.394,368.311C85.763,356.879 84.841,345.218 84.841,333.333C84.841,196.096 196.091,84.841 333.333,84.841C470.571,84.841 581.826,196.096 581.826,333.333C581.826,391.634 561.675,445.191 528.04,487.566C514.721,502.846 496.787,500.651 489.496,492.033L366.169,328.467L478.091,184.568C455.44,149.926 404.809,140.599 404.809,140.599L294.219,293.825C294.219,293.825 284.008,308.929 284.893,289.828L284.893,127.275C284.893,127.275 208.28,157.92 195.622,177.906L195.622,525.662C209.372,545.792 284.893,569.632 284.893,569.632L284.893,361.83C284.893,361.83 287.11,351.129 292.887,361.83L414.135,544.316C422.556,560.891 512.978,631.998 587.593,520.514C626.232,468.135 649.112,403.417 649.112,333.333C649.112,158.933 507.734,17.554 333.333,17.554" style="fill:rgb(211,48,48);fill-rule:nonzero;"/>
    </g>
</svg>
