<?xml version="1.0" encoding="UTF-8" standalone="no"?>
<!DOCTYPE svg PUBLIC "-//W3C//DTD SVG 1.1//EN" "http://www.w3.org/Graphics/SVG/1.1/DTD/svg11.dtd">
<svg width="100%" height="100%" viewBox="0 0 24 24" version="1.1" xmlns="http://www.w3.org/2000/svg" xmlns:xlink="http://www.w3.org/1999/xlink" xml:space="preserve" xmlns:serif="http://www.serif.com/" style="fill-rule:evenodd;clip-rule:evenodd;stroke-linejoin:round;stroke-miterlimit:2;">
    <g transform="matrix(0.048,0,0,0.048,0.357972,0.00774197)">
        <circle cx="242.542" cy="249.839" r="226.029" style="fill:rgb(251,140,1);"/>
    </g>
    <g transform="matrix(5.39728,0,0,5.39728,2.56925,13.9317)">
        <path d="M0.224,-0.64L0.224,-0.389L0.509,-0.686C0.522,-0.7 0.534,-0.711 0.544,-0.718C0.553,-0.725 0.566,-0.728 0.582,-0.728C0.603,-0.728 0.62,-0.722 0.633,-0.71C0.645,-0.698 0.652,-0.683 0.652,-0.665C0.652,-0.644 0.641,-0.623 0.619,-0.602L0.443,-0.435L0.646,-0.144C0.66,-0.124 0.671,-0.106 0.678,-0.091C0.685,-0.076 0.689,-0.061 0.689,-0.047C0.689,-0.031 0.683,-0.017 0.67,-0.005C0.658,0.006 0.641,0.012 0.619,0.012C0.599,0.012 0.583,0.008 0.57,-0.001C0.557,-0.009 0.546,-0.021 0.538,-0.035C0.529,-0.049 0.521,-0.063 0.514,-0.074L0.343,-0.338L0.224,-0.224L0.224,-0.076C0.224,-0.046 0.217,-0.024 0.204,-0.01C0.19,0.005 0.172,0.012 0.151,0.012C0.139,0.012 0.127,0.009 0.115,0.002C0.104,-0.004 0.095,-0.013 0.089,-0.024C0.084,-0.033 0.082,-0.044 0.081,-0.056C0.08,-0.068 0.079,-0.085 0.079,-0.108L0.079,-0.64C0.079,-0.669 0.086,-0.691 0.098,-0.706C0.111,-0.721 0.129,-0.728 0.151,-0.728C0.173,-0.728 0.19,-0.721 0.204,-0.706C0.217,-0.692 0.224,-0.67 0.224,-0.64Z" style="fill:rgb(67,67,67);fill-rule:nonzero;"/>
    </g>
    <g transform="matrix(5.39728,0,0,5.39728,6.5645,13.9317)">
        <path d="M0.536,-0.081L0.502,-0.171L0.211,-0.171L0.177,-0.079C0.163,-0.043 0.152,-0.019 0.143,-0.007C0.133,0.006 0.118,0.012 0.096,0.012C0.078,0.012 0.062,0.006 0.048,-0.008C0.034,-0.021 0.027,-0.036 0.027,-0.053C0.027,-0.063 0.028,-0.073 0.032,-0.083C0.035,-0.094 0.04,-0.108 0.048,-0.127L0.231,-0.592C0.236,-0.605 0.242,-0.621 0.25,-0.64C0.257,-0.659 0.265,-0.674 0.273,-0.687C0.281,-0.699 0.292,-0.709 0.306,-0.717C0.319,-0.724 0.336,-0.728 0.356,-0.728C0.376,-0.728 0.393,-0.724 0.406,-0.717C0.42,-0.709 0.431,-0.699 0.439,-0.687C0.448,-0.675 0.455,-0.662 0.46,-0.648C0.466,-0.634 0.473,-0.616 0.482,-0.593L0.669,-0.131C0.684,-0.096 0.691,-0.07 0.691,-0.054C0.691,-0.038 0.684,-0.022 0.67,-0.009C0.656,0.005 0.64,0.012 0.62,0.012C0.609,0.012 0.599,0.01 0.591,0.006C0.583,0.002 0.576,-0.003 0.57,-0.01C0.565,-0.017 0.559,-0.028 0.552,-0.043C0.546,-0.057 0.541,-0.07 0.536,-0.081ZM0.249,-0.28L0.463,-0.28L0.355,-0.575L0.249,-0.28Z" style="fill:rgb(67,67,67);fill-rule:nonzero;"/>
    </g>
    <g transform="matrix(5.39728,0,0,5.39728,10.4464,13.9317)">
        <path d="M0.356,-0.279L0.223,-0.279L0.223,-0.076C0.223,-0.047 0.216,-0.025 0.203,-0.01C0.189,0.005 0.172,0.012 0.151,0.012C0.129,0.012 0.111,0.005 0.098,-0.01C0.085,-0.025 0.078,-0.047 0.078,-0.075L0.078,-0.627C0.078,-0.659 0.085,-0.682 0.1,-0.695C0.115,-0.709 0.138,-0.716 0.17,-0.716L0.356,-0.716C0.411,-0.716 0.453,-0.712 0.483,-0.703C0.512,-0.695 0.538,-0.681 0.559,-0.663C0.58,-0.644 0.596,-0.621 0.607,-0.593C0.618,-0.566 0.624,-0.535 0.624,-0.501C0.624,-0.428 0.602,-0.373 0.557,-0.335C0.512,-0.298 0.445,-0.279 0.356,-0.279ZM0.321,-0.607L0.223,-0.607L0.223,-0.388L0.321,-0.388C0.355,-0.388 0.384,-0.392 0.406,-0.399C0.429,-0.406 0.447,-0.418 0.459,-0.434C0.471,-0.45 0.477,-0.472 0.477,-0.498C0.477,-0.53 0.468,-0.555 0.449,-0.575C0.428,-0.596 0.386,-0.607 0.321,-0.607Z" style="fill:rgb(67,67,67);fill-rule:nonzero;"/>
    </g>
    <g transform="matrix(5.39728,0,0,5.39728,14.0464,13.9317)">
        <path d="M0.356,-0.279L0.223,-0.279L0.223,-0.076C0.223,-0.047 0.216,-0.025 0.203,-0.01C0.189,0.005 0.172,0.012 0.151,0.012C0.129,0.012 0.111,0.005 0.098,-0.01C0.085,-0.025 0.078,-0.047 0.078,-0.075L0.078,-0.627C0.078,-0.659 0.085,-0.682 0.1,-0.695C0.115,-0.709 0.138,-0.716 0.17,-0.716L0.356,-0.716C0.411,-0.716 0.453,-0.712 0.483,-0.703C0.512,-0.695 0.538,-0.681 0.559,-0.663C0.58,-0.644 0.596,-0.621 0.607,-0.593C0.618,-0.566 0.624,-0.535 0.624,-0.501C0.624,-0.428 0.602,-0.373 0.557,-0.335C0.512,-0.298 0.445,-0.279 0.356,-0.279ZM0.321,-0.607L0.223,-0.607L0.223,-0.388L0.321,-0.388C0.355,-0.388 0.384,-0.392 0.406,-0.399C0.429,-0.406 0.447,-0.418 0.459,-0.434C0.471,-0.45 0.477,-0.472 0.477,-0.498C0.477,-0.53 0.468,-0.555 0.449,-0.575C0.428,-0.596 0.386,-0.607 0.321,-0.607Z" style="fill:rgb(67,67,67);fill-rule:nonzero;"/>
    </g>
    <g transform="matrix(5.39728,0,0,5.39728,17.6463,13.9317)">
        <path d="M0.622,-0.215C0.622,-0.172 0.611,-0.133 0.589,-0.098C0.566,-0.064 0.534,-0.037 0.491,-0.017C0.448,0.002 0.397,0.012 0.338,0.012C0.267,0.012 0.209,-0.001 0.163,-0.028C0.131,-0.047 0.104,-0.073 0.084,-0.105C0.063,-0.137 0.053,-0.168 0.053,-0.198C0.053,-0.216 0.059,-0.231 0.072,-0.243C0.084,-0.256 0.099,-0.262 0.118,-0.262C0.133,-0.262 0.146,-0.257 0.157,-0.248C0.168,-0.238 0.177,-0.223 0.184,-0.204C0.193,-0.181 0.203,-0.162 0.214,-0.147C0.224,-0.132 0.239,-0.119 0.258,-0.109C0.278,-0.099 0.303,-0.094 0.334,-0.094C0.377,-0.094 0.412,-0.104 0.439,-0.124C0.466,-0.144 0.479,-0.169 0.479,-0.199C0.479,-0.223 0.472,-0.242 0.457,-0.257C0.443,-0.272 0.424,-0.283 0.401,-0.291C0.378,-0.299 0.347,-0.307 0.309,-0.316C0.258,-0.328 0.215,-0.342 0.18,-0.358C0.145,-0.374 0.118,-0.396 0.097,-0.424C0.077,-0.452 0.067,-0.486 0.067,-0.528C0.067,-0.567 0.078,-0.602 0.099,-0.633C0.121,-0.663 0.152,-0.687 0.192,-0.703C0.233,-0.72 0.281,-0.728 0.336,-0.728C0.38,-0.728 0.418,-0.723 0.45,-0.712C0.482,-0.701 0.509,-0.686 0.53,-0.668C0.551,-0.65 0.566,-0.631 0.576,-0.611C0.586,-0.591 0.591,-0.572 0.591,-0.553C0.591,-0.536 0.585,-0.52 0.573,-0.507C0.56,-0.493 0.545,-0.486 0.527,-0.486C0.51,-0.486 0.498,-0.49 0.489,-0.498C0.48,-0.507 0.471,-0.52 0.461,-0.539C0.448,-0.566 0.432,-0.587 0.414,-0.602C0.396,-0.617 0.367,-0.625 0.326,-0.625C0.289,-0.625 0.259,-0.617 0.236,-0.6C0.213,-0.584 0.201,-0.564 0.201,-0.541C0.201,-0.527 0.205,-0.514 0.213,-0.504C0.221,-0.493 0.231,-0.485 0.245,-0.477C0.259,-0.47 0.273,-0.464 0.287,-0.459C0.301,-0.455 0.324,-0.449 0.356,-0.441C0.396,-0.431 0.433,-0.421 0.466,-0.41C0.498,-0.398 0.526,-0.384 0.549,-0.368C0.572,-0.352 0.59,-0.331 0.603,-0.306C0.616,-0.281 0.622,-0.251 0.622,-0.215Z" style="fill:rgb(67,67,67);fill-rule:nonzero;"/>
    </g>
</svg>
