<?xml version="1.0" encoding="UTF-8" standalone="no"?>
<!DOCTYPE svg PUBLIC "-//W3C//DTD SVG 1.1//EN" "http://www.w3.org/Graphics/SVG/1.1/DTD/svg11.dtd">
<svg width="100%" height="100%" viewBox="0 0 24 24" version="1.1" xmlns="http://www.w3.org/2000/svg" xmlns:xlink="http://www.w3.org/1999/xlink" xml:space="preserve" xmlns:serif="http://www.serif.com/" style="fill-rule:evenodd;clip-rule:evenodd;stroke-linejoin:round;stroke-miterlimit:2;">
    <g transform="matrix(0.048,0,0,0.048,-0.954128,-1.48826)">
        <circle cx="147.306" cy="97.149" r="36.286" style="fill:rgb(97,126,139);"/>
    </g>
    <g transform="matrix(0.048,0,0,0.048,4.9293,-1.48826)">
        <circle cx="147.306" cy="97.149" r="36.286" style="fill:rgb(97,126,139);"/>
    </g>
    <g transform="matrix(0.048,0,0,0.048,10.8127,-1.48826)">
        <circle cx="147.306" cy="97.149" r="36.286" style="fill:rgb(97,126,139);"/>
    </g>
    <g transform="matrix(0.048,0,0,0.048,-0.954128,4.39516)">
        <circle cx="147.306" cy="97.149" r="36.286" style="fill:rgb(97,126,139);"/>
    </g>
    <g transform="matrix(0.048,0,0,0.048,4.9293,4.39516)">
        <circle cx="147.306" cy="97.149" r="36.286" style="fill:rgb(97,126,139);"/>
    </g>
    <g transform="matrix(0.048,0,0,0.048,10.8127,4.39516)">
        <circle cx="147.306" cy="97.149" r="36.286" style="fill:rgb(97,126,139);"/>
    </g>
    <g transform="matrix(0.048,0,0,0.048,-0.954128,10.2786)">
        <circle cx="147.306" cy="97.149" r="36.286" style="fill:rgb(97,126,139);"/>
    </g>
    <g transform="matrix(0.048,0,0,0.048,4.9293,10.2786)">
        <circle cx="147.306" cy="97.149" r="36.286" style="fill:rgb(97,126,139);"/>
    </g>
    <g transform="matrix(0.048,0,0,0.048,10.8127,10.2786)">
        <circle cx="147.306" cy="97.149" r="36.286" style="fill:rgb(97,126,139);"/>
    </g>
    <g transform="matrix(0.048,0,0,0.048,4.9293,16.162)">
        <circle cx="147.306" cy="97.149" r="36.286" style="fill:rgb(97,126,139);"/>
    </g>
</svg>
