<?xml version="1.0" encoding="UTF-8" standalone="no"?>
<!DOCTYPE svg PUBLIC "-//W3C//DTD SVG 1.1//EN" "http://www.w3.org/Graphics/SVG/1.1/DTD/svg11.dtd">
<svg width="100%" height="100%" viewBox="0 0 24 24" version="1.1" xmlns="http://www.w3.org/2000/svg" xmlns:xlink="http://www.w3.org/1999/xlink" xml:space="preserve" xmlns:serif="http://www.serif.com/" style="fill-rule:evenodd;clip-rule:evenodd;stroke-linejoin:round;stroke-miterlimit:2;">
    <g transform="matrix(0.0497413,0,0,0.0497413,-0.856865,-0.757172)">
        <path d="M203.647,101.115C196.748,101.115 191.147,95.514 191.147,88.615C191.147,81.716 196.748,76.115 203.647,76.115L383.087,76.115C406.267,76.115 425.087,94.934 425.087,118.115C425.087,141.295 406.267,160.115 383.087,160.115L284.246,160.115C274.864,160.115 267.246,167.732 267.246,177.115C267.246,179.39 267.882,195.258 267.882,199.463C267.882,206.353 242.826,214.892 242.826,202.541C242.826,197.341 242.246,182.315 242.246,177.115C242.246,153.934 261.066,135.115 284.246,135.115L383.087,135.115C392.469,135.115 400.087,127.497 400.087,118.115C400.087,108.732 392.469,101.115 383.087,101.115L203.647,101.115Z" style="fill:rgb(70,91,101);"/>
    </g>
    <g transform="matrix(0.0500056,0,0,0.046088,-0.925164,0.377101)">
        <path d="M478.043,201.387C478.043,186.335 466.78,174.114 452.907,174.114L64.042,174.114C50.169,174.114 38.906,186.335 38.906,201.387L38.906,419.569C38.906,434.621 50.169,446.841 64.042,446.841L452.907,446.841C466.78,446.841 478.043,434.621 478.043,419.569L478.043,201.387Z" style="fill:rgb(97,126,139);"/>
    </g>
    <g transform="matrix(0.0497413,0,0,0.0497413,-0.59168,-0.395647)">
        <rect x="73.575" y="218.028" width="45.455" height="45.455" style="fill:rgb(207,216,220);"/>
    </g>
    <g transform="matrix(0.0497413,0,0,0.0497413,15.0113,-0.395647)">
        <rect x="73.575" y="218.028" width="45.455" height="45.455" style="fill:rgb(207,216,220);"/>
    </g>
    <g transform="matrix(0.0497413,0,0,0.0497413,11.8907,-0.395647)">
        <rect x="73.575" y="218.028" width="45.455" height="45.455" style="fill:rgb(207,216,220);"/>
    </g>
    <g transform="matrix(0.0497413,0,0,0.0497413,8.77011,-0.395647)">
        <rect x="73.575" y="218.028" width="45.455" height="45.455" style="fill:rgb(207,216,220);"/>
    </g>
    <g transform="matrix(0.0497413,0,0,0.0497413,5.64951,-0.395647)">
        <rect x="73.575" y="218.028" width="45.455" height="45.455" style="fill:rgb(207,216,220);"/>
    </g>
    <g transform="matrix(0.0497413,0,0,0.0497413,2.52892,-0.395647)">
        <rect x="73.575" y="218.028" width="45.455" height="45.455" style="fill:rgb(207,216,220);"/>
    </g>
    <g transform="matrix(0.0497413,0,0,0.0497413,-0.59168,5.8175)">
        <rect x="73.575" y="218.028" width="45.455" height="45.455" style="fill:rgb(207,216,220);"/>
    </g>
    <g transform="matrix(0.0497413,0,0,0.0497413,15.0113,5.8175)">
        <rect x="73.575" y="218.028" width="45.455" height="45.455" style="fill:rgb(207,216,220);"/>
    </g>
    <g transform="matrix(0.255701,0,0,0.0497413,-12.6245,5.8175)">
        <rect x="73.575" y="218.028" width="45.455" height="45.455" style="fill:rgb(207,216,220);"/>
    </g>
    <g transform="matrix(0.0497413,0,0,0.0497413,0.968618,2.71092)">
        <rect x="73.575" y="218.028" width="45.455" height="45.455" style="fill:rgb(207,216,220);"/>
    </g>
    <g transform="matrix(0.0497413,0,0,0.0497413,13.451,2.71092)">
        <rect x="73.575" y="218.028" width="45.455" height="45.455" style="fill:rgb(207,216,220);"/>
    </g>
    <g transform="matrix(0.0497413,0,0,0.0497413,10.3304,2.71092)">
        <rect x="73.575" y="218.028" width="45.455" height="45.455" style="fill:rgb(207,216,220);"/>
    </g>
    <g transform="matrix(0.0497413,0,0,0.0497413,7.20981,2.71092)">
        <rect x="73.575" y="218.028" width="45.455" height="45.455" style="fill:rgb(207,216,220);"/>
    </g>
    <g transform="matrix(0.0497413,0,0,0.0497413,4.08922,2.71092)">
        <rect x="73.575" y="218.028" width="45.455" height="45.455" style="fill:rgb(207,216,220);"/>
    </g>
</svg>
