<?xml version="1.0" encoding="UTF-8" standalone="no"?>
<!DOCTYPE svg PUBLIC "-//W3C//DTD SVG 1.1//EN" "http://www.w3.org/Graphics/SVG/1.1/DTD/svg11.dtd">
<svg width="100%" height="100%" viewBox="0 0 24 24" version="1.1" xmlns="http://www.w3.org/2000/svg" xmlns:xlink="http://www.w3.org/1999/xlink" xml:space="preserve" xmlns:serif="http://www.serif.com/" style="fill-rule:evenodd;clip-rule:evenodd;stroke-linejoin:round;stroke-miterlimit:2;">
    <g transform="matrix(0.0424036,0,0,0.048,0.157704,0.156541)">
        <path d="M216.014,214.807C216.014,208.132 209.879,202.712 202.322,202.712L35.264,202.712C27.707,202.712 21.572,208.132 21.572,214.807L21.572,371.572C21.572,378.247 27.707,383.667 35.264,383.667L202.322,383.667C209.879,383.667 216.014,378.247 216.014,371.572L216.014,214.807Z" style="fill:rgb(67,67,67);"/>
    </g>
    <g transform="matrix(0.0424036,0,0,0.048,7.44276,0.156541)">
        <path d="M193.374,154.807C193.374,148.132 187.239,142.712 179.683,142.712L35.264,142.712C27.707,142.712 21.572,148.132 21.572,154.807L21.572,371.572C21.572,378.247 27.707,383.667 35.264,383.667L179.683,383.667C187.239,383.667 193.374,378.247 193.374,371.572L193.374,154.807Z" style="fill:rgb(67,67,67);"/>
    </g>
    <g transform="matrix(0.0424036,0,0,0.048,14.7278,0.156541)">
        <path d="M193.374,274.807C193.374,268.132 187.239,262.712 179.683,262.712L12.624,262.712C5.067,262.712 -1.068,268.132 -1.068,274.807L-1.068,371.572C-1.068,378.247 5.067,383.667 12.624,383.667L179.683,383.667C187.239,383.667 193.374,378.247 193.374,371.572L193.374,274.807Z" style="fill:rgb(67,67,67);"/>
    </g>
    <g transform="matrix(0.048,0,0,0.048,-0.794033,-9.11556)">
        <text x="232.666px" y="439.908px" style="font-family:'ArialRoundedMTBold', 'Arial Rounded MT Bold', sans-serif;font-size:125px;fill:rgb(180,221,255);">1</text>
    </g>
    <g transform="matrix(0.048,0,0,0.048,6.32413,-3.33849)">
        <text x="232.666px" y="439.908px" style="font-family:'ArialRoundedMTBold', 'Arial Rounded MT Bold', sans-serif;font-size:125px;fill:rgb(180,221,255);">3</text>
    </g>
    <g transform="matrix(0.048,0,0,0.048,-8.28699,-6.23556)">
        <text x="232.666px" y="439.908px" style="font-family:'ArialRoundedMTBold', 'Arial Rounded MT Bold', sans-serif;font-size:125px;fill:rgb(180,221,255);">2</text>
    </g>
</svg>
