<?xml version="1.0" encoding="UTF-8" standalone="no"?>
<!DOCTYPE svg PUBLIC "-//W3C//DTD SVG 1.1//EN" "http://www.w3.org/Graphics/SVG/1.1/DTD/svg11.dtd">
<svg width="100%" height="100%" viewBox="0 0 24 24" version="1.1" xmlns="http://www.w3.org/2000/svg" xmlns:xlink="http://www.w3.org/1999/xlink" xml:space="preserve" xmlns:serif="http://www.serif.com/" style="fill-rule:evenodd;clip-rule:evenodd;stroke-linejoin:round;stroke-miterlimit:2;">
    <g transform="matrix(0.048,0,0,-0.048,-0.417941,24.1888)">
        <path d="M153.385,116.988L182.051,116.988C195.437,91.583 221.284,80.916 250,80.916L394.051,80.916C420.661,80.916 447.026,97.954 453.385,134.322C463.718,193.417 476.274,265.71 484.051,307.488C489.412,336.282 468.454,356.988 448.051,356.988L305.385,356.988C305.385,356.988 314.615,414.099 304.718,446.988C297.752,470.137 262.412,471.066 250,450.322C235.386,425.897 188.718,321.655 188.718,321.655L154.091,321.655L153.385,116.988" style="fill:rgb(255,183,78);"/>
    </g>
    <g transform="matrix(0.0483822,0,0,-0.0477779,-0.47875,24.0593)">
        <path d="M159.091,104.016C159.091,89.979 147.837,78.582 133.975,78.582L58.629,78.582C44.767,78.582 33.513,89.979 33.513,104.016L33.513,341.285C33.513,355.322 44.767,366.718 58.629,366.718L133.975,366.718C147.837,366.718 159.091,355.322 159.091,341.285L159.091,104.016Z" style="fill:rgb(67,165,245);"/>
    </g>
    <g transform="matrix(0.048,0,0,-0.048,-0.13391,24.1568)">
        <circle cx="89.885" cy="306.822" r="25.167" style="fill:rgb(187,222,251);"/>
    </g>
</svg>
