<?xml version="1.0" encoding="UTF-8" standalone="no"?>
<!DOCTYPE svg PUBLIC "-//W3C//DTD SVG 1.1//EN" "http://www.w3.org/Graphics/SVG/1.1/DTD/svg11.dtd">
<svg width="100%" height="100%" viewBox="0 0 24 24" version="1.1" xmlns="http://www.w3.org/2000/svg" xmlns:xlink="http://www.w3.org/1999/xlink" xml:space="preserve" xmlns:serif="http://www.serif.com/" style="fill-rule:evenodd;clip-rule:evenodd;stroke-linejoin:round;stroke-miterlimit:2;">
    <g transform="matrix(0.0339411,-0.0339411,0.0339411,0.0339411,-7.28833,12.5135)">
        <path d="M266.179,276.579C266.179,237.035 234.074,204.931 194.53,204.931L103.779,204.931C64.235,204.931 32.131,237.035 32.131,276.579C32.131,316.123 64.235,348.228 103.779,348.228L194.53,348.228C234.074,348.228 266.179,316.123 266.179,276.579ZM226.179,276.579C226.179,259.112 211.997,244.931 194.53,244.931L103.779,244.931C86.312,244.931 72.131,259.112 72.131,276.579C72.131,294.047 86.312,308.228 103.779,308.228L194.53,308.228C211.997,308.228 226.179,294.047 226.179,276.579Z" style="fill:rgb(67,165,245);"/>
    </g>
    <g transform="matrix(0.0339411,-0.0339411,0.0339411,0.0339411,2.38855,2.83662)">
        <path d="M266.179,276.579C266.179,237.035 234.074,204.931 194.53,204.931L103.779,204.931C64.235,204.931 32.131,237.035 32.131,276.579C32.131,316.123 64.235,348.228 103.779,348.228L194.53,348.228C234.074,348.228 266.179,316.123 266.179,276.579ZM226.179,276.579C226.179,259.112 211.997,244.931 194.53,244.931L103.779,244.931C86.312,244.931 72.131,259.112 72.131,276.579C72.131,294.047 86.312,308.228 103.779,308.228L194.53,308.228C211.997,308.228 226.179,294.047 226.179,276.579Z" style="fill:rgb(67,165,245);"/>
    </g>
    <g transform="matrix(0.0339411,-0.0339411,0.0383092,0.0383092,-1.59203,8.53293)">
        <path d="M266.179,222.65C266.179,212.871 257.217,204.931 246.179,204.931L52.131,204.931C41.092,204.931 32.131,212.871 32.131,222.65C32.131,232.43 41.092,240.37 52.131,240.37L246.179,240.37C257.217,240.37 266.179,232.43 266.179,222.65Z" style="fill:rgb(67,165,245);"/>
    </g>
</svg>
