<?xml version="1.0" encoding="UTF-8" standalone="no"?>
<!DOCTYPE svg PUBLIC "-//W3C//DTD SVG 1.1//EN" "http://www.w3.org/Graphics/SVG/1.1/DTD/svg11.dtd">
<svg width="100%" height="100%" viewBox="0 0 24 24" version="1.1" xmlns="http://www.w3.org/2000/svg" xmlns:xlink="http://www.w3.org/1999/xlink" xml:space="preserve" xmlns:serif="http://www.serif.com/" style="fill-rule:evenodd;clip-rule:evenodd;stroke-linejoin:round;stroke-miterlimit:2;">
    <g transform="matrix(-7.96654e-18,-0.068485,0.0759195,-7.96654e-18,-3.5985,19.7108)">
        <path d="M123.652,80.382C123.652,73.861 117.783,68.567 110.555,68.567C103.326,68.567 97.458,73.861 97.458,80.382L97.458,250.127C97.458,256.648 103.326,261.941 110.555,261.941C117.783,261.941 123.652,256.648 123.652,250.127L123.652,80.382Z" style="fill:rgb(125,179,67);"/>
    </g>
    <g transform="matrix(0.0517316,0,0,0.0517316,-1.03834,-0.793399)">
        <path d="M435.601,41.598C442.652,41.598 448.727,45.817 451.435,51.867L451.45,51.9C451.45,51.9 451.453,51.909 451.453,51.909C452.408,54.057 452.939,56.435 452.939,58.937L452.939,435.67C452.939,438.172 452.408,440.55 451.453,442.699L451.45,442.707C451.45,442.707 451.435,442.74 451.435,442.74C448.727,448.79 442.652,453.009 435.601,453.009L250.371,453.009C240.802,453.009 233.032,445.24 233.032,435.67C233.032,426.101 240.802,418.332 250.371,418.332L418.262,418.332L418.262,76.275L250.371,76.275C240.802,76.275 233.032,68.506 233.032,58.937C233.032,49.367 240.802,41.598 250.371,41.598L435.601,41.598Z" style="fill:rgb(55,71,79);"/>
    </g>
    <g transform="matrix(0.0484262,-0.0484262,0.0219447,0.0219447,4.92346,12.3794)">
        <path d="M123.652,97.469C123.652,81.517 117.783,68.567 110.555,68.567C103.326,68.567 97.458,81.517 97.458,97.469L97.458,233.04C97.458,248.991 103.326,261.941 110.555,261.941C117.783,261.941 123.652,248.991 123.652,233.04L123.652,97.469Z" style="fill:rgb(125,179,67);"/>
    </g>
    <g transform="matrix(0.0484262,0.0484262,0.0219447,-0.0219447,4.92346,11.8996)">
        <path d="M123.652,97.469C123.652,81.517 117.783,68.567 110.555,68.567C103.326,68.567 97.458,81.517 97.458,97.469L97.458,233.04C97.458,248.991 103.326,261.941 110.555,261.941C117.783,261.941 123.652,248.991 123.652,233.04L123.652,97.469Z" style="fill:rgb(125,179,67);"/>
    </g>
</svg>
