<?xml version="1.0" encoding="UTF-8" standalone="no"?>
<!DOCTYPE svg PUBLIC "-//W3C//DTD SVG 1.1//EN" "http://www.w3.org/Graphics/SVG/1.1/DTD/svg11.dtd">
<svg width="100%" height="100%" viewBox="0 0 24 24" version="1.1" xmlns="http://www.w3.org/2000/svg" xmlns:xlink="http://www.w3.org/1999/xlink" xml:space="preserve" xmlns:serif="http://www.serif.com/" style="fill-rule:evenodd;clip-rule:evenodd;stroke-linejoin:round;stroke-miterlimit:2;">
    <g transform="matrix(0.0251768,0,0,0.0251768,5.89356,5.70986)">
        <circle cx="242.542" cy="249.839" r="226.029" style="fill:rgb(251,140,1);"/>
    </g>
    <g transform="matrix(0.0458118,0,0,0.0458118,0.476471,-0.216815)">
        <path d="M264.638,35.439C264.638,28.211 258.769,22.342 251.541,22.342C244.312,22.342 238.444,28.211 238.444,35.439L238.444,107.176C238.444,114.404 244.312,120.273 251.541,120.273C258.769,120.273 264.638,114.404 264.638,107.176L264.638,35.439Z" style="fill:rgb(251,192,46);"/>
    </g>
    <g transform="matrix(0.0458118,0,0,0.0458118,0.476471,17.6834)">
        <path d="M264.638,35.439C264.638,28.211 258.769,22.342 251.541,22.342C244.312,22.342 238.444,28.211 238.444,35.439L238.444,107.176C238.444,114.404 244.312,120.273 251.541,120.273C258.769,120.273 264.638,114.404 264.638,107.176L264.638,35.439Z" style="fill:rgb(251,192,46);"/>
    </g>
    <g transform="matrix(0.0323938,0.0323938,-0.0323938,0.0323938,12.4902,-4.78696)">
        <path d="M264.638,35.439C264.638,28.211 258.769,22.342 251.541,22.342C244.312,22.342 238.444,28.211 238.444,35.439L238.444,107.176C238.444,114.404 244.312,120.273 251.541,120.273C258.769,120.273 264.638,114.404 264.638,107.176L264.638,35.439Z" style="fill:rgb(251,192,46);"/>
    </g>
    <g transform="matrix(0.0323938,0.0323938,-0.0323938,0.0323938,-0.167119,7.87039)">
        <path d="M264.638,35.439C264.638,28.211 258.769,22.342 251.541,22.342C244.312,22.342 238.444,28.211 238.444,35.439L238.444,107.176C238.444,114.404 244.312,120.273 251.541,120.273C258.769,120.273 264.638,114.404 264.638,107.176L264.638,35.439Z" style="fill:rgb(251,192,46);"/>
    </g>
    <g transform="matrix(0,0.0458118,-0.0458118,0,24.2168,0.476471)">
        <path d="M264.638,35.439C264.638,28.211 258.769,22.342 251.541,22.342C244.312,22.342 238.444,28.211 238.444,35.439L238.444,107.176C238.444,114.404 244.312,120.273 251.541,120.273C258.769,120.273 264.638,114.404 264.638,107.176L264.638,35.439Z" style="fill:rgb(251,192,46);"/>
    </g>
    <g transform="matrix(0,0.0458118,-0.0458118,0,6.31662,0.476471)">
        <path d="M264.638,35.439C264.638,28.211 258.769,22.342 251.541,22.342C244.312,22.342 238.444,28.211 238.444,35.439L238.444,107.176C238.444,114.404 244.312,120.273 251.541,120.273C258.769,120.273 264.638,114.404 264.638,107.176L264.638,35.439Z" style="fill:rgb(251,192,46);"/>
    </g>
    <g transform="matrix(-0.0323938,0.0323938,-0.0323938,-0.0323938,28.787,12.4902)">
        <path d="M264.638,35.439C264.638,28.211 258.769,22.342 251.541,22.342C244.312,22.342 238.444,28.211 238.444,35.439L238.444,107.176C238.444,114.404 244.312,120.273 251.541,120.273C258.769,120.273 264.638,114.404 264.638,107.176L264.638,35.439Z" style="fill:rgb(251,192,46);"/>
    </g>
    <g transform="matrix(-0.0323938,0.0323938,-0.0323938,-0.0323938,16.1296,-0.167119)">
        <path d="M264.638,35.439C264.638,28.211 258.769,22.342 251.541,22.342C244.312,22.342 238.444,28.211 238.444,35.439L238.444,107.176C238.444,114.404 244.312,120.273 251.541,120.273C258.769,120.273 264.638,114.404 264.638,107.176L264.638,35.439Z" style="fill:rgb(251,192,46);"/>
    </g>
</svg>
