<?xml version="1.0" encoding="UTF-8" standalone="no"?>
<!DOCTYPE svg PUBLIC "-//W3C//DTD SVG 1.1//EN" "http://www.w3.org/Graphics/SVG/1.1/DTD/svg11.dtd">
<svg width="100%" height="100%" viewBox="0 0 24 24" version="1.1" xmlns="http://www.w3.org/2000/svg" xmlns:xlink="http://www.w3.org/1999/xlink" xml:space="preserve" xmlns:serif="http://www.serif.com/" style="fill-rule:evenodd;clip-rule:evenodd;stroke-linejoin:round;stroke-miterlimit:2;">
    <g transform="matrix(0.0397421,0.0397421,-0.0462484,0.0462484,9.34698,-1.98325)">
        <rect x="69.337" y="29.276" width="71.071" height="71.071" style="fill:rgb(85,111,123);"/>
    </g>
    <g transform="matrix(0.0397421,0.0397421,-0.0462484,0.0462484,17.6475,6.31728)">
        <rect x="69.337" y="29.276" width="71.071" height="71.071" style="fill:rgb(85,111,123);"/>
    </g>
    <g transform="matrix(0.0353063,0.0353063,-0.0353063,0.0353063,12.7386,-6.3918)">
        <path d="M407.55,216.456L407.55,327.812C407.55,414.766 336.954,485.362 250,485.362C163.046,485.362 92.45,414.766 92.45,327.812L92.45,216.456L172.45,216.456L172.45,327.812C172.45,370.613 207.199,405.362 250,405.362C292.801,405.362 327.55,370.613 327.55,327.812L327.55,216.456L407.55,216.456Z" style="fill:rgb(255,62,1);"/>
    </g>
    <g transform="matrix(-0.0517221,0,0,0.0491283,30.1305,-1.93199)">
        <path d="M277.797,161.518C277.797,154.506 272.39,148.814 265.73,148.814L212.864,148.814C206.204,148.814 200.797,154.506 200.797,161.518C200.797,168.529 206.204,174.222 212.864,174.222L265.73,174.222C272.39,174.222 277.797,168.529 277.797,161.518Z" style="fill:rgb(251,192,46);"/>
    </g>
    <g transform="matrix(-0.032494,0.0562812,0.0425464,0.0245641,18.2291,-13.0587)">
        <path d="M277.797,161.518C277.797,154.506 273.494,148.814 268.193,148.814L210.401,148.814C205.1,148.814 200.797,154.506 200.797,161.518C200.797,168.529 205.1,174.222 210.401,174.222L268.193,174.222C273.494,174.222 277.797,168.529 277.797,161.518Z" style="fill:rgb(251,192,46);"/>
    </g>
    <g transform="matrix(-0.032494,0.0562812,0.0425464,0.0245641,19.0855,-9.80605)">
        <path d="M277.797,161.518C277.797,154.506 273.494,148.814 268.193,148.814L210.401,148.814C205.1,148.814 200.797,154.506 200.797,161.518C200.797,168.529 205.1,174.222 210.401,174.222L268.193,174.222C273.494,174.222 277.797,168.529 277.797,161.518Z" style="fill:rgb(251,192,46);"/>
    </g>
</svg>
