<?xml version="1.0" encoding="UTF-8" standalone="no"?>
<!DOCTYPE svg PUBLIC "-//W3C//DTD SVG 1.1//EN" "http://www.w3.org/Graphics/SVG/1.1/DTD/svg11.dtd">
<svg width="100%" height="100%" viewBox="0 0 24 24" version="1.1" xmlns="http://www.w3.org/2000/svg" xmlns:xlink="http://www.w3.org/1999/xlink" xml:space="preserve" xmlns:serif="http://www.serif.com/" style="fill-rule:evenodd;clip-rule:evenodd;stroke-linejoin:round;stroke-miterlimit:2;">
    <g transform="matrix(0.0504868,0,0,0.0504868,-0.602262,0.5258)">
        <path d="M62.018,170.532L250,250L437.211,170.532C437.211,164.367 459.553,164.367 459.553,170.532L459.553,373.263C459.553,373.757 459.521,374.244 459.459,374.721C458.744,380.199 454.054,384.434 448.382,384.434L50.847,384.434C45.176,384.434 40.486,380.199 39.771,374.721C39.709,374.244 39.676,373.757 39.676,373.263L39.676,170.532C39.676,164.367 62.018,164.367 62.018,170.532Z" style="fill:rgb(176,190,197);"/>
    </g>
    <g transform="matrix(0.0504868,0,0,0.0504868,-0.602262,0.5258)">
        <path d="M448.382,70.108C451.512,70.108 454.342,71.398 456.371,73.474L456.39,73.494C458.347,75.506 459.553,78.253 459.553,81.279L459.553,178.068L254.063,261.092C252.713,261.637 251.319,261.899 249.946,261.907C248.372,261.987 246.758,261.734 245.202,261.106L39.676,178.068L39.676,81.279C39.676,78.253 40.882,75.506 42.839,73.494L42.858,73.474C44.887,71.398 47.718,70.108 50.847,70.108L448.382,70.108Z" style="fill:rgb(236,239,241);"/>
    </g>
</svg>
