<?xml version="1.0" encoding="UTF-8" standalone="no"?>
<!DOCTYPE svg PUBLIC "-//W3C//DTD SVG 1.1//EN" "http://www.w3.org/Graphics/SVG/1.1/DTD/svg11.dtd">
<svg width="100%" height="100%" viewBox="0 0 24 24" version="1.1" xmlns="http://www.w3.org/2000/svg" xmlns:xlink="http://www.w3.org/1999/xlink" xml:space="preserve" xmlns:serif="http://www.serif.com/" style="fill-rule:evenodd;clip-rule:evenodd;stroke-linejoin:round;stroke-miterlimit:2;">
    <g transform="matrix(0.0519496,0,0,0.0519496,-1.05921,-1.67601)">
        <path d="M197.227,170.262C278.441,170.262 344.376,236.197 344.376,317.411C344.376,398.625 278.441,464.561 197.227,464.561C116.013,464.561 50.077,398.625 50.077,317.411C50.077,236.197 116.013,170.262 197.227,170.262ZM197.227,213.405C254.629,213.405 301.233,260.009 301.233,317.411C301.233,374.814 254.629,421.418 197.227,421.418C139.824,421.418 93.22,374.814 93.22,317.411C93.22,260.009 139.824,213.405 197.227,213.405Z" style="fill:rgb(67,165,245);"/>
    </g>
    <g transform="matrix(0.0367339,0.0367339,-0.0449746,0.0449746,15.7807,-15.4964)">
        <path d="M344.376,140.115C344.376,130.391 334.71,122.496 322.804,122.496C310.899,122.496 301.233,130.391 301.233,140.115L301.233,307.496C301.233,317.221 310.899,325.116 322.804,325.116C334.71,325.116 344.376,317.221 344.376,307.496L344.376,140.115Z" style="fill:rgb(67,165,245);"/>
    </g>
    <g transform="matrix(0.0519496,0,0,0.0362626,4.56755,-2.89976)">
        <path d="M344.376,153.4C344.376,136.343 334.71,122.496 322.804,122.496C310.899,122.496 301.233,136.343 301.233,153.4L301.233,294.212C301.233,311.268 310.899,325.116 322.804,325.116C334.71,325.116 344.376,311.268 344.376,294.212L344.376,153.4Z" style="fill:rgb(67,165,245);"/>
    </g>
    <g transform="matrix(3.18099e-18,0.0519496,-0.0362626,2.22044e-18,26.8994,-14.1066)">
        <path d="M344.376,153.4C344.376,136.343 334.71,122.496 322.804,122.496C310.899,122.496 301.233,136.343 301.233,153.4L301.233,294.212C301.233,311.268 310.899,325.116 322.804,325.116C334.71,325.116 344.376,311.268 344.376,294.212L344.376,153.4Z" style="fill:rgb(67,165,245);"/>
    </g>
</svg>
