<?xml version="1.0" encoding="UTF-8" standalone="no"?>
<!DOCTYPE svg PUBLIC "-//W3C//DTD SVG 1.1//EN" "http://www.w3.org/Graphics/SVG/1.1/DTD/svg11.dtd">
<svg width="100%" height="100%" viewBox="0 0 24 24" version="1.1" xmlns="http://www.w3.org/2000/svg" xmlns:xlink="http://www.w3.org/1999/xlink" xml:space="preserve" xmlns:serif="http://www.serif.com/" style="fill-rule:evenodd;clip-rule:evenodd;stroke-linejoin:round;stroke-miterlimit:2;">
    <g transform="matrix(0.0424007,0.0126424,0,0.0424007,-1.62179,0.653906)">
        <rect x="69.337" y="57.781" width="167.951" height="328.197" style="fill:white;"/>
    </g>
    <g transform="matrix(0.0424007,0.0126424,0,0.0424007,12.6207,0.653906)">
        <rect x="69.337" y="57.781" width="167.951" height="328.197" style="fill:white;"/>
    </g>
    <g transform="matrix(-0.0424007,0.0126424,0,0.0424007,18.5006,0.653906)">
        <rect x="69.337" y="57.781" width="167.951" height="328.197" style="fill:white;"/>
    </g>
    <g transform="matrix(0.048,0,0,0.048,1.36424e-15,-0.689242)">
        <path d="M324.179,117.101L452.507,155.364L452.507,405.645L324.179,367.382L288.224,378.103L186.055,200.647L324.179,117.101Z" style="fill:rgb(207,216,220);"/>
    </g>
    <g transform="matrix(0.048,0,0,0.048,1.36424e-15,-0.689242)">
        <path d="M273.539,132.2C301.316,123.918 298.84,130.843 298.84,130.843L46.722,285.788L46.722,122.843L175.821,161.336C175.821,161.336 230.561,145.015 273.539,132.2Z" style="fill:rgb(67,165,245);"/>
    </g>
    <g transform="matrix(0.048,0,0,0.048,1.36424e-15,-0.689242)">
        <path d="M282.337,379.858L175.821,411.618L46.722,373.125L46.722,291.864L194.284,206.471L282.337,379.858Z" style="fill:rgb(125,179,67);"/>
    </g>
    <g transform="matrix(0.048,0,0,0.048,1.36424e-15,-0.689242)">
        <path d="M452.507,271.195L452.507,295.659L324.179,318.499L272.317,348.441L261.724,330.093L324.179,294.035L452.507,271.195Z" style="fill:rgb(144,164,174);"/>
    </g>
    <g transform="matrix(0.048,0,0,0.048,1.36424e-15,-0.689242)">
        <path d="M407.763,392.446L380.995,384.549L321.288,174.114L298.656,133.437L324.179,117.101L407.763,392.446Z" style="fill:rgb(144,164,174);"/>
    </g>
    <g transform="matrix(0.048,0,0,0.048,1.36424e-15,-0.689242)">
        <path d="M300.336,374.491L279.465,380.714L181.62,211.241L199.968,200.647L300.336,374.491Z" style="fill:rgb(245,243,242);"/>
    </g>
    <g transform="matrix(0.048,0,0,0.048,1.36424e-15,-0.689242)">
        <path d="M324.179,117.101L175.821,223.539L46.722,298.074L46.722,273.61L175.821,199.075L268.802,133.612L324.179,117.101Z" style="fill:rgb(255,193,8);"/>
    </g>
</svg>
