<?xml version="1.0" encoding="UTF-8" standalone="no"?>
<!DOCTYPE svg PUBLIC "-//W3C//DTD SVG 1.1//EN" "http://www.w3.org/Graphics/SVG/1.1/DTD/svg11.dtd">
<svg width="100%" height="100%" viewBox="0 0 24 24" version="1.1" xmlns="http://www.w3.org/2000/svg" xmlns:xlink="http://www.w3.org/1999/xlink" xml:space="preserve" xmlns:serif="http://www.serif.com/" style="fill-rule:evenodd;clip-rule:evenodd;stroke-linejoin:round;stroke-miterlimit:2;">
    <g transform="matrix(0.048,0,0,0.048,0.676232,2.18182)">
        <circle cx="235.747" cy="325.501" r="106.703" style="fill:rgb(255,193,8);"/>
    </g>
    <g transform="matrix(0.048,0,0,0.048,-0.0263878,1.33202)">
        <path d="M165.254,236.502L165.254,209.553C165.254,200.199 172.849,192.604 182.203,192.604L318.567,192.604C327.922,192.604 335.516,200.199 335.516,209.553L335.516,236.502L165.254,236.502Z" style="fill:rgb(255,193,8);"/>
    </g>
    <g transform="matrix(0.0577751,0,0,0.0577751,-2.77437,-3.11323)">
        <path d="M251.5,306.7C252.332,305.226 253.893,304.314 255.586,304.314C257.278,304.314 258.839,305.226 259.671,306.7L277.255,337.855L312.319,344.951C313.978,345.287 315.328,346.49 315.851,348.1C316.374,349.709 315.989,351.476 314.845,352.723L290.648,379.073L294.735,414.614C294.928,416.296 294.201,417.951 292.832,418.946C291.462,419.941 289.663,420.121 288.124,419.417L255.586,404.548L223.047,419.417C221.508,420.121 219.709,419.941 218.339,418.946C216.97,417.951 216.243,416.296 216.436,414.614L220.523,379.073L196.326,352.723C195.182,351.476 194.797,349.709 195.32,348.1C195.843,346.49 197.193,345.287 198.852,344.951L233.916,337.855L251.5,306.7Z" style="fill:rgb(205,154,0);"/>
    </g>
    <g transform="matrix(-0.0577391,0,-0.0206365,0.048,30.3323,0.1849)">
        <rect x="186.826" y="18.49" width="106.317" height="198.012" style="fill:rgb(182,54,55);"/>
    </g>
    <g transform="matrix(0.0577391,0,0.0206365,0.048,-6.33226,0.1849)">
        <rect x="186.826" y="18.49" width="106.317" height="198.012" style="fill:rgb(244,68,55);"/>
    </g>
</svg>
