<?xml version="1.0" encoding="UTF-8" standalone="no"?>
<!DOCTYPE svg PUBLIC "-//W3C//DTD SVG 1.1//EN" "http://www.w3.org/Graphics/SVG/1.1/DTD/svg11.dtd">
<svg width="100%" height="100%" viewBox="0 0 24 24" version="1.1" xmlns="http://www.w3.org/2000/svg" xmlns:xlink="http://www.w3.org/1999/xlink" xml:space="preserve" xmlns:serif="http://www.serif.com/" style="fill-rule:evenodd;clip-rule:evenodd;stroke-linejoin:round;stroke-miterlimit:2;">
    <g transform="matrix(0.048,0,0,0.048,0,0)">
        <path d="M399.194,98L370.717,69.523C361.937,60.742 361.937,46.484 370.717,37.703C379.498,28.922 393.756,28.922 402.537,37.703L469.424,104.59C472.403,107.569 474.371,111.177 475.328,114.987C475.72,116.542 475.951,118.161 476,119.824L476.002,119.92L476.006,120.064L476.006,120.095L476.007,120.134L476.008,120.209L476.008,120.23L476.009,120.296L476.009,120.355L476.009,120.365L476.01,120.5L476.009,120.635L476.009,120.645L476.009,120.704L476.008,120.77L476.008,120.791L476.007,120.866L476.006,120.936L476.004,121.021L476.002,121.08L476,121.176C475.951,122.839 475.72,124.457 475.328,126.013C474.371,129.823 472.403,133.431 469.424,136.41C469.424,136.41 402.537,203.297 402.537,203.297C393.756,212.078 379.498,212.078 370.717,203.297C361.937,194.516 361.937,180.258 370.717,171.477L399.194,143L379.5,143C320.445,143 272.5,190.945 272.5,250C272.5,309.055 320.445,357 379.5,357L399.194,357L370.717,328.523C361.937,319.742 361.937,305.484 370.717,296.703C379.498,287.922 393.756,287.922 402.537,296.703L469.424,363.59C472.403,366.569 474.371,370.177 475.328,373.987C475.72,375.542 475.951,377.161 476,378.824L476.002,378.92L476.006,379.064L476.006,379.095L476.007,379.134L476.008,379.209L476.008,379.23L476.009,379.296L476.009,379.355L476.009,379.365L476.01,379.5L476.009,379.635L476.009,379.645L476.009,379.704L476.008,379.77L476.008,379.791L476.007,379.866L476.006,379.936L476.004,380.021L476.002,380.08L476,380.176C475.951,381.839 475.72,383.457 475.328,385.013C474.371,388.823 472.403,392.431 469.424,395.41C469.424,395.41 402.537,462.297 402.537,462.297C393.756,471.078 379.498,471.078 370.717,462.297C361.937,453.516 361.937,439.258 370.717,430.477L399.194,402L379.5,402C324.778,402 276.771,373.02 250,329.579C223.229,373.02 175.222,402 120.5,402L46.49,402C34.072,402 23.99,391.918 23.99,379.5C23.99,367.082 34.072,357 46.49,357L120.5,357C179.555,357 227.5,309.055 227.5,250C227.5,190.945 179.555,143 120.5,143L46.49,143L46.345,143C33.994,142.921 23.99,132.87 23.99,120.5C23.99,108.082 34.072,98 46.49,98L120.5,98C175.222,98 223.229,126.98 250,170.421C276.771,126.98 324.778,98 379.5,98L399.194,98Z" style="fill:rgb(70,91,101);"/>
    </g>
</svg>
