<?xml version="1.0" encoding="UTF-8" standalone="no"?>
<!DOCTYPE svg PUBLIC "-//W3C//DTD SVG 1.1//EN" "http://www.w3.org/Graphics/SVG/1.1/DTD/svg11.dtd">
<svg width="100%" height="100%" viewBox="0 0 24 24" version="1.1" xmlns="http://www.w3.org/2000/svg" xmlns:xlink="http://www.w3.org/1999/xlink" xml:space="preserve" xmlns:serif="http://www.serif.com/" style="fill-rule:evenodd;clip-rule:evenodd;stroke-linejoin:round;stroke-miterlimit:2;">
    <g transform="matrix(0.049316,0,0,0.0707018,-0.397756,-7.68982)">
        <path d="M123.951,226.793C123.951,222.311 118.734,218.672 112.309,218.672C105.883,218.672 100.667,222.311 100.667,226.793L100.667,298.252C100.667,302.734 105.883,306.372 112.309,306.372C118.734,306.372 123.951,302.734 123.951,298.252L123.951,226.793Z" style="fill:rgb(97,126,139);"/>
    </g>
    <g transform="matrix(0.024658,0.0427089,-0.0581579,0.0335775,19.6919,-6.48199)">
        <path d="M123.951,227.221C123.951,222.503 118.734,218.672 112.309,218.672C105.883,218.672 100.667,222.503 100.667,227.221L100.667,297.823C100.667,302.541 105.883,306.372 112.309,306.372C118.734,306.372 123.951,302.541 123.951,297.823L123.951,227.221Z" style="fill:rgb(97,126,139);"/>
    </g>
    <g transform="matrix(-0.049316,0,0,0.0707018,24.3978,-7.68982)">
        <path d="M123.951,226.793C123.951,222.311 118.734,218.672 112.309,218.672C105.883,218.672 100.667,222.311 100.667,226.793L100.667,298.252C100.667,302.734 105.883,306.372 112.309,306.372C118.734,306.372 123.951,302.734 123.951,298.252L123.951,226.793Z" style="fill:rgb(97,126,139);"/>
    </g>
    <g transform="matrix(-0.024658,0.0427089,0.0581579,0.0335775,4.30806,-6.48199)">
        <path d="M123.951,227.221C123.951,222.503 118.734,218.672 112.309,218.672C105.883,218.672 100.667,222.503 100.667,227.221L100.667,297.823C100.667,302.541 105.883,306.372 112.309,306.372C118.734,306.372 123.951,302.541 123.951,297.823L123.951,227.221Z" style="fill:rgb(97,126,139);"/>
    </g>
    <g transform="matrix(0.024658,-0.0427089,-0.0739213,-0.0426785,25.8802,36.7702)">
        <path d="M123.951,225.398C123.951,221.686 118.734,218.672 112.309,218.672C105.883,218.672 100.667,221.686 100.667,225.398L100.667,299.646C100.667,303.358 105.883,306.372 112.309,306.372C118.734,306.372 123.951,303.358 123.951,299.646L123.951,225.398Z" style="fill:rgb(97,126,139);"/>
    </g>
    <g transform="matrix(-0.024658,-0.0427089,-0.0739232,0.0426796,36.9322,14.3618)">
        <path d="M123.951,225.398C123.951,221.686 118.734,218.672 112.309,218.672C105.883,218.672 100.667,221.686 100.667,225.398L100.667,299.646C100.667,303.358 105.883,306.372 112.309,306.372C118.734,306.372 123.951,303.358 123.951,299.646L123.951,225.398Z" style="fill:rgb(97,126,139);"/>
    </g>
    <g transform="matrix(-0.0328602,0.0213191,0,0.0454333,10.8496,3.93629)">
        <path d="M173.729,198.573L79.789,198.456L76.273,198.967L76.271,296.225L173.729,296.225L173.729,198.573Z" style="fill:rgb(187,222,251);"/>
    </g>
    <g transform="matrix(0.0328602,0.0213191,0,0.0455241,-0.567896,3.9094)">
        <path d="M173.729,198.767L104.737,196.091L76.271,198.767L76.271,296.225L173.729,296.225L173.729,198.767Z" style="fill:rgb(115,178,230);"/>
    </g>
    <g transform="matrix(0.0328602,0.0213191,-0.0328596,0.0211375,9.16594,6.69665)">
        <rect x="76.271" y="198.767" width="97.458" height="97.458" style="fill:rgb(144,202,249);"/>
    </g>
    <g transform="matrix(-0.0328602,0.0213191,0,0.0454333,24.5679,3.93629)">
        <path d="M173.729,198.573L79.789,198.456L76.273,198.967L76.271,296.225L173.729,296.225L173.729,198.573Z" style="fill:rgb(187,222,251);"/>
    </g>
    <g transform="matrix(0.0328602,0.0213191,0,0.0455241,13.1504,3.9094)">
        <path d="M173.729,198.767L104.737,196.091L76.271,198.767L76.271,296.225L173.729,296.225L173.729,198.767Z" style="fill:rgb(115,178,230);"/>
    </g>
    <g transform="matrix(0.0328602,0.0213191,-0.0328596,0.0211375,22.8842,6.69665)">
        <rect x="76.271" y="198.767" width="97.458" height="97.458" style="fill:rgb(144,202,249);"/>
    </g>
    <g transform="matrix(-0.0328602,0.0213191,0,0.0454333,17.7088,-7.51601)">
        <path d="M173.729,198.573L79.789,198.456L76.273,198.967L76.271,296.225L173.729,296.225L173.729,198.573Z" style="fill:rgb(187,222,251);"/>
    </g>
    <g transform="matrix(0.0328602,0.0213191,0,0.0455241,6.29123,-7.5429)">
        <path d="M173.729,198.767L104.737,196.091L76.271,198.767L76.271,296.225L173.729,296.225L173.729,198.767Z" style="fill:rgb(115,178,230);"/>
    </g>
    <g transform="matrix(0.0328602,0.0213191,-0.0328596,0.0211375,16.0251,-4.75565)">
        <rect x="76.271" y="198.767" width="97.458" height="97.458" style="fill:rgb(144,202,249);"/>
    </g>
</svg>
