<?xml version="1.0" encoding="UTF-8" standalone="no"?>
<!DOCTYPE svg PUBLIC "-//W3C//DTD SVG 1.1//EN" "http://www.w3.org/Graphics/SVG/1.1/DTD/svg11.dtd">
<svg width="100%" height="100%" viewBox="0 0 24 24" version="1.1" xmlns="http://www.w3.org/2000/svg" xmlns:xlink="http://www.w3.org/1999/xlink" xml:space="preserve" xmlns:serif="http://www.serif.com/" style="fill-rule:evenodd;clip-rule:evenodd;stroke-linejoin:round;stroke-miterlimit:2;">
    <g transform="matrix(0.048,0,0,0.048,0,0)">
        <path d="M416.307,260.401L416.307,446.578C416.307,465.432 400.999,480.74 382.145,480.74L105.472,480.74C86.618,480.74 71.31,465.432 71.31,446.578L71.31,260.401L416.307,260.401Z" style="fill:rgb(97,126,139);"/>
    </g>
    <g transform="matrix(2.33826e-18,0.0381867,-0.0513489,3.14421e-18,30.9686,8.70099)">
        <path d="M255.582,310.478L324.21,412.943L186.955,412.943L255.582,310.478Z" style="fill:rgb(207,216,220);"/>
    </g>
    <g transform="matrix(-0.0438295,0.0195698,0.0195698,0.0438295,17.5232,-7.26346)">
        <path d="M71.31,211.864L71.31,173.287C71.31,154.433 86.618,139.126 105.472,139.126L382.145,139.126C400.999,139.126 416.307,154.433 416.307,173.287L416.307,211.864L71.31,211.864Z" style="fill:rgb(207,216,220);"/>
    </g>
    <g transform="matrix(-0.0438295,0.0195698,0.0195698,0.0438295,17.5232,-7.26346)">
        <path d="M123.627,139.126L88.384,211.864L71.31,211.864L71.31,196.243L98.654,139.808C100.858,139.36 103.138,139.126 105.472,139.126L123.627,139.126ZM137.669,211.864L113.027,211.864L148.27,139.126L172.912,139.126L137.669,211.864ZM186.955,211.864L162.312,211.864L197.555,139.126L222.197,139.126L186.955,211.864ZM236.24,211.864L211.597,211.864L246.84,139.126L271.483,139.126L236.24,211.864ZM285.525,211.864L260.882,211.864L296.125,139.126L320.768,139.126L285.525,211.864ZM334.81,211.864L310.167,211.864L345.41,139.126L370.053,139.126L334.81,211.864ZM393.72,141.14C401.119,143.807 407.337,148.959 411.363,155.587L384.095,211.864L359.453,211.864L393.72,141.14ZM416.307,211.864L408.738,211.864L416.307,196.243L416.307,211.864Z" style="fill:rgb(97,126,139);"/>
    </g>
    <g transform="matrix(0.048,0,0,0.048,0,0)">
        <rect x="71.31" y="211.864" width="344.996" height="72.739" style="fill:rgb(207,216,220);"/>
    </g>
    <g transform="matrix(0.048,0,0,0.048,0,0)">
        <path d="M102.427,284.603L77.784,284.603L113.027,211.864L137.669,211.864L102.427,284.603ZM151.712,284.603L127.069,284.603L162.312,211.864L186.955,211.864L151.712,284.603ZM200.997,284.603L176.354,284.603L211.597,211.864L236.24,211.864L200.997,284.603ZM250.282,284.603L225.639,284.603L260.882,211.864L285.525,211.864L250.282,284.603ZM299.567,284.603L274.925,284.603L310.167,211.864L334.81,211.864L299.567,284.603ZM348.852,284.603L324.21,284.603L359.453,211.864L384.095,211.864L348.852,284.603ZM416.307,247.103L398.138,284.603L373.495,284.603L408.738,211.864L416.307,211.864L416.307,247.103ZM88.384,211.864L71.31,247.103L71.31,211.864L88.384,211.864Z" style="fill:rgb(97,126,139);"/>
    </g>
</svg>
