<?xml version="1.0" encoding="UTF-8" standalone="no"?>
<!DOCTYPE svg PUBLIC "-//W3C//DTD SVG 1.1//EN" "http://www.w3.org/Graphics/SVG/1.1/DTD/svg11.dtd">
<svg width="100%" height="100%" viewBox="0 0 24 24" version="1.1" xmlns="http://www.w3.org/2000/svg" xmlns:xlink="http://www.w3.org/1999/xlink" xml:space="preserve" xmlns:serif="http://www.serif.com/" style="fill-rule:evenodd;clip-rule:evenodd;stroke-linejoin:round;stroke-miterlimit:2;">
    <g transform="matrix(0.048,0,0,0.048,0,0)">
        <path d="M161.595,328.864L161.595,112.32C161.595,92.166 177.435,72.926 196.947,69.383L423.623,28.219C443.135,24.675 458.975,38.162 458.975,58.317L458.975,352.281C458.975,353.314 458.887,354.326 458.717,355.312C455.465,395.403 421.855,426.97 380.93,426.97C337.856,426.97 302.885,392 302.885,348.925C302.885,305.851 337.856,270.88 380.93,270.88C396.609,270.88 411.215,275.514 423.455,283.488L423.455,149.975L197.115,191.078L197.115,397.657C197.115,398.69 197.026,399.702 196.857,400.688C193.605,440.779 159.995,472.347 119.07,472.347C75.995,472.347 41.025,437.376 41.025,394.301C41.025,351.227 75.995,316.256 119.07,316.256C134.749,316.256 149.354,320.89 161.595,328.864Z" style="fill:rgb(70,91,101);"/>
    </g>
</svg>
